<mxfile host="app.diagrams.net" modified="2021-10-20T01:02:59.529Z" agent="5.0 (Macintosh; Intel Mac OS X 10_15_7) AppleWebKit/537.36 (KHTML, like Gecko) Chrome/94.0.4606.81 Safari/537.36" etag="yYUrL7x-sXQ-KrKBvAUR" version="15.5.6" type="github">
  <diagram id="-Nwm6UVX2Gunz7reo-ho" name="ページ1">
    <mxGraphModel dx="1351" dy="841" grid="1" gridSize="10" guides="1" tooltips="1" connect="1" arrows="1" fold="1" page="1" pageScale="1" pageWidth="827" pageHeight="1169" math="0" shadow="0">
      <root>
        <mxCell id="0" />
        <mxCell id="1" parent="0" />
        <mxCell id="VUted_YG8UqEreyTRTVP-7" value="" style="rounded=0;whiteSpace=wrap;html=1;fillColor=none;strokeColor=#0000CC;" vertex="1" parent="1">
          <mxGeometry x="817" y="548" width="263" height="102" as="geometry" />
        </mxCell>
        <mxCell id="gHTo8Egn2OixE67H1dD7-3" value="" style="edgeStyle=orthogonalEdgeStyle;rounded=0;orthogonalLoop=1;jettySize=auto;html=1;" parent="1" source="gHTo8Egn2OixE67H1dD7-1" edge="1">
          <mxGeometry relative="1" as="geometry">
            <mxPoint x="550" y="480" as="targetPoint" />
          </mxGeometry>
        </mxCell>
        <mxCell id="gHTo8Egn2OixE67H1dD7-1" value="Lazy.com" style="rounded=0;whiteSpace=wrap;html=1;" parent="1" vertex="1">
          <mxGeometry x="350" y="450" width="120" height="60" as="geometry" />
        </mxCell>
        <mxCell id="gHTo8Egn2OixE67H1dD7-4" value="&lt;div style=&quot;text-align: left&quot;&gt;&lt;span style=&quot;font-size: 24px&quot;&gt;ETH/WETH&lt;/span&gt;&lt;/div&gt;" style="text;html=1;strokeColor=none;fillColor=none;align=center;verticalAlign=middle;whiteSpace=wrap;rounded=0;" parent="1" vertex="1">
          <mxGeometry x="350" y="370" width="130" height="30" as="geometry" />
        </mxCell>
        <mxCell id="gHTo8Egn2OixE67H1dD7-5" value="&lt;font style=&quot;font-size: 48px&quot;&gt;NFT AUCTION&lt;/font&gt;" style="text;html=1;strokeColor=none;fillColor=none;align=left;verticalAlign=middle;whiteSpace=wrap;rounded=0;" parent="1" vertex="1">
          <mxGeometry x="350" y="120" width="330" height="30" as="geometry" />
        </mxCell>
        <mxCell id="gHTo8Egn2OixE67H1dD7-7" value="&lt;div style=&quot;text-align: left&quot;&gt;&lt;span style=&quot;font-size: 24px&quot;&gt;ALGO&lt;/span&gt;&lt;/div&gt;" style="text;html=1;strokeColor=none;fillColor=none;align=center;verticalAlign=middle;whiteSpace=wrap;rounded=0;" parent="1" vertex="1">
          <mxGeometry x="800" y="370" width="130" height="30" as="geometry" />
        </mxCell>
        <UserObject label="" link="https://www.zestbloom.io/" id="gHTo8Egn2OixE67H1dD7-9">
          <mxCell style="shape=image;verticalLabelPosition=bottom;labelBackgroundColor=#ffffff;verticalAlign=top;aspect=fixed;imageAspect=0;image=data:image/png,iVBORw0KGgoAAAANSUhEUgAAAOwAAABNCAYAAAClk4hfAAAK0mlDQ1BJQ0MgUHJvZmlsZQAASImVlwdUU9kWhs+96Y0WQDqhN0E6AaSEHnpvohKSQEIJMQURuzI4gmNBRQSUER0EUXB0BERUxIIFUex9ggwK6jhYsIDKXOARZuat9956e62T860/++yz9805d+0AQPFjCYXZsBIAOQKJKDrQh5aYlEzDDQAigAEOWANHFlssZERGhgLEpue/24c7AJqYb1pPxPr37/+rqXC4YjYAUArCaRwxOwfhDmQMsoUiCQCoOkQ3WiwRTnA3wqoiJEGEZROcMcXvJzhtktH4SZ/YaF+EdQDAk1ksUQYAZHNEp+WxM5A45CCEbQUcvgDhfIQ92TwWB+FWhGfn5ORO8G8ImyP+QgAoZITpaX+JmfG3+Gny+CxWhpyn6po0vB9fLMxmLfk/H83/tpxs6fQepsgg80RB0ciM/JrQvazcEDkL0sIjppnPmfSfZJ40KG6a2WLf5GnmsPxC5Guzw0OnOZ0fwJTHkTBjp5kr9o+ZZlFutHyvdJEvY5pZopl9pVlxcp3HZcrjF/BiE6Y5jx8fPs3irJiQGR9fuS6SRsvz5woCfWb2DZDXniP+S718pnythBcbJK+dNZM/V8CYiSlOlOfG4fr5z/jEyf2FEh/5XsLsSLk/NztQrovzYuRrJcjhnFkbKX+GmazgyGkGQSAS0IA/sAeOwAFwJNx8yUQRvrnCJSJ+Bk9CYyA3jUtjCtg2s2n2tvZ2AEzc26mj8Pv5yfsI6WjPaCw35MhfRcS1M1qONQAn0pAr6DSjmecCQO0F4LSELRXlTWnoiQ8M8kZQBKpAE+gBI2COvBnsgTNwB95IlsEgAsSCJLAAsAEP5AARWAyWgdWgCJSAzWA7qADVYC+oA4fAEdAC2sEZcAFcAdfBbfAQyMAAeAmGwQcwBkEQDqJAVEgT0odMICvIHqJDnpA/FApFQ0lQKpQBCSAptAxaC5VApVAFtAeqh36GjkNnoEtQL3Qf6oOGoLfQKIyCybAqrAubwnNgOsyAQ+BYeD6cAS+CC+BCeCNcDtfAB+Fm+Ax8Bb4Ny+CX8AgKoEgodZQByhpFR/miIlDJqHSUCLUCVYwqQ9WgGlFtqC7UTZQM9Qr1GY1FU9E0tDXaHR2EjkOz0YvQK9Ab0BXoOnQz+hz6JroPPYz+hqFgdDBWGDcME5OIycAsxhRhyjC1mGOY85jbmAHMBywWq441w7pgg7BJ2EzsUuwG7C5sE7YD24vtx47gcDhNnBXOAxeBY+EkuCLcTtxB3GncDdwA7hOehNfH2+MD8Ml4AX4Nvgx/AH8KfwP/HD9GUCKYENwIEQQOYQlhE2EfoY1wjTBAGCMqE82IHsRYYiZxNbGc2Eg8T3xEfEcikQxJrqQoEp+0ilROOky6SOojfSarkC3JvuQUspS8kbyf3EG+T35HoVBMKd6UZIqEspFSTzlLeUL5pEBVsFFgKnAUVipUKjQr3FB4rUhQNFFkKC5QLFAsUzyqeE3xlRJByVTJV4mltEKpUum40l2lEWWqsp1yhHKO8gblA8qXlAdVcCqmKv4qHJVClb0qZ1X6qSiqEdWXyqaupe6jnqcOqGJVzVSZqpmqJaqHVHtUh9VU1BzV4tXy1SrVTqrJ1FHqpupM9Wz1TepH1O+oj87SncWYxZ21flbjrBuzPmpoa3hrcDWKNZo0bmuMatI0/TWzNLdotmg+1kJrWWpFaS3W2q11XuuVtqq2uzZbu1j7iPYDHVjHUidaZ6nOXp1unRFdPd1AXaHuTt2zuq/01PW89TL1tumd0hvSp+p76vP1t+mf1n9BU6MxaNm0cto52rCBjkGQgdRgj0GPwZihmWGc4RrDJsPHRkQjulG60TajTqNhY33jMONlxg3GD0wIJnQTnskOky6Tj6Zmpgmm60xbTAfNNMyYZgVmDWaPzCnmXuaLzGvMb1lgLegWWRa7LK5bwpZOljzLSstrVrCVsxXfapdV72zMbNfZgtk1s+9ak60Z1nnWDdZ9Nuo2oTZrbFpsXs8xnpM8Z8ucrjnfbJ1ss2332T60U7ELtltj12b31t7Snm1faX/LgeIQ4LDSodXhjaOVI9dxt+M9J6pTmNM6p06nr84uziLnRuchF2OXVJcql7t0VXokfQP9oivG1cd1pWu762c3ZzeJ2xG3P9yt3bPcD7gPzjWby527b26/h6EHy2OPh8yT5pnq+aOnzMvAi+VV4/XU28ib413r/ZxhwchkHGS89rH1Efkc8/no6+a73LfDD+UX6Ffs1+Ov4h/nX+H/JMAwICOgIWA40ClwaWBHECYoJGhL0F2mLpPNrGcOB7sELw8+F0IOiQmpCHkaahkqCm0Lg8OCw7aGPQo3CReEt0SACGbE1ojHkWaRiyJPRGGjIqMqo55F20Uvi+6KocYsjDkQ8yHWJ3ZT7MM48zhpXGe8YnxKfH38xwS/hNIEWeKcxOWJV5K0kvhJrcm45Pjk2uSRef7zts8bSHFKKUq5M99sfv78Swu0FmQvOLlQcSFr4dFUTGpC6oHUL6wIVg1rJI2ZVpU2zPZl72C/5HhztnGGuB7cUu7zdI/00vTBDI+MrRlDPC9eGe8V35dfwX+TGZRZnfkxKyJrf9Z4dkJ2Uw4+JzXnuEBFkCU4l6uXm5/bK7QSFglli9wWbV80LAoR1Yoh8Xxxq0QVaZC6pebS76R9eZ55lXmfFscvPpqvnC/I715iuWT9kucFAQU/LUUvZS/tXGawbPWyvuWM5XtWQCvSVnSuNFpZuHJgVeCqutXE1Vmrr66xXVO65v3ahLVthbqFqwr7vwv8rqFIoUhUdHed+7rq79Hf87/vWe+wfuf6b8Wc4ssltiVlJV82sDdc/sHuh/Ifxjemb+zZ5Lxp92bsZsHmO1u8ttSVKpcWlPZvDdvavI22rXjb++0Lt18qcyyr3kHcId0hKw8tb91pvHPzzi8VvIrblT6VTVU6VeurPu7i7Lqx23t3Y7VudUn16I/8H+/tCdzTXGNaU7YXuzdv77N98fu6fqL/VF+rVVtS+3W/YL+sLrruXL1Lff0BnQObGuAGacPQwZSD1w/5HWpttG7c06TeVHIYHJYefvFz6s93joQc6TxKP9r4i8kvVceox4qboeYlzcMtvBZZa1Jr7/Hg451t7m3HTtic2N9u0F55Uu3kplPEU4Wnxk8XnB7pEHa8OpNxpr9zYefDs4lnb52LOtdzPuT8xQsBF852MbpOX/S42H7J7dLxy/TLLVecrzR3O3Ufu+p09ViPc0/zNZdrrdddr7f1zu09dcPrxpmbfjcv3GLeunI7/Hbvnbg79+6m3JXd49wbvJ99/82DvAdjD1c9wjwqfqz0uOyJzpOaXy1+bZI5y072+fV1P415+rCf3f/yN/FvXwYKn1GelT3Xf14/aD/YPhQwdP3FvBcDL4Uvx14V/a78e9Vr89e//OH9R/dw4vDAG9Gb8bcb3mm+2//e8X3nSOTIkw85H8Y+Fn/S/FT3mf65azRh9PnY4i+4L+VfLb62fQv59mg8Z3xcyBKxJlsBFDLg9HQA3u5H+uIkpFe4DgBx3lRfPWnQ1H+BSQL/iad670lzBqC2A4CJlivKG4AqZJghrIxo4QjHegPYwUE+/mXidAf7qVjKSM+OPzw+/qYQAFI7AKOd4+Ojg+PjX0uRZJF+p31gqp+fMEMFAJwUJ+jR7kLwT5vq9f9S4z9nMJGBI/jn/CdtYxYIrdNS7wAAAFZlWElmTU0AKgAAAAgAAYdpAAQAAAABAAAAGgAAAAAAA5KGAAcAAAASAAAARKACAAQAAAABAAAA7KADAAQAAAABAAAATQAAAABBU0NJSQAAAFNjcmVlbnNob3TML8ZwAAAB1WlUWHRYTUw6Y29tLmFkb2JlLnhtcAAAAAAAPHg6eG1wbWV0YSB4bWxuczp4PSJhZG9iZTpuczptZXRhLyIgeDp4bXB0az0iWE1QIENvcmUgNi4wLjAiPgogICA8cmRmOlJERiB4bWxuczpyZGY9Imh0dHA6Ly93d3cudzMub3JnLzE5OTkvMDIvMjItcmRmLXN5bnRheC1ucyMiPgogICAgICA8cmRmOkRlc2NyaXB0aW9uIHJkZjphYm91dD0iIgogICAgICAgICAgICB4bWxuczpleGlmPSJodHRwOi8vbnMuYWRvYmUuY29tL2V4aWYvMS4wLyI+CiAgICAgICAgIDxleGlmOlBpeGVsWURpbWVuc2lvbj43NzwvZXhpZjpQaXhlbFlEaW1lbnNpb24+CiAgICAgICAgIDxleGlmOlBpeGVsWERpbWVuc2lvbj4yMzY8L2V4aWY6UGl4ZWxYRGltZW5zaW9uPgogICAgICAgICA8ZXhpZjpVc2VyQ29tbWVudD5TY3JlZW5zaG90PC9leGlmOlVzZXJDb21tZW50PgogICAgICA8L3JkZjpEZXNjcmlwdGlvbj4KICAgPC9yZGY6UkRGPgo8L3g6eG1wbWV0YT4K0omFMwAAQABJREFUeAGMvQecpVd14HlevVc5d85BUndLLbWykBAKIAlhYYEAk0wcPCx4fwtmh8WAMzP2Al4bMLNmBy8eMCOSCTZCYBGUUUI5tFrqbrVa6lCdqyunl+b/P1+VbO9vdr2fVF31vu9+9558zj333PtKPd+9vVltNGK23ogol6Ot1BLB53pEVPizxH3/jlKJz9zgx89VfprValTqfCq3RLNpIx7TR2sposbnBs87OtqjVCnH1NRM1Ku1qLS3Z7taox5l+mxva2M4xq/VotnaFq0BHLxbq9EvsLQ5ZqMZs7Rt5UErn6v8XRVe3utqrQBSS0zNCREwA0iTV2q8W+Z5G/DUeH8OmMSlXVj5e44xKvzdQfsa703zUol73T6n/STvtgofN6vAMttSiTLjd9BfE9jneKdJf50QqVlpZfy5qHCvs601atyf4p0W3m9jLGknDi0tfpj/DHzSHVB5Rv/8Jd3axY9byQ/o19belu/WgbNCP/ZQr9eiRrtyqRGnQ9tL162NC7etjxZI+6tnTsR3nns+JiZn4FcZeFsS/2neK8Grbto36WeyWi/G43mOx/jSy/ZN4JwDByCOTt5rMvYUz+R/p/3x/tRcrcCPz8l8cRE/6ANzEAR4xHstra18rsZsZ1e0Tk5C/3LiPQutZXSbtOFvZcr+xbBOX8pZxQe0r9NfFT4069DAMXjeVE75W/q1Nhspb2Xk56pVK2Pr+mXx4N4jcdfBoUI+ebcGX/q6uqKGnDTob7ZWhY/wmPvCX+Mn4fFXpRKztGtFtuy7yr2q44FHVxvyxt9T8NNL+W9CU2WszP026UNfc8BaAreUN9rMMV4F0Dvm5WOatiVkvhv5b8LPSRSmlX7a+anS16z90U/KGzSZUz94pzJhxwDeDYEkkoyxg3YJgyTPClUKaRNVQmlAAIpGh8CW6YiPcwhnU0Zx1UEqlYm/Sx0dMQVxmrMFsJXOdhSxEWWAakWYqow9DSBl+pRVvtuESBJOwVJhJudglsQEsRqwpcgyfhkiSJBp7nkhZsBQoS1tQLZFweP3tH/Tph9C14FxAkaUEaKWZj0Va4a+mzCoE3ybM1UUlRHkBfc1DHAtSq3lKGtAaKOSKfA1IEF6UHQaz8zmWFVgr86guIxTAY5apS3bq6xAG628q5GSPvUW3uN+GZq3Ancv7e17AsYBSXSDH9yNKRWHdu08V/FnoZu/S3x2aAWwhTYVaKzCyOwpaOy9GkZmhjYqYCf3m4w1CR4lGJ/4iQPtSowvPe1XWjdRxprjVOfAD1pAH42TcFdrheHW2GmUk9e8U4ePrRiXMuPYB+aK/jACGGnx7p2ejCrvTMg3uuyGpl5ToGXfiR9wzMpO4GwCZwND1qrF4/+Ut47WeXlDTmiTykx/VYxtB7zoY5xJeDE6SR8YUF2DMJaB67K1q2LDsmVxy7O7Y3RqlCFwPK2FjMjXbmReBZ3EmlehKdqThrwkHXQus7NRop9pn0GPlqQ/beFVyhswNoFlGhq2AHs//K1Di4kGspMoaegQFflAm04NEMqb/JBWtK8u8AP6qfxeOgvlUzykCxJWCFiJm9JK5WmmQKOgINKE+amgKCcgMaBy6oDc7uyIJYsXx8HJqWgfhQgMOAezGy0IEH34ipZJIe1EAbWiDYnE4BoJravCqOUogYCCrtUR7lka1/FceucyRKvAAJVwmt8yy3cVUKHSMyhAeiEFVDzaIR638KQQjj9UTC+tlgzo8EXGnuRjeXYOwcDTc0/PKwO0lECWUYIAt2tI+K0CiU/f/Hh+Bono8Dn3Z8C7Tj8dCJEe2fFFqF3603RORoBrpwLH/xoULAfCUkZueBF6S7sSkUhDHMDNLlra+OzftqHfNgxQGTyem5uNytFDcQKGd7R3xL37hiLwZP4tgxWINArQsQGsiZ/vQ+vET/AYp10F4u8pFKyMLPThDuotGAzel5B6Xq8ZcKkjMx3yhXt6Yj1eu5EAgGq8pUOncKIE0xgN8WxFoRTkFDr5Bh1UyLJw0LYFRWkoC3pnPnc4HPyfAbYK/XdivBxqDviUz3bf4dkcvxsMUafPUcb65fHjce/Jk9BXvWIMFQN4t58YjrHpuRhDocWT2xkRlcSL/meBpw7tpa700nNq6HUITeRPegmSTqLMWBVoA6Qxg5MBrISnjGzP0TblkHbSoyzQ0g+aSudJ6cszI8kGBmoOvEsoipGtkUxjnkbt9k67KSCyjz7kC9Xl07duxQXRuQrG4AJfV5joQCveCVHtaJpwQ2vZ307Ih3sfo5PT1q+N68/ZEodPTscPnt4RMTYGkCBDdzWVjTZ8xHIgvP19sbq3N44cORxNFLwKw3Uy7TzX2k3r6RlHwZCRegpAASmUVQrzWwvURxhY5r7jq7CISVp5Q+BWvKYhbYP+phhYwmVEwHsz4pQd8jKEoDmXYSgAcM3xTPXvok9DJUMWyZPv+C59SfB+hEDDMgZhAZkuEHQI3oA29pvtgF0BbYVJVd5xWJnmFCK9lX3JdB4QEEELaDovqDbVoNhvYSMxOI7BO9KnE0ZL01R8vUKDcVVe+phUgqaNieCdCiQcIgpcc/CyRL9d4JL8XMBPWPyBH7bvh4YV/h4D97pmXdy5GrZRmMBdhFrBpxUckk88so80JsqLbbgSP943UkmPjTFuSCN/4F/ix5h1x6YPlTg9D+Po2VXmfsTUd8ckNuMqK47lMw2lMFdQFAJ0BB/lp9+qSkG7EvAJiSFrlbFbAF+vWygi9AQHPTNdZHSjQdNoZ9gNLEYKfQCpgo0R6ekwkl88M9pzetYNOBrSKcY3dJfvCpeOI+kq3Xi/pLDz22iDP9KQl3i/S7pxZ5rb8iXp6428WwJ/nRH4K8/i2obmqphzCFYdQlVQyAqAN2WwwuTLWgc6Ux6maJd98bQVi9RUPhDEWg0PyJ/tEM85QlXhpE0HQBmXE1BkPF7BqjTxHlpi+1Mp/BFprzmAajoJxQS2QizRkVc1PLd8buAJ9MjNDGmxNfStgDmW7aYZT2Ylo7hblwMSgh8Z2AbzHUnlL0YumK93q8swnhkyt4s398q8n3MYn0CrKQWFqyqyCGfOuedJouVt4z09unPQGkKihzSsqquEMizfnhcQwYK2UBehLhhn5GBUoULW+bvi3Id+DRFLKGjV8bnfgtfwqqcHK2PpeY5QtWFYVYoq4IJ54qxiKKwyvAFswlmEoPwNDIZdOe2A1lMovrTKOVuDeZzj8Vkjpkdto7N6hq7g5z3h5UfaJT3KvO/4vJMSxFjmFapGRrzXJmt57lQqBVADKD+hTwme5jSEdo6pwZ0SP9onQ8EnqQ/NzIG0gI+RQcqbEQL9dCCHzhvNeTAEsqxHhp5EUXVoo1wboekUVA4jDqM8UE8Dyy/kEgMjPPSnw0h5A+7CfglvEraQN+Sj3KKzAz+MZD31o+hP+VK/GDGdSsobuImDsANBOhc/mysRBmnsVDH1TvxL2Trft0Gp5e9vT1fWpoKCpMxoImgyTJm0kYTXI+S8kXYiZAJIAZ7r6wdDhp6YgHl6LABJYBAGXmPMRLzEwDWAcX6sV3OOJ5OLkJFhJAJtsYt43mZ0QZUaVmWSvkzGyLQqBgIw8u8eFZpn04Syjq8XFsmcc9HWkDeTX/SncjqeY6hIzhkN6RU433GOV9Vt8TktNnAKSw3BKKkwwGNiyfZehtUMUVz+wY/3tP620dNI5jTd9G1TaSkz51QAPIAJJId0KmIILlMLOtOSPrTketQ6NG3KRHHns1cDmDp4bpLC5JNeLqMQOnSOm/iBL743nymgttGwanydPsgYBVAjVoHfhn2ZeKHtS/g5HPdtm2IDvCZX9KAFftJ0Hj9h5acwI/RJv3oMoyzxd3rVEGF+21+bCgEOdeb5miqF1GSOSteQV4yjYaH7pEHKG2/oWAgnkkbCKQ3qyhKvFGzjHdpo9JIX0KoVA5xTJpQr3xcvx+JyTCgcXVBfekzyKeVNmIA3WwFEyhsyN+0dPqcRwtDllAaadvC+MNaQc3VHQ6tBmBVGxukkMkx+8Dz5gQNK5OxLJLmkvzxPp0bfJveUBaeERROfKWA01isZejkn8e8eLQv/TSNchj7+1EGgwczZTHDOOem0ZXRE+mcMb+gxyaTcuUjFEAACy0RDwY4K4S60Nvs2h6KrJAq4AGpctIpaHJ9LbIVeIXRcZU3P1YI1njV0xGLO0HamWcs5jYzvgmgC0mp//CcMs8oGnfvcEMqxqtyrwdAGYWQJfMRRwcrsKSM6RxZmM5YdCIJJFb2SobVMV/lNjiU8wKYitDBGG3+nwPOuhq1s9g+PMZuhMp4J2FM4FGD7Ax7hVQHEW6aZ+HLOJsTC6/05FNWEVw/4Ke/TMNowt4XPs7RJz4QMqUB6BOExw26uQHETBr2jSUWTHNMYzPRstNWoJX7QViEVBpN2qpKRiKGjzwEL+FUAmVAYI5WJpkU2m7HF3yhFz6FsGC7Kf5NzZn3NWDuvnKE/aW4Ukwabd8ooa488p+00zzXorbjijAjoRUx0JspDi7JDf0Zy8s05ulMgn6m1RiV6RJNUTq9mS20p03pW8UhlRuHb4Ych7Cz0sG+DOiO1Vu7RssiR0D6z2TxPeYMXc0xB5F8XPxq/lDfg0CzZVtzE38SqeZqqjsrnwGikZU7IsL27E/ngt/jKcWnfwY/ibWjulCONgnLA+23Q1WiyFN+5rZnLNQKNpXXOYgMvEekwpAAwkw0lLbSPZJrt6RgpZjBlD8bwSMG2yRztZaCEU+NmIVILAPegyDX6GRfweaGVQcbzWtYe6FBHKGdoT7dpmf0tc4RLb+QAwqbE1GG8HtZLmBJ+FUYm8hEIbZzPamT62gnHmyjlFLDYlo7zx/FtZyis6MzANJdPFGrHnIGADJdzWIV1wpiTd81qa5sWMrRpp2ho9pBcNHMmBAABMllXx9CYKCm8SDGuNKrQP00yd6BSyChhWaBPLnPwngrpMhRPiUwQasbOOSHeqgy9zEKabFOgp5wfiJM09l2B5zJnIG1m6MvMrskQBWvG8RD+fmBM/DQBgsh/aWgYN5U3e0HR6c85OqmwpPEMgqkCary8IZskmMYdUwrsyocGSsPgDRWODwok4yaMRDEaSQ3TDP/o/b0vHsIsWaRLERFoCJA32tjPnPJFptw5qVC7LCLcKW/cGedz03CdZ0aBRnwNDUW9mh7cOadzYLpMw64XNCJKOWNMaaRnT93gc+H5HAsQoaMGNuWN97z0/nrUdjytfJzynaRJPi76A3bn1EaiM8Bi3yqtsqi+iW8/bNABTMxPDSqdMN3OjeUTWDrpoLHZXl2ycT+v8hJP+dyG58B/ZfpdpnTyboUM5rQ44B0FXCGU+SqZ6qvALsT2zlENs6Sr93IdjPazMoZHSTjGcF6lAroOaGjjVLkCUs5rTTAZSldgqkkmTArIzhMCOLTCCpeyoyUU/ikeu85r5rVhGA2sUqQNoRMvs48yR8tvgqVFJtgnz1vghJFIHZiFr4LUlZnrO/fRC6VCii/va9WdLyqLZoslvALXAO4WMpSuQ6sEKpVzN8QwSnh757uGZJ0qDL+d4wtrJkZ4fw7joaXmTsKpEMiSLiyEltvcwkv0zjGLcU3KOb5zRsAr8MNgAhH0BSFxBccy45v8UZFNFpUbzjkxOcIOnukZaatCJH8JL1XQGZUKHBrAJ6U1swXX4Y+ywDviIG6uT5sdz+yy+PG3imB4P0c/iV8aauSN9obwrkPLF71Xg4x4pzkWMsbTLJ9prJSRFt5hmPSSDfkHLeppOOi3hJIyvnNZk6mthKZOSWYZF8LETBvSzsvKi2PmOjPvO3XS6+W0A1gN9fXi3fSbegFuDqohbCFycSmoxNhdkEOKTAkPfTSUOWnEHFo+mG2WEXMNcAcmPbH0bTFxmEjYDLyQMSMMk6UVpg0ZCQNzqfV7dzTNXOUyDYNMyUQ+mzTQs/q3HqYMo3TVApPWTmAAXsE0lOBVOEK4BkCoQgqPZjbDxNb2FGSBNuRTCbo1DzkeRGFMjYCo5jwNhAwPfT7hE8ZJL8Rns7mGPWZzZaRzVoUe0qWFAvq0ul3cEYdcVmA8w1gkLIml5R6we4AfIRYSp4SA+y7OI5EoOuERnkt6VIG7pCdlPIMSBTKTPXhshc5LptuRTPbKOaN/+0ObAcJ38RyhUSYUuJ9hNm2dh3YhjNJ7mufSsBPYtLhmu7M//hFHcRDvHv7OkMrn0F/v5WPHUwkG+Oy0YwTFEmKjGxMtgqlXkz56JwsAhFWauOyiwTWMruOB5L1LD9k179p34sfvl/ATOJ4NYJAMg0d4T+H3HaLW9K56GsfTa00Dr3TtdAwNjWwHqCrPkvbKAn3pVRo8FyUg8e00jDlVQs6SLPJIWBiryMAbttOYvjpUTGCZ0VIAT7fuj35dppLuJZNreK0W5YL2huvCMUEHGWJzL5OxDGSEk4afLlzNUKGc8+twlFfp2MX74i1+0ik9sbTmmfgM4Mn9+BI/UEIjyuQp97uQccNrs81V4FKZlUmVWONeRJLkPtRuccoQiUGbzrkQgHYI55qssTs8z1DMtHZW4HB/oaJjBgvvvHdhYV8BECEtKcMgjCq9zKYjflzjsxDBYRQoF9oVKCt8ZKzrrxK4YfjCOCqoFzTgZfoEAS2dXi3DSW6nZ6IvHmUSYFYPiMXS4/jjfKATd9ek4SyKZ0PxqpeARaLR+ULFTSZNgKkJw83UukSggBsqaxgMBXNcQh2XTgpwCQ+BX4Y45yRGyuy4SmAxhIZrDjqYdMt1Ntr12J5HaekRolmTL9KMtnzEsiIQ8sMP9CN99IiuJ0uR7BYj2oQ5Rh2dtBdXkxwKYOInbaEbHAE/7oOHkZQ3xdkoJY0Ht3K5A76rOCyjp3cskf10bVJjYPirLGaERHvXYe07ldO+gM0kYWb76Xdhzp3yArBmbZ2/afJT3qCHttE+7ch11XIbCia5GK8DhVKCcg4JTFa8OZWawcC61tkOztL1JXmTtni4XB6bp4F8VtldUkmlpm+9qKFvOzDV4HEWotAuE2LA5vKXjEwDzO8Gc1bn39wt+A4dM1Kgkf/pMGZBpDDkhQyaD9BTN4Fx1uQSsjeDPDvF0tg2MSSm2sT7X/GDeyYXsVzz/ChyEtoSp0k6jVKFLHELCmUJmcKkr9TKJuPpswMA0Z9UVD2rFRx60HEEJcv+QDCTERBAgVtYJ8v5MEztlSEg7BqhFlc4vXLOx+92ANFKTjJIenWfyzxgkOBKpmGPVs6Qph1YTYjMiBwM0xupkK6zKQAqs2OXTOErVFhBLWAShj4seBD+STlA//ab89f8iJehT62aiSbnX7aht8wWa1qyfA6cc/mBfouknXjryWQYQOQ7RUio8qjAelffsTBEOipADJ0GQ/qo+JLK+aNhtqTSuwlC2eQI79qXc2otu7i65KA3NTuZ67I864NfKtFkmWAYAS/6LQbTg9u3WUfDSQ2wUZFTDAU0w3TG0IhJIxXCNe8spKEt2OV/3te4GtLnRR/JAykADLkUxjgqJx8LOos7f+aUSfzAU+OU8sazheROyhvg+lnl6qfSyQzyuEaH0ZW1Gu9KPEmd8sb7rj5YS9DLfS3hJMY4l9zmYfQV5aUdZSjkjc8801MatSzkP1LeGMepR8obfzuuUyHbGx0krnx2SpDyBl5Jv/lw/iV5g5Z9UEFeT4o9cMk3lVbg+QhW0EBa8FyaKAvqbPZHv65uSDkdBU2ZUiHUmjyzuwJuxU/W8co4Ota127+tZaIL2Nkx96e5J/JW8VRFHMZ10R90mfcEWFOBYMA6hGpgHUXQzyYFJI7zHC2u3rbVRA6/HS8LDmipJzcM03JLVJXVuWGuMwojbVR0s7fCaH+tzBNnEVb7kKF6E6mj4kk4Q0nDai+tYa59MbRjOJbLKIKZlUa87xpZZmS514LVLDfBlb8VYK2vfel59AgqdCHGKCXjd4CPij+LMcw5lH0rRLQvss/0JyDck9Z6Ui+Xs6SPJZwqhwx2alJnfEsJ+ZjwJn4JLIKMu5oUfnBhNPo0TBVe6EM/jkeyvvBq9J340UYhNkeQBpc2Kqnw8SjX5RO/pGURErdgtO3EPEOHiTR4bklhemLGQdpybFEwzVM2qvE5fWhwtUIFfhpcZUR6IJiMZ/loCjRloq51j82vSgiPxQVGMibOVB5lxamR4M5QAujvpJU8gcfOqysWkABHri7wbgVPV+O+Rqg1wzzGBWeNnO+bDVdJ9LgaY7P7KplKpyFzGc6o6Z/lDSWmXw2M9NAIyhsv5XoSOM3kF1MW+AEtDPfTYENH5SebOz6aWuZeO/dyhYNx5K8KbZgrXSrO7dKSpyIibI4mERhcZdOr2DBDWZ4JmEy3VM84WwJpoU1u2LmlbWnFqSNumI1VfGU2Qmb9ZSon/XTAKMfJEIvPuc7GLWstZZxpdxNdWmFT7hJVgR4HLt9zLNupFNpp15G9sui+q7uAlxI950kmBAoPWDC6xHxyQa30iFU8mExRKFz2YeRMrvAIzyXjtMr0Q3jUwFqYmDLs0LBVYaDvDRBeCcEIf2u4DInMRhqiGcb3JL5EJnCqlvoOXenX8EwD5DJRhc+u/ZkrKJIp4CkQgkabGjg2aex/flaArEaS+RoSbkEP6AdtDNvTivPL5zmngg5VaUcb6S9vjTxy/ZwxLd5YMIxKuRVGviu9Ez9gG9Fl09bkTyshrN5AH9BT8gH4SRfapdz4hL/NoqYi8Nz+cgzuAyZdy1zxQXGBq8lcr4TTkFzKnYbdJUKdgviZYNTwtkEXwCrqpvnbqEUDlIUGwEDzpIE80kBn9pibJhelC2qL9hOpYfmdY7aTOJLP0l7DlbTl83gSCHrSd0YePDPZaAGI/ZhjaIHHGn1JbqJIB1LIGzSFQFIj+ZjKzD3aJLXgfU6xaJH84H7KGx05n1UWM7HG33ZeA3ZoAWkBsgLwNagJuLTih89tEFrL7PqnljKzojzyZYGrMeAsqXTcYJRIwEjSumEXP50QwWRU1qairHoyK5gEVaRs5zjLWY96BfVdr+qpxTn14dhQHY67y8vjv84ujx9VHoyxls4YaumNF0vd8XizP26fLMfDwxPpBTNUTrjmLaJKjgAY5pa7OqM0Q44WQhuGKQBq5RxGRC9oTbmet0bopPB3Azuv5RxYYqpkFiBoELTs3d3tMLUnJkbHMhvu5og2aKTBMYs9wTsyzbmWzDJsmtNoQVs3B5gjcL2RUREmSgwZW89lMbnF6Za0aZSSHyhORh4qg4IhsVFO600VeJVTgTXiMUMsbjmF4POcmWi8iGGcSbUarq+BcXWd2QjHzQoqr0qTGzBoM00f3e3M64DbzSCyvx32tDG+64413qMsJsdJRWF+SeFp4m4uQcK5DJaeAAEV5E5o57r9dHoNoh6VgI7F3XDPjSM1UtcNVhhilhk3/VgVZIWcGXqzsxrT9Ob075KW2Vl3NekA0gvTn0tC0rsTI1gBTg22EYv0b2Bk01AxtjKnhjfoV3g15PK3C3nUyLmzjMdkg2lLBrqdjSquIOQclHfbyEzrGc3mN7gvJ8tEcjoV+Zi5GH5ngtZnjCnfXN60LrnNdWPGVelUwiyh5d3kB+NmtMUr6puJLbPRGpEJ9Etv345DUN5KrazDpuWQEDDPeYMhobs9soCBwczquoZpUXoKjwThx3mjHkLFSWsAsRg7LbDhn+8bjpmhdNKsJ/ZzD+i+as2SeGvbyXjlyPYYHN8PkTLKj9LUcNQG18Wv9785bhz5x1g2/Hw0exclw9Iyt3fG7q618ZOec+K/TXbG3pPULzOqtb8WNjRREovf6xCzOjVdCDJj5gWckroCPi5TyExrRbWU02opcBrWeFmpU+JvjY5p+VmIRsPocq6U+PJ5Xgi1hlnBlP2hVNDlzHXrYhs/z1OMftveF5AEssDKDEIic3MOST/2UZvGsCgEwsePFjnnyDBY2haGshBarb+XnsYCgQyo7Ac+qGmGcxokIxU9m3Mor2k3AzhNoE+kF14SIeFB/G0d9Gwm+cCP9yFkQYeEBV6D/xzKcNHylXHOssVx6OjxuJkfBkhhtaTQK0NqxlWGVFsNi7xRyPX6KiB2oMAvWWJspLxh5OfxLnIARTSR8kZrFUwYNFbCnCE+uGtUVX57lJeO4ZD2ZQRWTGlQJmTY4n755hKS1WOG8I7djyIY3hY5GXihUnFfZiXdGVceJbg8y5wMj82BaFQ0HtJeJ6GyCdtLF/fEV57O0I2KbY7BzrIij3fFSbhS3vyNjjVIVFnK67hWYAlLtpO/rsOmG4eoDux6FeaBARAcGrofz7mAE3on/BkKMMaM7bnn/kZDQMMgkxnuTzUb5hYvldQ5nMprJnk5mdv3L6vEu2efiY2HfxbNKfZBEUpVWQtrtnYCH2Pxu9yYxeK3xleXXh0fx+PqJRNzBGNmdjo2lQ7Gh4afiQ8Pro6bT70i/nKkKx5mT5XEdueNQUiGlXx2nVchMCPq1CtDUP7WSLminEkM7oMNdMRSwwQTWTN4vtytBB3szwghK6N4lioFTBnqgV9mf6GNl9lZqB4ru3pi0yot46J4YGgopjB4hn9pEOUYfDCaMTvaCl0sdFCAXF7Q7BVJBhgEPW0+ozHkmbXZCqpMdI7lLp/ELz0ERlIlQvlNRpn5NkufOBJZ+JrZewXN/sRL/XT5xGSKXkyjkTLFPeuf3RVkqKqVP62vN05b1hn1sc5YzxgvQhM3YzSawE9/RgeuK+byjP1CExw3ykboyt8aH9eZU7iVHz5rPAVMA8rHTKrpbbBgmY1tk2nQWAPEjWJXELiZqdWLdRGZWGhjIYxCbw5Auhr5yE+5Zf11lp6CrDCkh+W+eM7BK9DLKMutnkYZ0lh5dTmxiM7oQ/yUdWCT70adaSTkN7JgpKGyaliSH9yT364UpPPic8EPjAJ9p8HFqHWy3PQSP3g/126BMSMSP9tHYqTCSzI9LGN2QwQX453swoMUUAUjCUUHTpzTzfO6BM+YHGLTNNtamma87rKAVsUFZK3/OA1Uhk+s7YmPTj4UAyd3R8vcDEJOSUQHSirh5gGCTRABIs+MxX3LL44/am6NX8z8OE4Sbf9k8IoYGlgbx4HpjmMn44ud++KyF25BOZg9L9kQ/+eiV8anD8wV2V+Yp0Ba0SSRJbpISihxNYTSespY/9cyZ82rsNO/CmjxgJfCLuNz9w3PM1voPIi7WUwiQ5Ix3rIzrLvCze6krauWx/6xiXjsyNHogcnSaJQYV/pZ0eV6X2arEXIrbtRI6WW45zo1vbHsAGz0Z8ZTiKwAUstyKPqTfip64gesuZ6a/FKRxI97yXToLF601bD52wFcJ1dJDSFNIGqITegBBXN1esZIQraE6Wzqxtf098fQiZOxq4ppQibcqG1z8XGeOsoH59U9vCq13SivI7AWV1jG8dQMU+AHXHqSIpOv0qiYcgiYwCVDbF7Tfy9ktKWZ0Z1TD1c2CWRz7p/r8tx3P6vKUPyvbElW+Ys88NsozfFdp4Z8MUrnGixl1baGyvpTcyryVZlZ2AYozeSNtct6zTI42UaFN2llD8QVoFsorXNt/2NY8JF/NJy/p0FNftBP8kPL6d+ML+7yQhgsvMmoj06U41LJ7XVchlEyQNdrgsn9iIqla0xaELNbLnn43AXfbA8DbKMntvDCAV34VwBclxWoU/p74m97DsSFR39Fpc8E87p+rJMbyGmfLC0IlcLFnRbmHdPT48yf5uL/WPeO+M8nWuKqFYvihtXNOG/R/jitfDI+/NTZccno3njX+J0gRFHG9EmY3Rq7Vl8U753bGk8wx3WpSoHJAmrhET6uDDWA13VHrWWGTf5JGy1nhnImVGjv/Mj9riqBczbnhJmd9H25zW+TcOJvdlx+FAcAkOTgubW7Zocd2sKPnFPxt2GdkYtThoVdS6lA3LPOGenEcPCb/kxg6CUM5XIOJ92AVYHxygwr7yQ8jJm1y/Ays828K1193+hHj6DXU/hTIHlfz67gJH6MUUwJ9FQ85P4skYEjdcEzJW8KGrg27MkJbth2qpD4Mbb0LrwO8AKfwp2FLshBwruAHzxO/JQn2kh721tamfJGez2VYW1mb/md78MfaWB01Gn2l/EtvhdDIwTrtxu0UTF9X7hmcCJmnk1KZi04/FRBVHg9bW6WgC6eHGIyKENVfrvOq5cTfhOl1l2k0kETDYnyIS19lmF89gcO8/xJ+QKyl+RNgad9JnjFOSMhzLCREeOrX9LOJJb4WcwkHs6vlbN2Nu97VRSsCpbCjbrOMaFeMmaGl3TzJbZYaSE92UANd36QYQUvJ/HsBSLNQCwR6qe9HmwYS/na1UviG7V7o+/Fp2K63BOtHd1syaM0oYF1nkdMP1/Fkre4RYnxPEqDcyni4SUXx+PlRfGyxVNJoGt7no9FzaNI8Hhcs5LwYgQ4p0YgLMd+dPRC7Hqcvu+uuGv5iXjfmqvjewdPQgiL3iUAy1Ygbr2tc1jhNuzSq+YSFooj8U3i9KJ37qsdw81IfEZBuABXhnKvT0Hm5hjtFeAeGyCqE3iS/FO8+LHoGwKmxZXg9u0lM7ws+k4a8Cyz4cBThzZml41bpoFV756NpC+9q3xFsgWvx8suwOuJNQCTeG4NLcFw8jE9Ce+bWdYA2JXKmPjR6xiw5RYycFAZVD6Ncc7puef+S1+yAEKE82QSp0YJEzzTDfNeZqP5rWHR4NNTjmeyyYhBGhm6uy3SIgxLTSvMC6bpSj5kf/DIdXWapSdEkHiG17N/BDk9rbyij5LRDVOxLJUEFvcn++IISpvOJnMETJ1gnrCpeBrcOT5Pg3+GqbSRHxUSahpaE0U+U0GMIuWDxRkqsDiY7ZeeGg8NvxHLFPhaP99r5MC9cfHn3W55BPyeXGLhUSYPGStxo4lLSsmP7J85MbJmdOP+aqMdowHfMdp1vL75dbgxhdH+DAEMIdIfccPMIKLMpNylDOagWFKTBtPpQXTVIAiNhM+wUeWsoqx2npk550w8e+8pK+JvR26OOLg9ml19JDNmGaMrTrT3xWjHQDKjSWi8tD6az0qzo1ijdpRlKh5admV8ve+8+NIZz8fS8rF4kYzxZ1/YQop9ZXxg41T800EQbe2Ni1aeHpXx0eibmYoO+vJQo46DD8d3Vs5Eed3r4wcHh5EhsAMeiWlk0C2u3KjO33fOanZ3ymw3v2W68x1L15zPl8AnIw9whS/FFIG+QJYJ0FxuxEdn0pgZOyocXipbK2a4C+HQi5otVMCzxJL2GkPnXAqVSy2Zvkc5hC1rah2PcXKXhuvKfG6lH9P/NaKJTB7Zlv4VIGFUqLqZcyZ+MEGdM1urDc7NABjDaplkHIpjmK3H0WjJUPG2ksapBAAnvYS3WO+ERgwB0WyaAiqMerEuOne+mIUpjKUn0kA6//dvNwNUkSFhk86uj2okVe3Ej/6Uodz2SNcdeBIdR2HQHENpRN7maZd1u/ShZzYqMHdCiIAHtXCGOS39uR/ZUN3/tCtlFFNv3EIxjQqscXZqs1B6Ky+sAwDszCE0yQjn5g/kxamdCM/StydKuASEgtAnje0/K7bgDX/Lg7RTxSsZapvtFR6VP/kB3C/xg66qTOk0HlZjFabRbumXH42fcCQBoJ9aX2r9wV2UYRp+YekVROd9AG/lk0po7G9o0sHSTRMvm3MuPmuNaM2IJGdoa2eGZTLidWuXxfePfDvqR5ivLt0Q9y45P37Vd1aMsESjkBrGfG/f0bhgUW+sgDhzE1PxvuoTccHh++MpPOt3V1wef7r5MYSb5RvMiUJy46Er4pOPHiY87ok909VY1eiIy5f1x/7mXHqWU9uH44ojj8Vph3dF+cTz0dxwbry+8/Xx06McXUMHFgdIED2fVTHOtzB3WEpRR8AgXla9YNkshDf5I44+XzjaREXQIyh47lJRqbPqiHZdcgNaTWLpTRRZC6x3y3VjxjWSyWRWdkFb+nBfq97HdV3neHrPUTiei/IyVvryXC9jtFCs6RUCrsIAYcLjnyqOtE38aOvyiwqXZ0LpYRUYw9qMlKydRRwAwzO3Mh8B3gtLH0Yi7fProUVVldljxyrmiJx6wPvgh3yM6/EYx0SNkYkllYb+KrdLUnpJ++shMaIij3JfudLLFAUVeEI6Vi1TcHlmyJ5TChRAeupZTMakvNGfxo1OM98gDzVaKbuygH5MvHkp8hrqlGmOM7KtUyCvnBMvtOG3tby0ni+swXObHWScSRUVWlnwoV5Y8JHRBOM75ZM/0tXoxs0vzvF7WKp68eQw8kZb+GniqM3EEG1dJ3aklDfpYARBn53WGjNeJu+gjfglpMiifbfrPKBLpQWCZ2aLHkqEFzUOyBEQky9p/Wnki27/sbwuHS0Ecp1P1Xct1r/0riJy0ZK++O6RG6M+fDB+cvb74+et62Ip3uiVY0/FmaM7Y2DqCCyoxciid8e/O304LiF59O3jZ8ZfHrgoNqw6Jap9y+Kzp29nRwwrmwA+Xl8W/+nZzdFXOxyPbLuXJaDH4s5N742W23rikn/8v6K+dGXs71kce0/ZGt/b/JqoDl4Trxt7IM7f/sP47qqIS3p/LXaMsIUApIXPTKCMsKokF/NlAHgpICqcz7OgH7yswqnABAWpm/dtMsFzBRvxS2WZhQGGVLngDV0yaQX98uQLxvOzc1WzwXnxzLOqOro7qbQp1vmaLPnMorR6JdewnY/xWoZWKn3JtVX6yGgGajutcQ1VAbD4UK+uEOhNphE8jYo4mJX0XCO9Z54pRKvcVSUg4sd7ni6iwe5GCVtI6bruZ5Zfr+PlHM8w1BprDZURgnPNad7RU1TAxfHdgwTD0obUoZmRmfM856SWilrDbda1BcPfCp0z+wluiZ9041VrmKW19J0BX+dxCr208KQLlS+TgOCl1Dkt0PDlfBWYNQ65fCO+tucyMjFrbgZXg2E0I900WEYm7hJTUeSnhkCjro3wLCXpKK4mCZ02aDKaeMIsX2VsbqWxT2PCVHBFZ2dcvHZtytARVkCm4ZtTG6eMqG3udKtASxOzRSEHzgv65+kX8h16mBsyq92tgYBmE+hlypvGVn7pCegts3stGiYIhaHM0Cg9rYBCAKuWZngp5yxYKue4egS9kDIiQwcQun+c/TlZ3Xp8+pw/jGUg94mhm2PV2AugqqUhHKP/Un0u+kwQQJRSfSbeMfhIvGPJYKy/dUWcV5lgo8E0z6rMmxbHJ585Jd7R9tO4uP2+qHNWZ7POmQBYKw070hJlTuPbODEWGw4+F1ff0xK7Np8d37/8yvjZ5ZfEJx/+s/jRMpS35ezc6KynzawxhM55CIxQMA1nXLpQiHMhHcZO4v1aKHdTEQztnFsnrnw2fMrtVzAi1wppL1MNe6WV0bKhuB5ZL2LoZ6203so5tYX4M4SdFgl49CsZBeZNiCrWvFdLDG1HgUd4lQrXxS36l/Z5WBnwuOwjXL08yzCesfWUlgkqq/JGa60QmtBwmqKH6eKzSjEJ7OZBeCWNgScxJH7QwKaz9q+g+oF3zN67FttAs1Q4PbYK4y6uErDqeSybtCDAAgiPrHFt3rVH+ZR7Xvm7N80/8ub4PgMAIxyzwwk/f2tsXJZz3m7VnOMbwiZp6EvmA0q2t8KuTsgr+0zAafQQtEweiZtKnhEE/SgyGgoG5nkRmpqMcsnK00WMdszDGGlJQ41DroPS3kiLqoc0Wj6zb2Wnk72UGhV1xxNQ9g3tjxMwZGySsylolOvuvO9/9pHy5umhbrcDR7PbGlo34htlCF/KG+9qCHIpERhnAbtCvoefBSQhFA0MpYCHSbfWTKEo5hESw4mwTC5hCuu8rEC5lsmjDHO+vmw0pid74gunvSneO3JfbDv6CO1RLuatHj2jJWibGWdHEGEsf/dW9N1k0kodzDlK8esrF8VqFPmBkXVxSd/O+MyerfHO9lvigsadhFrMeys9LAnNkSjoZnwQBp5gfoy7pB/wJ1lw2jOPxu/t3RE/e/l18aGtn4jPD30jvrhiKv6nw13yKZMMJm/MHmqQPOnCUCY3O4gLwpERB0LpOqTZ3BaKCqxNloAZSkOXtO68T1fgyG/GT0tPe+drHufqSX499Gea3uUxo5AWk3O0LU1TtIlg5Dm0mCdpLXwKfYaUTUtGUW5gUvlcFxRLPa2eR6UztFR4FGh/aS0sfFBojYgSP5gjPLkLSvwY3XVR4RYHi+2d26Wn4Z1inR0FpW8v11QNH0GxwA9am4l1nukWvNzmx5hu8M+VBAyVm/pRAcbCFgGbXs0zucS3joJnSAv/Fd42OjbUc7+uCRk9nEtYkK+QNw0CwOr1pU/KJxYxy0K5r5FRUfLil4UNGtSi8MRpHngyhieZmKzqhmAq5rQGSjcCDCZTzePkcS7yS2OLc3KOrzzkqR7AY9ht9t22TkmkpRvn5zBOYuue5MNj1BZAu4XkYhdza8eQ/xqflDcy71khaP/QN+VNfvC+Uwv7zdp16ePman7ndIxn5ZY3v+dTTohNvmgpLBjIMJfOoTCM0roiqABmqlprYPsOrRBttKKGPb+9pjfe2D0T31l6eXxyz42x5sSOqLqE09ED+QFqcjSF6iBrqU9suDi+cpIqpYneeOVy3f/R+OX02TE8ciQ+3v438dmRV8eBudOx3Cfizc3vYzx6QLRIazerI3F40aXR+dRMLD62i7pTt9uDLQTM9dbOXgCsxSk7H4stSOnnzn5DvK39QDxbXhm7p2YxkjAOHDzGY6FKS7OR1lBG05U/7kSyasgkjOWJnX4GVz2HRst5ve8bwmi4TC5IeJc5TNWbLFGA9cTWwzpHUgCmgFevqhJrBGWSnqw42ynNAMpIgQFjJT94P42l/FB4FF7gVUWL5I52mca0U1GL+S/3EFQ9OyYtlc95uDgajhkCq5iGt25XU7gtlTQ7nYoOTHRF/7ShnQrbzWdDNnltxlduJH6AZdipoTD8z9Mqed8MqnNc55S54wSAMiKTvii8kV3SUzrQjtvJQ+ni5nPp79Kgc3KnMgqyYW3u0kKbewDMPapOZ4pQtRB033fnUioMOLnsptJ1CTM4mMTJ2gKHAzbpVZwrZo7B98CPZ0YGwqu8GJ1IS9dVc5mKN3PZUnpwTwOk4cw1W9pJNxFSUTPTzEf78sd2WU5JA+HyeSFveFb6E7bUR2BJ+gg/9w2P3elVEdkST2gnZ1yRTg03fQ3NEyARc29m7o20nYPTgQG+hFne1R7vWdyMezu2xcce+yJUmYha7/Kc51ar09EG0ntWbIsvDl6Vocu2k8xPeW9R+Xh8ce+WOE0lHm6L11R+SYniobhw0aH4Xx9riUdftS/qL3AIWmsfAqAQaH+5/I2XLhFGNSh6LZvh9TY/LcwlSt14bDKr67c/HB9hTfcLr74+jswcyzldfV7xVXL3/mpw6DiJnCGRCgfRU3UMk4zD+EzrxNu1WIbNBJsez7pP6YGMFkzVIEgvDKBKndaBdxVcOooyEYKJujx5gL6sJXU8T+6wzlVrXerQS/OuSkokIWNN6Gn5LaQwZMs5N/C5HCE87pqJRYvSAHggXgmhFubMJtPOsNXw3CjB9vJSuIsAGBIIHka52LNaeEbXhC35FHU9rp7QpSAaJn1aqLm1jwx5bQRs0tB7FokYAenJGmRSO/3NfTPKGqdcd/dd52rgXsgbCoa6uMe3jkwyZDoL+7Op/S1804QeWavCqHk5xzT6ELo2YFA5pbnGMctmGRONoj+4xt86H+fkeV417YVXPuQ3UPCeSR6Ta7lPnL7sX4Occ2jau56qMctTMjF6GmjlyDPQxFMDIz2MsuSjhkDnp3KKh581QGaqReUlefMD7ZMfvO9ym4ovvC6DVXKDuNpKJwrGIney8HuCl5zsKnSGwiqYVyY4YHaewiCBEISPre+LIwMr4tce+Gs0nDre7sVprbWkCugvNl4bfzyxOn7n+b1xwwO3Rm3sWBx71x/G25ffHutOfCl+b9+H48aDzfgPZw5FaaIer4rH4oyey2LVyK4cX8I3zQaTiKrz013hayhAZHZuMtpOjBGCAV47IS/sE8oMXSFUdenSWPTczvgQCvy9FWfmUZdaSkNFl7Nsqz5KWL2ZuMoYLakhqjLiAv0dl29NZvGRMbjkASTzuZcGzb8//uSLcffQiYJRPHejgRJlldRN9LGcgoxsyL18sNDDP3cU77x/Z+zw6Hr5wc8iNkfo4SY4wjQ3VvDu75+xKt6+fmmsJMOuoB3DYD03MRN/setw3DY8zrouc+M0PMAloPBoOcmeW645K4dVcBSuf3XN36O7vO4fnooPP/Rc0lnFdW+xFn95T0fcdAXRD62yC/5Izwm9jrIlbsfYTPzlzkNxcAZFFHmEzWXBSTylSppzSDRxeVdb3HzZ5vjuC8fiK88djgmeqWx53IuaMA+eDkEjYmQgiHo+UXJDgzXcLx/sjD/btiY29XZw2LabTerx4uRsfPKJg3Hr4VGSO8ouhovIUe9mAYk4WkxhoYwuQC/bD58/f+7quHxRVwyyNGZUdBS6/t97jsXf7DpCuIuis60yiySAwa0u0rgwqrUYZOyfXLUlHjoxEZ94dB/5Fx5hIAzD06vCgwZOx80awrO8pzNuevm6eHZ0Jt73yMGcYpSQF2lp+OvpjMqmteDyy4ox+6n0MpAJmGmsiQvrE7ykgubWOphgzK2RnQVeLaHZUgU6j3qBcB5MvWOuHO/Z9YPom9qPsq6gnetsWJ3Z8bhvw1Xxmak18c1n74sVu3YS3rIzpWcwlztOlBbHGhT8D3pvil3L3oNNoN6W42T6pqmMWtIbtcmjyC3eoXqc+12xs/3iONa+IX6wZ1G0bl4Ub1z+G7Hi2KFYPfR8xMnRqPV1EXaiesCpcGSWcsmSWPnMjvjytvPiTUOEgjDQsi+/UgHuZ+2qBMyTDPjtuptzKLN3qvQivMNFiwmz/39c2wa64o7DJ5XgwiPxjpu8zdZevbw/jcG/1c2Wvs44gPLpeZ2jTkBjs6zOGXuRtN3XXxjL5qteLB7Q3mzAIPlzzfKBFNYLfvYYhQ88QNDzGwn405Pjzxno/reGf+m57avQ0jDYUNGw0Hno2sGeOBc8/9+ua1dG/M7m5fHJJw9gQI5kKI1rzjl4htHIkgegrUdhzx1kXX5uAAU/nHNCBdO9x4aUhppOPTztsYalMOkknzzDSv4Zhv/B1lXxh1sZcP5SyZZAG39+gfJ888Xh+PeP7IfPag8GGbl2l5AhZyb7GMPyy+uW9cRNrzglHZVdZUiK0RjEyH3u3LXxoU3L4oxbdqSSdqtwRAV6Zv7KaUCT8TbAN/Hx5/PPn4zRETKkjGP23F1B03p2cPA4VK3+p89YGhfR9tTutuh8aF9WCNpfsbccgwHdzQS4b1ejYDTg6SeVovSOyTqN85hSCCTFOu0d5BScCtyyakOhmUCpacEjvR6WgM5expLL4NDjMde5NDOgepwyVUgTg+vjL+tb4ks77oulO7bH7OCyDCNinAol+mAgQmuUrHEytiEI7a591Vg+wZotAlDXKaM2GkN42xsbb40lBPCnNx4nbB6PB3sH4xm+9Gj11Gm0eUX8b08/FGufeIIvPQJRQvQM/YDPLVLWZ157393xhstfGz85NJzfryOuJoumIL7w6g0MUazQUXD0tmYPh6bYjvetO/P0Or3DCJZS2dHQKUBb+nvjoWvPTSZ/44XjOaeSwCY3bOj8KMvteGcEgV/0Dw8kbFkrCgwZzENbQyjnas7ZjGJ6YQ6zu/RMvJon/t961bmprHtR6DfcvSN2jU2l4LaSIPnY6av4WU2SrCVOkmjQ+MsnPYPbGne72+o792c4zHAZZXj6xsk3vyyeGZuOy255VHTyTCZ/W4HTC3z468SzSEZhyEWe685jY3H93buKggnwNUo5o7cz/uCMFfHWdYvjz89ZG3ccGYsnRjj+DlgsrdSTTdFBqeQcVn8qiQSUObSDQvdp+OHheiZ4EPFcRpMXUCXDx2lkwiWzG1b1v6Ssn3v2cPyXvSdi3zh5DQzNb522BK+7Ot65flE8gQf7PM+lqfR1i6OhrfN9E0cWWvzjvLLefnQ8/vCpIbZvTmaI+/Z1g/GFc9fERrZW/vzKTXHtHTtRVIxxwuy0CcPB+4MUP/glaAvXX529Kt54z57MbzgFmJAHosl4nmFlzuMdwOYl2hrljA5hzFRmB0oxSHLPd0bqTmOamaDNBKHhr6Gv4Vvd/aMCw2eFM1PyKibWRkvtJmzDEAmc2UrIfXpfd7xv4rG0mp774yUhnB19fe1VcS1CtW7nU1FHWduxjohSeuxVuPh99X68KgX7fCGBSZ1u114dn7GdaHdVD8XOruviG/W3xDviW/GB8Y/FhSNfjrOWEiZOE/I89MP4+os/jt315+NPtpwfd1376/ROxo7k0sLCOHFPlFCq2QMvxgdrHDSCcHmKBbtlYYrQOp5LLcW8VLwUFhfLTSpB38xEuh/UA+Ew0bkDSEYogDdfsdVO4vce35upeZcZDKuttJENAPSSkOcd3tPYuT7quPZvGZ480LgwdM7d5sjc5omV0MJ2ZlgvXNSTCnruz5+I5wj7sihBpQenz+0+FGt//Ehs/PHDiUtuoNdozL/vXkoztia4vO2umuQv4wvXBHP7CTyBlwI9h8EUPxMh8ttQ0nn3glhi14oX6U8ldu1+Jwrzjvuei7/fd0JKxYfwtIkftMh6XsbM6Qh0sdjBy3bC6LzcXS3F38gb/fXAp2JuCE2BwXVxJUt4v3jeOt+Mb2EkP/HkUByZKkpnjxD6/sX2g/Hpp4fy+R9vXY7/IVIkzM2thLzs/HchqfSF89Ymvw5gmF+Pkj1wYjzxNhF3Ix762jt35XhXLO2Jzb3tqVjSvRv+dWHLNAQjODHnvgvXq5f3Ri8K7NyTxxnVdcLbApdS/O4WHJsP5i/9VMqbS53SAlmYYLeSPxr/5AdtjHgsvMsMsYeHGSerbLTPECQLu/lgAoPUB9aPlxjIREX+R9s39jHnpfzQiqgGCSYDSb+4qt7RFc9U++O6R+9C+YsN2oapBNgQqxxnvbgjnhg/DwtTj0Pl1TmXKDVRWNZqnRv0seSzs/v6+Enzuvh489OxduZxkEGIurfFvcf6Yrh+gHhpAE5W4r59j8YLY/fGV/qXxkOXXEk8Nc28ibEgrMKOCvJ3S1z65ENxKpsRtJIWSGRhPk0Qk+IeeJudde3NbLiC6LpiL8yRvEYUnrbouUEmDz511vqs1HoWo/S5HfuhH8kknufpErw3hTcoTu2Y5wy/+ojTfa5nNX/gkktu5pZJhjz8NoPqM+ufnUu75nkm4aww7BidykoxvYXLCC4fyQu9uBleDYWhsskw7zkn0rL7bBpadXZ3RRdzXytwigRSgX/iR9sBhFDvyip00sR1yVwGSXic8xWeUddgdKa8QIqMMJhhZK31V3Yf4U7EVuaVFgVoBE3WeJazuQKLFnK7G224/c/yxhjCofIrjyZwpBOkzDGk/2L87inQcB0htVVkH3lkL9MYaCU/oUdR8dQS/2n7UOxHCT2g/CKmVx4RAwkwjs6BMSACzfU6PLXXVXfsKqItFQn8F+D6Fd8b9c0XyEtwffC05Qm3ofocOYWpGbwgQpJfIDffn+3s4n/ftrLgBx0V8mZGuVDwj21ZZrO8AKdY+6edtOym815+vK9x8qQP167dBOCKBRWIVvDwFCLplUQ4vROjej8tNW3Mjhrvd9BZZhbtEELeMtMeN17ygXhi/UVSg6qcER404mDnAIJZjsWTfGZTuQXqKTyCgTU994VH8ztGjy2+IJ6pnRmrms8LIYRyXjkX95+sxRcnXhkfbJDIqp7E4i/OFP1NpatBvBzPTw/Tb3usQggHehfHY2NH4sTUo/Gfl66LmbXro2XKskanL/zL/KHew7b5vfviNa3zZYngKn4deBJXRotsaQ4c5C8AAEAASURBVDHZl8DO3SxU1+LrAU3Zu9ZmDOI0YB3h3++eviaZ/7b7d+dXLRqVKDQWSaS9pW8NopVLC9cURHPZQQsPfzhqB5/FO6SnoA8eRbigm/eMMvSEpvQP5pdcRSx2J5F04r1cTqJ9t6c26J24kGWstxJeGEdDZCMK50Bqg7tRZlAE68Q7Ga+4iqUVcSRXlG3MJFs3m5EVfG81rEOocvcIL6WaAl+eoZWeEZB57rJOl8k1rt14XE/fFBa9Gl2mlzHEXbgUPb1ukS0unIc0MKrz5EsPoocaKZ/O5WfYknnBUtbeuR4mMWZFkqGptLeEz/3dmS0Gz18cGc921zJHNerxfY2xVVB6XRXNg9NHUL7drjRAE6at0I/hML7Ocy0nvXEfeQmuc0lweXJHF95TPTGaaoNPzlNTh/j8EOE0Q8d71g8mPO51tURInbBC6s1r+uFhhWkIW0yhi0rpIewpb/KIz049LeRJfiAvFnloZISZw9JJaFB1kQILEIZXPMuKGJmfoR/3PPW/gobnLgI69YR2EzTvHx+OJQ8dia8NvDJ+94KPxkj/aso2jscESrQaBVZxiEUSCaBJ5gXeN8bH49/fd1f80bG3x09nN8Rbum5nXDqE6E4Hdo1PxdWVR6OvPkR51wBf9HQsTrSdG7ePro/nRn+JcSBjCaLuj7XkrRMD8cDowZhZWop/2nphZtpyfQzm5AXhJdj5nGyh91KcPetVL2FCwxpTlcuQOcMSiGdmUis/ZVUKQqWnMdlmtPHTy7Ymk76wcyi242H1gogEikS4DkzOYV2bXEjLF0AU6OvZ00DSp+/pfVLh6D/5QeNUMGhhIlDPchKFlRfrmJ//zuaV0U45Yw+ZTXeV6F1wtcgE7yOYFr0IjR7Pov9MTunp3ETPkk8D4fQc31xiYCyHV2EMzdhCgUFheoKC+s2FevlxvJO+z2UdT2r08l8PK8hXxQchc51Z+fjs2Wuyzd8Rrtq3WeK8gM1kkoKaFUzc9H1zBl3wIuWNZxoFs/nZH8/1xp4WqbxZvbXC82u4zAYbSRi6W0vtGcMznN6hMZTDu5mbe3kMkcmsLuaFGpQ8q1p46Y//YwQe564exnajhmu7Gj03UrgNbjtK6LWUcafAZZTlLL2d5ahz8MhzyzwPymuUKOK+E6xewNuPb1qUUxiNVbG+XIr/eOaKbPfRJ4qQXWWzYEkaVOGLy3T55eTKGzC4LivfXefPtXkZ5wZeLVAKLCjk3EiC0bUC7RKOFTmWz81SrqdwaRX02+8a3RfN22+LVz55b9x5/mXxJ2e+Jf6cM3r6xw/H4m7eIWxo6debwHLayyDFaYqCig27n47BrefHX5PA+MK2U6Nj+Elj7hTQVy3tj9eVb0VhxpJxu7uuic+PXB5H5p6LpycOR1/nIJk19Js+zdgtRlg4ECYePLErrlxKqI0wKyjaehXIY0gsUthIVrrUMpjnLGukzMblhnXbwMwMWwhDnK1ogecwevi89HwKuH389qaVsYWMtMsYH3t0D6MWAuP6ot9d4ykGpvSt99UK544X3jXj/sa1i7mDwAM3KpbtjDiszvnx/kLA03gg+FnPzW8Zp6f91NP749Pb1sVnzlmfSnsHGxt+cXgk7uH3EHRW+kxqWBTiOm3ihxJbr1vhYDo3b5hdZehM+jmv9ZIvenoF3xLLhaoalcadO87T/OZxQ1V557WarPTb15E4kSYKOH+c2d8ZbyPhtJys6RFoc+cx1uMZS/q5ppkGDbpoSB3TS59i5ZZ2Vc/oNzSYHbeiyGUXCx98aGSj0WxSn9s9r7CjKJrJOx9p4Jwjesiay1AmgfJkRl73VIrMKThvVjl0Pgy8COPnZUSksuvlNDzSTS+/sC57RIPNJUwaevMPuiAjCktEmzyfaxRRBWIUH3rkQDx27Zb4KKHvnz17zC7x6pU4kznw6X0dcRja3Ha48P726xKV+QXBs7zVA980Xk57nNfLE8KupF9FC234ZTUNr2Za2c3fk/B/oVRKQvqVAa6H9SMMpmLcH6mXqFEH2zK4KDN4V97z09g4Mhx/cfm747p4hjJEM4QwR6j4racwdFAw2vkW7OHTzooaCaHfXF6Jv3nhlLhwxea4aPonzAVZX4Rgs3jWnZXz4qbq1XF8vBx7Jx+LB07u5ehKQiI6VVHT0NAnKMG1SoxPHo7mIEkLdvRMsXe21I2g6moIheeGj8Ya1ihzTobgKG2GfCpPCgSf85voeeKRJorYQvimhTTxsbqzNT5/3kZHI1P7VK7ziaGGrY6FdH9lG2NMY9DE1wyfi1xeVuZ859It+ff/6J9Tj47E88y7xC0rsmgkI62dngSHz6CwY1j3P2f8lXiNd7AW64+XXvRnKO977nka2DFe8hO+LoSUeh4vv89UXuhp3Lq3cCV+8Nb9spAB/hJpzL+vok1xwrdYuNTgtYX56d9edEr+/f/8R1pccvvONEL5/afQwXvCA1HUrpwC5Ht8Pm2wP7owKL/iJIuOmWnGIJKhSk369aOsnuwwIYOhpSGqdPTK7Lv9cbkfWeXVkzpVcM6+kJ3X2xUFIKqbRt5/SALBey8jrysp3F87OAA/2+KZ4ZG4le86lq+5a2ieTHSTYWnWRQOHQ7vSAMtTru1LQ/T06DTTgVnWhtvj3Wv64tsHKdlF3j579gabxGd2HMk5v38LShdz5in0zfBZ3ZP+DmkVXa9hD7hPMI5RTkWBtwImU9W87XOrL/zy5pxL8aopF2tqaxgRl3nU9dz8TKeStxfXU+qiuqi0JNY98XBc0dsdb+lbGR/pxzta6AzxRMoU12yN5YWRkZxn/oeXXU7iYE/c9sQDZGoG44rBi+KyxR+O58ZG4uahQzGy9oMobUccHNsTj4xtJ8U/gbL2wDAMCHC8FBVIOfDIkID4o8ZgM+s2xCOrN8b2c/G2zLv1njfc8pNYXPf7WcA3DRQCwGsKohZeQ2YlkX8YomhXTQD5zBPpQSC+funWDJe+u+9Y3E9GsR1vagY1zSjvZVkc1tqji01aeRysX2AlZwxtvkw217+9lRf9S2e9ygEsr3NCPbswGcnoOVyicguW9v2/Umjwd/xsJQl1w6rBOH+wO84ne7ycRNINqxfFgTddGqfd/HCe4ogUFfjxbpkOwQqP5eCOX4RaDiPpijOkCs/nl0SZ7MkieGEAnoVLY+tlQsdlLLObKoH9ncK8/sqlvbEE+j79mq1x6j9tjxPTKBI46IGdblk+mu84KJf/rhscjHUriJiQuV2E+rALeYN+tDeKSnkDBtvmV2bw20sDah1ALofxNKdz8ELvlzTkfS+nHUlwxuwwW8y9SZyPZbheFuBftmZlnLVhkNA8YuXhxbFj+7Mx5HOcgFVJXvaWp08CCK8DvLJhiC9li0u05OHHnzzEctGG+LNzVsUPD41HL/P6q8gee9bZV184me/5huyQJ37LonuKXS3Rw2f5JPCb13CKlvygc7L8xZyNe8k5Q0KRM2wBD4iB99EyKkJYCa2TCYnMmzLIFD89voOFsCihhuW9+LmnY9VlG+JJCqGbeDgPEef/KI+PZcnZ4TPPjz8892L+Pha3HXgCKhgmNuLuI3fE3Qd+EZcs2xLXrzg7vrbvJgZCbZR+lh1W4lk9KPtfKquTcTN/RQ61EiswNs8MD8ert74szti8NL554C6syijpy6Vx8HWvjQPHJ2KWje0qpXgY5oqrO2Ly2BIgkfiMmKGhIZnBjorz2tWL4wpCddeiP/TQrixkmIA2Ltin6AFL7vaAmCqZCpe1xDy1U3dkfOyxPdw23EVRGdcQyEhGrUmPzDjFfLjoMvnBc4dIftBefuymvPOvRifyTCIF9kxC9NuuOivD0a9cvCnecs+zmaio2p/eng0bC97RccQPYP03ZdnPaaREhZ9+1rwMxfS0qFBxU/ySOhHPMj/8fZZPEm//VSaAywTZLZdtolCkL/7uwvVxwz27CUfBD/5CjoTJ6YJ08vLfZ48ei1Hm10cnp9JwyV/54+U8NnEvPqTAj2NQvFTeDHvheZPQXeWxbTFzheUmQ7hUBJXbJI6RhQi7sX7GoxO59MAbenvj1D49dClOrGjGqr3dMVQdBXaytFoQLkNgPbc7lPI7aaGr0xXpuLCdT9pqeG46cJIp05rMZp832BHv3cDJn/TxpeeO52qLU6B/eWmUpJJzfHdDiYs0oowpidsPrvXCmBVIutfVrCFOGcIjpP6t5vNjGNKHpekmbEge4yk7yNB2Ew5PUJmU65VYmybeyxCheuBQ/NbMaCxZPECC92RUSHS00uf0urXxteveGf/xvEtiLF6Mmw88CCU7YxVzKc8M2ty9HOrpkWdjrfOL3IXTFWvbB7B8nYHaFdnXeUz7II4KZSLiYI2Qb3osDjOHPEJ8sbizHt985NsRh3bDMZR+39PxX3b8IE5Sm4ttSQHT0soENzx30E87CSMjDOdcVie5h9TkiIUXrkF+/eLNOfJ7HtiVh4nNEqaa3PEd50kmKngt6aElHgAvPbhzSrmVLKIvk14KkcmuOW6aQzCMMwRSnrLsDk+Qp0UoXNDGcKlgIrwBFqW/yjqd2VHnmrvIyF566/aE7xIqs/LEDOD3FAbHNVuc8yTeNQQUn2KPrPILFt6nTZ4GwW9zFC6FeH6TEYZzWLfNmXjyEpYBYEr8UDv713uZ/Lr+3t2p1hcu6k5l1QAJRXHKPc6A8YyOvPz3OJ5sD5VqJ6f9LgmjApb1yEG4R9c3bWVhSTf3Hfco0x0vpydpBVAq1yqNQHL+Tf/yYnVnEfIeJmFnUYw8MsQVZqQrM/r240mOh9mmOQRThmg3RJnYKO/4zQDahjWUEXqN4R0tD2W4nM+akzA8duqQXx6WrYCWsTUQf77zWN75K4ovLOKwgupPnj6SKyYmbYuriFA0GsJmSGwloXR2OmZCUhj0uO69pqhEs1dkStPcAaT1j3nSOfeVQF8Yw0W2sDwyAFMsBB8jfNMUz1K1MuuWuZHCQ1XYcR+ErScITW+fqMb7N22LHUsWxx1LV8VxQp99HSfjgT13IKnsa+1ahEdsJdOr5+a0BeqFkTQ8NV887NieiIggncAYmFmU/IP8MDNl/BnmasBauHtKvHriRQ76fllXf4xz9OPSXvqiqAPtAFuUGYWfmzgZa5aOp/HOIIY+FRAzuzWSGU1y+iqfYuLykoa1zDKCmdovX7QpK3/uPz4WdwwN5xqu7/YjxOZK09IDs8XeHi0zxyK4yQwvkzU08X+UUMtpZEImwPkKf/vFXypxulAbAVfOOME7pYM3VeiCtdyiX/fLlgBWr2gIZs3w3smZDLutqc0AkncMtXiURkp4yyZXEFiPy5l3HMlj58CaH40Mf8QoP06N+oGReVOB33y2WJykX37LAeMbts1gFD2TKzPjyJD4ZDWYbaGRnioJIH4MoMHy4m6Mjo5zWiTjw3fnlm5r9Mwpl3sGEE+V0K+IsQjGFYfHLPvjsozTqYJwZwgJLGZTlVnD4wso/fN6cpyjfIAtSw7Br4QRU55q5BoSTmT6wQMH4wR8dpPFzuHROIYRkaa9xObXEcp67WFeah7H7/nV6HsqpzkC9UXP6+W/C7uTvrDraPzpWcvjPJaDvL6zf5R20rlIOOZN3kh+ALPKqqdVs9z+yS34URgsTyLxZAvySVponvAiOORp47YsSqgKS+q3laeUI2TaQDeSZG8guIeD1RZtuyTu23pOHFy8OMZpasLmGYooejnQ+/cuvSKGKaV7moL2G9C2TRNMyNt64wTjNjgqc4h9nysr7VQ7gSg/YpweKfH3gzfxEELPx4MkJVgg48SG3ri8Z0Ocu3JTNKa6k6FWYRkdPD15InpnlsUfr3tTrCJj2Wirx7OzR+Lpw3sxBB2sr05nEsJxXNMUcStxnB5owU0cuHDvHkyt/MWLe+Id65Ykw99AqGkdsnLhqYgmU/zb+ZZhjiGS3wG74Lnd4O6uogU8xMHN0q4Pa0ENU91vyYG7xOfuuTUrC4GBSVH0y8I8RsTlhMV4nVFtFMZEw2Ao3+1cg9+TDLGRY1C01C+w3JGHvPOukZIXrTAMRE181nqrQHl+MPdtUYTEhJiMXbAXuEgGTWHISiSscgMAY2g2vPzXtfU8UYN3rAxyndA192XIixlVs6FmbvPsJL/KA7iNIHx34Yu0pHc3xRz5FS+0dY7bcJ5SDFOsQYoDjsHR9eS7J9hPioxtZvp1/eoByk3JlUhYfswbONU4o78jrlzWm3fvPMxz6OpJDq7FOp92t42e/xlKF89Bsd+6aXn86aMvMALLWMj5CIbeqEOv/kdnraTviO8fGMmlFT1qZrrhbSobn10F8ZKORiJ++ZsHmH9tz/H4XzYvSzg+8vhBoiMQY1wz68UF3cDbLLb3ujHSBvKZtOT9SeC0Nl+jaIjMtA3gJY4CAgPmDENAyjmY+2LTO2BtTJ5IFM9j0upbmiVnP1Xpj3Ou2RSHaofi5OQTzB8PIZHTcVqbG8ZLsX8E4aHd2T0DhB3DsapzTVy//JUZTr04sTN+OLI7Dk2S4mZttgcCeKWozjNMzi1iyAOcTMH2nFjR0x/XDJzF8o4VKi3x9IOH4tDBA/H4iy9Ec5QiDQV/XviJ6eiXouyNG+Jsfi5Yf2789eFjeK9mDEI4j1QdScWE2BAklwjo1TBkAPxQn/T0f3/ZGdyN+CTlhyMIoQKf5xFBpzwkGtrltACCCrbCbcjlVy14ysA/G6AifNcgOCeRlFpcw7rcvsZ98fW+8CjcJqrkx5cvPC0+cNqKuOXQSLzrfqpytOi0zxPoGXc9lvi+a87kxYgfMUcfxIrQLV4QdilM4gc/YXIKtRVNOf+ivcMZjpudNfkFYfLI0PxGQx/iMT2szdB9gS3+7qFd1gbzt96/hst2/fm2K4upw91H2UklTtJJcAWIn8yb8I4Xo6XyuRE9d0iBi5ffrWQZJTkr2Ywg8xuaue6qx/0atcO/feoSinY2xpqbn8q1UQsOMogGLmt/feVnKKvLbx69Y39OoVw/ze1u4PPRx/fHba/aEr9xytL46r7huBOYnaboIBz6xovXZaQwzBz5e4yZRhk4rOvVcOpZ/e1BA17iafTQz9tVaPyx7YfjbKYGj7OLx6Nz9KGekFFQPV8p+AHt3AY4PV+OWGEJ1dUZ92J7qecIiZVwqocT74KYehbXLS38JtaCISCnq54ndCYs/BsgTUitYjX3B7v+gTj1JJ7AEITeELLnJvSZ/A0RFawhNrBHyz4G2kW/HXFD38ZY17MlPtB5Wjw/8WTcevyFGPJIVcIvPVbWXdKDXRyYtviiEm9bRUFEaRXJBsLj1rHon+6M7/zoB0g973HIdWLlMaoqqrGtSM6MxePbn4rHf3FrlF5xfqy/9CoK+lFEHqsYMl9DZBhuCKSF9p5pdF//n09bSfmhYhDxmyyhvG1+GUWl83mKF+3d3fMn2/fFPS6y8/csTNUqZs2qhojGVtXcz0YBL9+1T+nvJ7rLe+9ie91OEjp5iBo4+83rJnJGiWa8rls5EMfeeBGVT9V4ijLFI9OcskF29hVLOI2DTvZTR/27bO8ynGxgiRM/7lu9owc0FHSVy2WSTgk9f/m8SnIvE0QIcju08DtuBpkuDJVn8tsJjAgMhb1eRtRx21VbsfPFZ+dsy8iErmJeKRxWD30QOEyISWjne5noQZYyNJ/3SJfQz73srEmBpN9U7KRFQSHnjb9293M4FYSXrsRHefzkE/vj9ZQVOt6xN5yTRRQPUvm0jbVgl5wAh6Nq6xi359MbMrmCxizvCDyXkZXnUd09PBP/gOd80xo89Su3oNy1uB8eWpxxzkBnenR59M4HXiTZhLLxtzT0G9RlmEZGISiokLYu8x5GHBkJgfs1dz6XOqU5xzcX8oYxLy76g84T9O1xMHpvYddLi29urueGkZYKXFksp/gwSsem7J0POG+chqD5rVz0qvv3xdzfl6OorIWi7xyrxpUDq+KumclYxGFoFwwsJb2/FD0lwIULBH8kCUbjoeMHYq9rgXOszc4Mx02TY2Qydsf1A5tjsP3M+O0Np8aXh+5F8Y9FpW9NermkAoeEb+pfGW9YeTVn5dRiz9jj8f3h56BMJ2tcr40tF1wYOx98hGDf+aqW639wceaxYfQbL3hZ/JMbA2hirbBCYjLCQ9Ky2giCGRI5x/TsIqgXa0xscNE0Lvw3ttmdxymQ91LEoFdx6SKPmIExpy9fmqgoyBbw/39d57F17QQJD+eozsMsxlDgf5+9tt9kOeevLziFEL2XpFxb/iz05fzsb5/nxI7HVVbxI5spHPBR75/HgdKfMIAyPMWjaUy5HCfngEDpubpa8qkpeIXADyFM0sGqL8/x9cQNr6zRxXP8y0vBVsF+yJnQH3lsfwq2ybs8IgZ4Wnl/sUSHNhkhZD8tKP+/7udf9gk0KZ/i438mQj2+xUzxWT/dEd++ZENcu7I/NrCjxp9szj/3shrwG/ftjeMymsv3X7KKfuZjRt7g+lYMwmfOX0sxyjJ2Q1VyJ1C+xD97J+fifQ/vj18e1QFpWJURpkvSyS75D/uWu7x8RwX2XK4RrKKFMVZoeencXK7JKZf8wAALkgbKop6Ekj570Bf79Jxp4c05ObTP7DaOoNT93bv4omgPimb+BiFd1zLM88Q3GWD5mRbNDbVeksRsoksLzgH8bp0bVvXEyiWdMUKmogcrXYPZDZTTxEYe0djVFc0eJsz0X20djrsOPhVPjpwAC4SC/pd09sd7V12TQvOlfT/KLXf/bvk18bVnb4xty0+JrX0vZ8F/LL566H68JwpPlZQZ4RvWXUBSYmN8/StfwWVgOweYJBtugM+/uvS44PK29783bjpuGSHhndTmslZa/KdYqDcbnNVFwK1nlCnuQPJoDtPtKqLlYcqcJ0N43qzr064zunGajrP+1W8o03l5HpZkq/YP5NJTnBjGcprQo385hKGwL+mci/H0b0WZjNUDetxqF+vbPsuTJbjfRYLKaco6NpI7hxONh0cm4yDrovLP5J2WPKc5tMtzlxlKBVGY8kgbeZw4FiGk4aHLT3o+0yOuKztfgjskVZhTAWN+bSjtXNLI0FVapcJjWOxbQHju9/easMx17myPMPK+Ib8S2g49jdYsdNCYWFKITynw8zM4lKBRnksM3u6yUfLyu4747TRDemdJovhxz1P7TyMBtQFlO4Jnf4SC/QnCT+Ugy/n4rcIadXhInXAatqqwll+qdk5dvH9Of3ts6mkn6VWOR0huuYQns9Kg00TeuFlDWmnYDd11E5NsGPfUUWsE5KcGMPMZtPTLxqya8kp+AIfykvLGc1cilDXnsNZ4q7Apb/DfXT4pb/ztuWil1m/cas9pcXN+YQjGC+mXGVTQMmkA0GXiaocVRWw1Be8GkygpwJxxcH/c8zilha7QUymSkmQ/AGIWLXr7Y93KVXHlhYS1rGWu7KvHT1+4lwQRa6ImTlo74sNrr2LOxbmF1d3R37k5do0+hQBsZh3sUHz38OPQtYUkEtYYpNLyc0zMJ05/QxzYezK++c2v0weBDwmMzCbCpBwbAY/DR2LbRefEzLkvowIFxVaoIFIqCwTWq/olxpkI4D3njM5nVVCZYUDsfD4VEZpIjzxxn+eZnEOIOhBSi0nc0cTtwpNJV+bTJeAM1hits3WDvQ06ZKiCpyWFgR28C8szQ+hnHiceJopchsmL30YDWWapIIFDXrSxAk18R9UO4MuMI38alhmKOkNIr8A7zsMSP9rnvI/P4uncO0/pA07noiqyc1QF3WyooaBTCe+bYbYfhbOYmyrAGqlEnmUyFJK//eoWkTFZlAenpZLzngqc76OuRmO6Gj77uoqgLFqfa1GJCTzHkQ/OdfMHPIz8jBSMAIRbnZCvyqTGy3aZA+Czp2EKs/AkHXiW+RkJyJheOS7j0EHKkjvQvDRgbnpRabMkl+SgUaj8s43r6E3zJmkkfMMcBZ3QfpRQXj6Z5bdiS70BNHRJo8Yf4gMelkU6vVCJjek0itIbrBIPk4uCWW685X2fUvudZCvAhsUWR7hOZwhilVJ2iKDobQxHtODFSQZYAoTbRMXisaNx6J5fZWIIN0PPDguwDGjSIvhe1dETR+LJZ3bEU7v2xKmL1sbAwKbYRnj39NRxTPhUPHjs2djY04t1WkfhNqf5V5YReu2P7w89imntiqVUTfmVCMxoYwnwTbIMtH10f5y57PRYt3hR7HzmWYjNWG3aXQgm9z1dkQOprnv9a+IRlpkSH/B1XVELaHbOSCCPUsGweJSI9DBBo2Cabc3MI4om/iZesj00MLPsko/zjpxf8L5ENetuNGG4LRNLGDq/Na6NLG9WtXA7v7kdmbVYX9l1fqQQmP3kfwSEj8BlKKVX9FvkkqEykH496NwQU4VzWUd+0Uky2uShRQWmiFx4V4dz/RQhyEPLeCfxA9YMVwFApTTLbtQk/s539YpuqHcqlPiBv/Nyw0JhUiG9rIUWHjPU6anpx+euTfpZgXbnDcTPtUTHMFQUZ7f58YQcAnjxW6XQu7uuKjyqTCFvyhL0EkbGNefinUzKQCMNghlwDY9w0V2KgCcxpiTyfE4vxW1pUdTuAiM0cm6uAfNcKXFJfeCexsf+0gbyjng38IwmYM00q+Cp/Nz3wAflQ1nxPWmR/AB/l06NJFLeGC+NHH2orCk/9JORHO+Lj2XCTl2SH7zL40KUebdU+fbtoMsN/pMpLitgP3Le48Fdng7HslVmI7mdVsqQWGZmSp+/FbJXU1q2+7bboo2vJLzg1I2xmG9vc1J/kqKJFw4diSdefCFGnj+QnsZ+qM6OjVvPiEuuvgpgj8ctx7dTFbI4Ll2+Ph7YW4rHKQR4y5pafGsII9DWndvo3JnjtbDEM8bSUYyejPNWbGCp5KLoP0jS56e/gOuQedEAEg1L9x2Kba84N05uvTiGmBtaAO+xGwpEXsAOCXNzsOtzfEgCFWkmBILnpuclrruCMkCDmM4tPa5V4VLRDKH5AOMVI5MSvMNnLb5XyS1wULpHHGg6ytQhE2t8lmkuZ8gVlVuBSqWYp32eQsE7yQ9AdMysrQUmv+tHwzKBpMhIhRnmQFP74yFtvZXLPAijl21ewg9wFCS9s4aoIvzQhlcKT4ZCiXsKJvcyk05bPRcvpudwPGFwIOdgah7ft1DAwPiGnolfwkLfyJWRguuVekFprJe2D0/Y10FMCjuezKowjYmKZTxHV/PtUQD+NnssrTIzIQz0aX+mttx8kV6SNr7HsDle0oh3nOr16/NQnnHmnMWuGdugB/ShElGnl38Lj5KSS1f8diiVP/+gL2kg/skPWnrggWOqnN53WpEXn22eOIsjV0YP8xFSznVtAD2SHwvaKa2QkXLn237rU4YdumDX5iRKB4omEbwURC1iASyODiZpwURaAkg0510eW3LKlk3x6s2npgDsJyw+enIkq2nO2rwpTj/jjLj68peziN4S+5nLBYvlI089Swg3EwcGTmUZZW1c3ro6Du4Zi5PHhuKSzRsxVdPx9PCLbJ3rLiwrY6msYxiVWZNW3P/g6VfHyrbT2cY3GX3Ll3EMzCVxzzM7I/hKyhjmZ/26eNtb3xy3usTAe1YgOY/KE+GFHzRbUWBPwBdHrb3hn2V5hiSuw7mWOss9Bcr9ls4zTLr5uQuvKa1kgF4155D8lmYKaX4LGkUUdcy0nsLzjJxYJO1o53wMyUih8P08dQKiJj/o3xDaCpjkBp99L88thqEqVlaWzY+vZ+2mL/MKeiIFyrBNYXG+qSC67m5/KoA1sN1MI7ynp38JP4iipRevrN2lvfPUxE9BSmECP/rLM4sIF/PQN/qz+EEvnmPzXhoGxlcJXVbxuFxup+dS6YUr8QNeJdy5r7KV8gb80k8eafbEXf7kVrh5mTUktm9l1/7Elzgg3/cdvz9XvAw1QSg9n4cMWKYofk3CcWnh3Dxpw2B6Nz2lUZeGT2PiZ42fht6pQH6mX2lisYUj+p9VaWaINVK+4vKnzzPS4Ia4SBPlJOUNWTI6ELcssaWtjlMnaK8ZSfHc0yY0PqX2v7+TYRk0SeLkmd0sJDqM0xQa7B4IY2VA2JBj4VLxDZ9FgLGZp7EEwEBzjz4Qw3dRcriS+uCMJbIhkHfEBRefG1dedhm7WRrx2a/+t7hw6+a47NKXx933Pxhbz9oaR/fsiZ9/74dgxW6d0zfGW9/0G/H4yD2xnT23y9nNYUp+zPkD2/deyxdhDXRsjU488a33/DJe3PUM45XjbW9/Qwyu5Xtk9zwX3//RT+Pd7/jN+OZ/L+rOYj+7z/qOn/HM2PF4PHYq9iTUJZBQAgQIpDQExF4oaktbpLZSq1C1laqq173pTe6q3rdVUdVelC2K1EVCQlUldoWypASCABXkhJDFIThge+wZ27O479fnzD8cz9+/3++c7/Lsz/N9vsspFB6Q6kZ8EQKDhjFBt5DWYW+SAwyUEIb6Vun8f1R+2L3gtkheqGk3Ea+zclHbyRLzmBF1IU0E14p+ha2vQ7CU1eZ4HubhFhIInb0421voWPuL7XQm4b0LCKzed0qYhJMMyFY89fzxbjn5cbumgNq9WfsEGZe0bcwGg9iYcgklg7kfwy/4XDPFgSab6xZl4xu8neBec4IrVh2yMPwIb9+1vTesk5PgInRk5nwReO1FM4IuOWl5q6iBwu5UxBq1qwa8e8tbsLqGXxCDnUwS7uFUvXniqsxTjQ497NOrOba0tPYZScka1QwpvLWAjOKT/yjJ5ADsPadUFBcVdixpj5dcjT+b9+3+9rrWNuUdv/sUHXhze49zOFXvwg+EftGMRP3tz4P6hJ7xskjBf4ZQxtjjx/hPtpi4qlUOrRgV+IiuvN0QPfXfQeLvea+eJVy2CGANVLqGCfSEOo/kzhDWUfAIZ8wVLltagyyl0xb+8lvf0sO7x80/+nSLML8wSckmlr0rY3M883tPH//nl3/1uPb6G8elr3nH8d1ve+vxY//tfxxP/8wvHh/++CeO7/uB7z/+XyHuK3/yJ8e9PPBbvugNx7d9zdcdv/DpjqBpTHwTce/cOn74K96dt3zj8eFf+KXjf7cD5/lP1VfrmmWIf+eDHz4++MlPHe/6hq873vRXvvn4qbY6GRc5KJsAIQuBZRldTqJj0b0JnJjYnC6MdTSMSGJGKQY5WQAtNu9Y/Y3fUo7Vrx3HaeKZ3TrodL1ElLHR1uP25HKeDNPTy/qPutXFGAtXRDVe4cE4GjMh9vhRWxi9ZAhFrN0xHR4xknHZQocaXf/R+lTI8NFI7fP8C63qA/48kXYeswyzewRiu2l6Bt6tuur5wuSGD/CX+NobEOBXe+A1rWO+3vp5STDKdYnRqzwPxHs90Mnokb3O86PPsq0ZGl4t1E8a9FnnpxFQt++8yeStRwyl78aFphfnEWtTZNhHHit8g5FgSlDxuPpnADZkQR/5he7JLjM4C3nrJ2LUHiOlPf2GkP77TwiKR/DkpdWffvYJl73JINjxyjMGNJcQUqcB0Lyh46KLWZ/krQZEKBtORkP6g+6SfONH8I8f+ug+WY3cZz6k8pev/tAPvxfSVn9oHECSHQgEkCFdAR6ANRJamBaRUWSNEcp6zjt1iLDPNKXz7V//9uPpZz9z3P/ox1vQcKPKNRDBjrbdHe15/PKvedvxDW/6kuPf/4cfOW59pDJvesNx/PGnj4evXzt+8Lu/+/jl//tbYfbq8bvPfPL4qq99RzC1VeDFMs95mfc89c7g/KLjfe973/Hsh/OqjzfF03iZcBoXH4+XJa7+x/LCL33BGzd3i/yb0wyOJe/g0j2HadulgygYwkNsxVI0cEjYlFvCDCN6/Gp08aZx3sSKL7R5su+U5cXajqU9C9eYYMmihM9YXz/a5V0wa1eCIqyeVw2eVzJIr+ZVCbeWtosnuLwWY9M1tUvAhU1OscCPip5wZ2wm/N0XBUk88+oTFsJZn/pPE1YHjynOhLvnLootAed9t1bxWGEkangy6luozpMzVlvg36fzpEyNTGnAUhmtn3P1g2zCa2rrwnBRNnJ1KT7uRdbocYFfzyLZDJYsPaWVVV7SJ9kRghrr2zzOWLpvgzvZwid7XyW3HLQm2WfpJ/yxw5/nhkHef8u7W0hPmS0iWYItmi+UR9/6udTmFgbgkcpEhoWo5ODxGCSvY0xr2NFLaDbval/5DmkIhlqcMWV09la72hg/ai80TkOQzFTh5Ad5ZIAr7zmcjGXR93rDOC/O8vKxRW6rUQHuXNbukWJ+jDFm4w4I6LUaMm5C7McCVvh0NQ8iPJGdvNoKFyESL+X3T/cqyR/+ez/UwuGn2i2T9yOkIXR85k+Pr3jXO493fO1XHz/yn/5LY8xWP73hiwIwTjXt84Gf+8CU4J3vfAeclzl+8aPPHN/xpq8vVv/s8W2f96XH7Ve/8Pjx97//OJ5O0d/4BQGQIQipXWj1sWeOv/Q933K87a//zeMPWgxvRcvWGKNEeD3ceFJ4S/n1YUycb54BejXYKa4MZ7Td/Os2uEcHYu3ZvY15zu8I6/WKWwRQBYZszEaPymuHtbwck4XSt19tUqGzl68UDj9UNCCZ1eOh+lALOy68/uiFH/3JD4wf4O339drZHtD4sTfmhb8xEq+pMVsct2qNoam8t8gZI3ohtxd6ISujMPy6P/zCi7EVim43ihxGgq+QV1vcerAJg7GxZFUb212UrJCBOJtymhvtWb9F8CIBikVgeatqzjhNDhjv/tR7JFrxQJO3cHNSonGzcNFYzhjw4fhr3GfD+eRN+/gaPGe2mGEUZLWWGnC1txd2V/915Rgul/BzrK38gDne15IBUY5plSbd1oZkmojRPPDexp6CiCYsGKFFhkzO2OKZUTGuTK4cpyNhZYnixtDBa4wNnhCozc7Clvx01QdjL0PugIJX4wlwRacMFy89eIORLM2Q1MbWpaNZ1+X7f/c97z3FPe2vEWl7JmUdBpzzWzcGCBmCczHGE1Ys29bn1iNXDmbzygmXvbD/5F2tQvrsZ447lAvWIf+v/vk/Pv7rT/308We/9wfH8SUpK2XrkcRLr/xq/HztePe7v+n45V9pKidv/ae1+5an3nr82nNPH3/7Dd9z/P5v/PbxsV//UIqesgbfLlNIli+W5Prav/qNx5d9x/cev9rpDV6jwLISNFaKB3g1HMEIFgKA1azjDYoQobebQvlUFL48q2mTJ6oinU85x+iIq39jKGGokwaN+1huWWo7VSw4v904HruQh6gb1p9WvZv1yarz1MO/D4mgM2xMxFM6IRlYhWWsBlwCoWkFp0mET94bH4zZhl/GhWdJwpZfYMN5M56FIuwg2/oUCdTMhI8CP9G0iwSSrYr4LblIwOa5asNJFMNvliv7WiXRwd4CB78QlO007bUQMWMEbp6bp/Q97V04uoQN9Cu/yAZ+0dBzuFgoIioA+yl7Z3g7eVMv/IzvwIcW2jPHOfnsvqbOxfgiqzN6eDQNp2QWNJjaI/4Ox9v8et8ZNcMAbxXUp5My5RHw+044KRuZNqb1zXnG/ds8vGiA7CxkrzzQzEPjOSXeGwLqW59gNCy5ETyTN+N7hiV6Vu2MuurriegteXgrgTFUZZSrnByEtBDiRpWuFQZAXgfhP4vrPaoA4H2FWwO78vbOWiWUmi1MsaKE1ePW5zYq82N/9Ozxru/7geOd3/muNj1+9viuv/Zdx0sR5OkP/XYnY0lKVbb+z78ayht84Dc/dDzT0X1XOwHA80986uMdvvXQ8a+/8W8ct2/fPX7p13+lMLt51toP0z6r9+m8eG+x+2f/4p8ez3/1Nx3/65k/G3FZ1b2TtCKYTxGWAKnPc8xDOQr/UyxvITNVYpE4xkmybQxRTRk+270sHBdyoY/wzljN1IPLO1iENdAhBMta9rtSpyesDHohpnDWilDrRSXtKEdnOsaUEy0jsxvdN1d88qM6tWklDU8YmMHI2GguwQDL8INnahsOFQ2ZM/svMjI2fzEYjdO2qMDj7hMgGUnrbn06e4lFJ2hkYwhVhiFbZrV6DLyQ3c5F4es8S/AOv/gvSSkpR4AJ+vCLFxKbwlCRg+kPAjv8+r1xa91RRIYNjDK+lKcfWyF0ylu8q5xtiviTBI2mAXqO2x/c0/dW3fa4rzMk/Nmp4Cfv7hdJ3A1vmXbz4nIMcPY2P+Xs6NEOY+LwuT0b1aNPz0ejnpEh+uI5B6c/3w27XsuZ4N245V7lRFLOnTb1s0jkAf9ELehDzl5oXGPOPrKd/AigbqsLG6fj9RmyjrZ8LSTudC/pbMF697P0W0FzisN4yKvcz3w9nlBx37KZxMVDTRJ4nujnn33+uPHUVx7/6F9++XH/8z7/+Dfv/+9tIbnZxtbmSTHjQbVBYy3oZz57fHGm6N1vecvxc09/pDTc7eN3P/bx49cuP3p8+SefXph8vP7zgqmccSdLkMw3v/2rju//Wz94/Ls/+ETN8UrCFGwv2TFCs4SkK4Hpnv9ZHjgGdU+ywBvTNsDnDVC/ewt9oonQ1dhRwmKcrGGCZXrn8cTrTspDYY1JtUtNKTnFt1TPrp/ziBlt6z5m0Lq+OVZT2Cy7aeqEELrvCBOCeqnQGVzjR21tBU3Ptx+2/k07tbb0xM93xA+27WfulIl5ndqep0IQfCVR/UlYVXXKoTvH/5xDBYbBGUnOFIrUtWezPW8lM0yRnPxIqQg0k7X9oGjcNfwgWvvev+rNBCIReYTJWzA6jdG1jHBt2fpGHuxy4bq8qV1IaZokrKaYjJXTHyTR9mb2kSpThXdY8wB37TKYoownooFw96UK8NCnCRWCp1j1e61pRt74pjn4yoxEwWlay/hcRKNfdAzCpllAg58iCvBXr0o3+yFakF2GmS2m5OgiiXfGd9Ulb9HiXvgpt3CAdU1/0HnDiOA0Xp28KQT2flvscoU+2kbl2EZA2aVRe3kFvjMmhrdsmfdYAo437t+8hu1pkiUPdXo/RtzJfNjvh8QEzByXdPmLbYv70dB9fe+d+Qff+i3Hjxa7H5/45INYpg6ul4y6nLLmcTq57Xj6I394PPXmp7pfQqlx1yc+8+nj0S/5suMDv/U7cbLQF3Ep6td/5fHt3/TNx68WIP7Hpz9VDyylsFOEEJx97owmAPd3Hs1yMnxjk2Dd2byIw+DEJGGvzKwEBW96rc8swNbV4hDvwSJRAMv+TNijW5Svj9Coma3FjWZgMA5hvQmAJY0EBuMXqgGr+sJiCxu0Y0wmtH25cb2w0Jyxtcw8msu0AyGYYle/vfpd0SPF7snGfaIKR8MQBmtX4X4yP/72TBUKx/NeCzaGQShI8sDrIvwEde8phZta/Rt+tStZh07GXWhO2JDQmJUiG0pIEpGd8zv8TE/IFodfsNoM/ki/JWdaj7Zr+NXmMrPhfb5xr+fu1Qd4rAembFZJUUZjWdluyThre9PR8Avc8NY35TSD4TpXhIVnbSWswc2w8q4Zk9p5uKwk3jD3+GQFFrnfai84U8IwcDBerYwe86yoHyzevrerOiJOSTLjcfSp4iID8mNtOL5YK20YCj45D2uRDam8MH3yprHK86f4cWWGrh88JaV7qa1qkGCduj3raYzKYl+RIIhIy45qMJnYVIuvCbLBusY3vqgNluSmcdha6pSE4oifbLvet3zP9x5fWvLlUx/9yPELv/+RQtrPZKJbCCEmbGvZ//yN3zz+7T/8+yn1H1v1fTz7tueP7337jeM/N0Y9/uIbj2/Noz71FW89fq951x91CkBkIk2CRaGKsV/H8yT86Xdwj1jBwsPK1j0Uox55cN8Zvo64tNVZ+OLcJThILtyr75vw6S/inEmTvgtrNu1Rrzt0rZAaU6P/vCxjJdQZTN3jtR78bHzWjfp2xi5lfKm6r/VGAytuFJrn6dP2Rq/O9HtTNxlV0Q/e6OdGiSth5/OJlWNoz9ipSCCa4OPerRpMm8YJt73ouFjypbvo0L8URehr18veYVQdyQ+XEG/TVgknQzHDE0xUXdQhYiAPww9iaapQ2/BgL5ma4AVD9TtUdok4YzLl7d8lN4/7KLxwpjKD5WIsLDqAHxy2Eqofkzf0qaubGExpo9ujJY8YJYfGFWfPC9tUcDZW8cptaWbPKfYW7dceGb4IdRcmh4twm8ExL0xRLkdvWw0vcULhe43/qk+b20U0IjDy5tQQqnCjkxO0+XyNnIOkylTvbpsRHgo2Y1CJOcOIh9JkkYLIyboHkQTDZuhAn+TbyYzcCbSZUnOxOrr0UAsnloGrcWGs+JmGW5aFDvOUfT6aQpNUUxsEGnAau+2zS6YV2S/CHnE/IbajxfSJAbekAs/lshZT+bd36t+bmlt9rJMUn/3snxw/+9FPHd/f/Oy1t3318ewHm7MNqdtvfkt7ZS8fb44of5hw/06npsvY8XJ2nehHWzJ5kgoUbCuX+hRyLczzGQO24qUykjRRbp6Hh7hWWderfSfIpAaTt2olhfB6C6ExARYSWsVk3fHe8FbVWewYSrhYdZlAXVBowid7ycNKADFovNs5tux+32Wr0Rt9xo8EhsdY9jQDZMWN/AFhwCfCTIDTiQktnhBeSatcUPzwQJibPPRI9pNgOBJl+OFx41XGgCfc2urauBiPGmcSMH/g4UlHvwd4m94ZftXnDWWnCfzWZocz+NCVwTAuu1jNIyKZV6QgwWeemqESleHltm1GHyvK4LPIor6X/YVPsMIDfowEWvO8vC5PjUbkAswMzOqDr7K86Ix3T7TH08tsS+p4fYqIhjeeshSKi2S8CoV+SlCiW+oZA5K1YGWDXo7WYdiikJ7Uz5xTsFS4chyEjkoqRROX9+XSfcfhagi9RTPO1xKNOipHtCOpRc4kFTkHkRnjcumJn/yZsH3oPDOnDhGP5m8FUz8RhuXrNVIBdhJWwmbhDgh6vqxrAGOqKQeIbqojICb4lSdQFhlg+nbV1CaJE5Lri5JtEUL1KTsPpchOjUfsBAWivGaPU8zIVB1jCjessEk7Y0SfwT3BCx8HbwlNXuoPs640fWIRA6uFAd5lYjrKGFxf295WWYoywSY44NZp11b01AWh8M6hvbCq+6ZzMA7Rwc5wyNY+ljfnrTbG714oh2tk7pnyGzeDuSuM85z1E4Nf4ChY2E7KI0jnZgSGIKZVvBOxBlMbF9ef9jdPmRI6t2mOvHr2UzIM8A/ceV4h67LbE6oeuDTaPwskclnhHrfzYM5a3jgzYyjBtQUU4W5fLBA34V8/iwzQqO9LvNTs5/BzH9zx/oYorGcvPBgzuk+hjeNRQTbfe1JvWmXVb4q3kJtne9A+2NZeFeBPTuwqWsPBT55clBk8SwyS7fisPTJnOMOz38/Ibr0yhSUD0S4NGSxCVNMyDCx+vpbcPOqQBY4B7YJ9U2h9epkcPnsViMTlS/FQ5OM9xpfbyWM/Mj15rM0psuvel0sGeV7K7/UzOxmEjICfnkzRYZIsdX86IPZf+FHsvjEshnVpbPNyNX4OkGNgHcoWS0gEW4pwxvkYdAcDQnPHb2R1vE/EmIWgERAv2qJQ19I4DLjVTwzXJq+0kw763C6TiEe57sW8rSWtnKys+pBITdbXw/VPGWcwuoPKAnmWlAGAu3fF8DBo8CgRiHhbweJhqBaQjpgyoKIAi0AWAvfYZQ4Xg2WEeVs9V2UKwUOZCtnm8BQbHRcqxjDhNAODiWi51UbBxVPry3ZoWXcn9rHLe/tZZSWw4OTI1VQxcAv7Ks9SC01n5X1PEYdfdXsLZyXzSgxjdbW36SB9B7ttgdu2FV3RZ0MW+BFuPAo35CXg8yDRWEb9apbeGGvTTCmxMR5vivm8EkNwsT+WEVqkgqbdlzQTkTwav4WQ81z1bopEPsSCCnAaBeGrJMvw69695n3PxROnsQu9OY0zoxpvyQfrUz+OcxHdWLo3RxN8cBSK+3eNwUpmLWSZ1NQP3RbpIPTkrXKMnd1X1iHwaN4gcDqXDAeVqP7Do0GK5Rlad9kCiNZgNMZ8ub4siSQHzhhG45GseyzLzvMCQ/CTK8oqG72rXWX8w/gRbuNHvOEI72YobtTWpas/8XMc1YRqXg1i3ZCGrugk3dTO9u4lFsJPiPBsFMOQQi+SUZVeSIwwxmguh0m5rkc4BH4BZpU1xmLxZFMVXbazPhGWgrGMFBnVCQmBIKEUPD2laxOgTTUEh7mslVelOkIg5c0BegO6pYYSBzcJTP1IPggxzjNzG1OFD7wc9Cy8ku2juMZ4FFnUMIuNCV3JRxcFVlBIRuB8Zfh6BL8+N32EwJUT4so8uubBgmmh5nB1szC1yhdGDJyEUFk0iRKrG4RTlJCLb0LM6Ff/DCl4lzwJH/DuNMZqPQ7gfg8/5fsbfrUqRAXywkX87RfD5ZLsGH59Dr/a5fHdq8NznDX8qhXvyBA+B8YU8EJeZDJEKRfb+vzGV7QiW9YZz8h0gwBvFVP96N5l+5puFuL2GxVBLWQXyYjsXNv43pPrj1SiNl+Y5z09mRqGfOpZCkrwzTszNDMagOmPx71fEq9i4wV8mVXDsNkJfSfzdgPd5pG7ZMNrOMPDixdZ8czx7mb92w1kUcZWLylUv06lcJln1b1IjyG92e/tjU03GJEhXR1DFMOidlOZS41BAbcBuFYQb0iclkclWo9hnm05X1+Nyayg2T2ABBRGsT48rXrqCAEWq2uz7+XF5o14HoRfyNN9qkt4EI+wyv4Jg4QCrnsJ3cKh7glXEFzYNfh6rjzLRRAeSYoJO3Ky7lVZHf0bJ1kEcC0tECVIsvBs9jreY+Ii3Nig7/6j1E7eIOQWHhinW0HELlIAhkJmEhxgshh9kUXlXbzbxkwxcYegRweh92CrLoMglGLhkQ89JBnAuUUQ2oym2peJh8wjoovGuZhqp805Lo5OASXjbDWXjCM6ojPBliDRx9rhxmEXrhJv13pmfbHjNSmuMfiFZ7rb1AevWPHBh6eEyhiL0pp3NhSpmQ1VDDFEHjLx5hIZFGOyE7+Us/uTt9qcR0fn6g8unRhfk7fuV7iWTl6iLV65Is2AmUGJvssyq9N99NsphBPGsz+GZPIWboyfaSQtXUUHsPd3EWkw/jUwx2XoQ6MYlMlb+EIUz+QLamredCsE+y7nY7hxv4hzSbz2Y+sL/zc8Iy+1dac+8Gztk9P+EsYzY959of5jnSXGob0azy2smNG+UtKJACAK971kRgJqbhJFbAXnLXZESI0K8TBLMkXCwlu8eaYX+g3hfj2wQrVZG7yhawal7951GWTNe/XRn19CZtYrOAeUNLulfHdSIO0BbfBFKOWEPJREyn/JkeptaqXnO7ys50vWULRCOssTZ5kROgEgEJsXDH6bljcm10ahDmYLAae4/V74WJl50nB/kqfq05ge43gVSQpn7xJCYbeQEKFd3vfK4GAM2glpjQVtlNaOa4JDSMJy7flGUKKpZAa+TPbwo9v6fbEjfOQCRDKm0hjECZLPaDT8ogPFYVh4W57CIhEC4yAC5YdfqBirWi74JCRqY/OStd2vXXYymbIxE3C38dpC3GCkfAtlwwcfGRiGYfgF92hTf7a5Gc6Mj+TtAbxX4gUDP3IFxw6Gq13vB8J3ITflmLxV5waN7HJ2lHEvRdOERSVmM055qxcEq5/HJT26btLWLqE8Pkze6pRREtYyLp+bB4f3A++mfYZp8lZ7ZE450ZJrydewGj0qK5lkscgZ2Zy6gn+mmSilxSNzUGgRiPRN2xvW9SmsFrHuyKBgejJZQYeb0UP+4MojVZqA9cmiybwJ28TpSzbUoLNkEFiaWehrwK43mdKd6heglJW19+5Mc2GbHoEQ4tQxjbXAwgIC4aMY32TwEyEIYOe4EjSvtLyXSXbvUtNIxgMEyGkB4EM8cDjRj8Cz5nsDXyCxok4KXAa2soSUDbRI+2WM7l5QT3CMGRlXi/zB7W9jUrBWjoKpu4UCxr1T3tYBt0bnAAAV3UlEQVQDo0MwN7JMUBJyitfvndsTo+4m9PBygDd4J7iVpRx3EnRvTEgM9zoHjPTuHqEOz2bM7zxf42rZVJ4aL/DEmJiXNfXkLYKUdUv0UoRXwvlMgiBhBK6OeT3z5LPm1eM1q7mpJDALOe+XFNH2/HB8o7wW/dv/69jOeTN07rLSxzjci7LvW5ubYElGzjOugKikbGewU3yvq2BwzC6QDUkqfBp+9b9TJasvSkDyc3WdEDnh3WIRxi5+hxs+kB8HsDG8jryhxEJMnvuRXM85Zi1yqr7naUUhqeSQsXfkj07k74lgmbyxkl2SQvcmg3WR4WPcdMdj59c39OHZbNxwXXFoQU8Ca0OnSDYZvFJyUD6IHLwSTi87+SQaiUK19Eq0n3EpkhNZebXk1Whjao/FsUIQnuNHONTs5GhZ/uA2xOsslEr8+M+8tjBUIwgUYzDcAgFeEUNYBA1QALQo8JilEHK+VB2KY7QhFKV3QgEv5JUlY30pmRVHWrH8TXmt8KIU42rE2IQ9QHvMCrJgxgBhuXpP9ADRbzarzQpJAhEayw9l/raiqTJO4Jftc6bRSawQrwWe1JjtlRSDYRAZUKgXIzIh2X7EiGf8wUAQNlZbosl5QYiqvugCkHcqy3gFoBqnYYFV914LTq9FJLjLNFfdeEe9iwUCYYYE9ZHopYCWJnpuBRMFxgPTRuNHtACLs7jHj5TrbvPlki/qUDTJm8T/9OzRxtJGNB1+Pd/JB3UpPGWQdM4A4LkxM6l2d/j1ideiF3SQVKQ8+hItwFp4iI9nSFe9PU/QCXa0mpHWdjTweydRBId5Y1OG6q6P2nah2/5qnUF2qj6vZ5klPm1ZYzBvHrfy6OePZ6IS5pUnnx1zK0Lzlj60EpKDu/8tIiSfO44lmOBMjs5dW6dCg4ucPmEhSvQRaZAfhhDOZAV/ZN85sZ1EkRzKezggwepA8mkdsnXVk/f63EkU1e91bmuLYluKy5iJUE/axo9A3RRhdRh+jkGfHMqc1RmOnOEFxTH+Cb5ZMBQhYDK08ws1Zknd1sJmHcKop109F6MLNYRmMpNCQSELYerfxrSyopY52JnAivdV1YUPvCLltLaT6DlpwYJullf9lzC5Q8Ffu5xXkEIPSAq012XWEL4IVURCdsdcDggCyJrV48LcS2UfL8cIltb8MXjgyvI9ynP1abG7EBns2jJ1I3wyJgWssKYqCWBQVt6QcgBWnoDYdihhM6FUpy6Mu8fw6lMiuM/TVNYOGv1b2uit34RoRqw6YAA/HpmnrPLo+2rjq4aVM5A8JxAkcWYca4uCtXCzatGsPkUeQmmU3Xrh+riYV2SAe3wqcl/mGKtzvbDsfmGYhfJDQvc9N1yQ2bzq0DHwBjejdDH8AQOFc2YS2pwLNxrbtrFblAtYTW5FXPjfMQitzgS3hzyoPaJ7zxF4E9SaWpIQbQZg9UVupE+WGIzEw0ukdqJ/CkMuGBz4Rv2cTqUzeiIlGWAwxpRsSY2BubaYItEk+XwpeWDYyBX6bHYEfGZD6nsruArRzKBQJH/yVONHcNzNaJMHMiYy4SkvS8D2THuPli8wfl/UgB/1T14ZJ1OH5IWjNO9c8eOLe9fU8/RmQHWrNittcBvolSD8lEKKe+66yizxjbIrbJD3xry2uEBduzaCqE4QlVD66Q+TTWxjEkG8EVgYZ20vIAmrrjmLeSPepWfeeCeRwzMCaPOueewnsqBCxeeDRbhsvMAqbef/2u9H9Vo3VbUq+4tIxuSXsmjOdEJIhCXATyJ6v18gqXCvuozwjlipjr2gmtC/awsQ+s0wsbgSQ57DFREtBVTyXKARHiohLrokDI87QbH2hXBo6/RFMrPTBcNJY6ZBanWN2vUBJoaCQdw4Ub8iBeVrQx2062Mw+ZRfuBduf/5umhOGtR88rzRlA7bNe1Z2+FVk+NW3aQ/vcrmTUl6KERQSX0xD3W+5jrDStdmD+taujPDjvEzfzQuD16snupPg1Tje1jclMG3D4A+/lGfetjbVcZ6z1UuMiXlb8jR5U7EL3Uev/Vh3NVu7/VaCQgj5RWo3Mt7a6nDcJTR5TSUvnMEKk7fu1VMr4BihM7mIB06j1L+19JyKaM6B6951g+l23aDLC5B8wD94Jr0Z+1oNBkpYrDRPLkcAxj/Fjr5YiMQhyF6TQ7MvIlVrn83VO60RQM9lGMjtFafR61sBhJ63SAYYPp4BgCNi1cTyxg1CWXVoHEuaFD1IstSg2zGAp/FnHtG6S2sjEcR4mTfY85Dh8k0+G79J3HgB8OUEdgoRwCy6zcSmYYyBZDTvX2r8ZpVRZWVbLeliSTc3mWUURj7cc/y1jUzPt1sEYBy2HTGN/ySFhG0OTCd8QiqE2Ta1rKikAetIqWowI3EySLa1ZjeewChRCfpQENFEorZQylrX+xkAGXJKZTy45WUxhM3ckrbaxw7CdinGmNKh8DaOb966fodEHW5Ddu0LadHnXlZPGGbMiBXWfLPkPLcuCQDGWyM92YJf/GC97QrhxT6HX2UXhsHDd5/1ceLHe6RQ8KltIehDGT5t+00m0Meik8sLCa0IMmxJWOuLUd94N96CfUmr2neO7whZGwBmzBmdqwk0b7VQN2MFnkCdvOjsNOANrWoDPoZfp7zFx75vb3A82ti1upO1OtpcdO1KEhkPRqrgLxtbM5Jp+C08ZjyhdM7rJof1g64SWngsP7MN8NUHgh0/zo82dmZoKZgcj1yHSEdoXJPxg7xdWeQju7ykVXXlxKLwIhGRWVWWI9kxQj2zvoEEFxembhnFq+//+dcsdrZfkiVgiViF61m5yuepIl6fNwJKAuTFBvKmgQAxISVUKYfkAkTtUlhICdHqLISMQJWa4HjBlOQOYVhGjBCErL4vxpyMhHk3Xp6Cs1hXetXlcfPFQtmUB2wPFIhCScNrH2korukdvwnZPEDASqlLAN3yWg/9x2ysEd7VfSFgqZdimucImD5qiwqzh4RxU0z9Mq5mETfOrp4QkNJe0ENjxptJGMovLJN4JYB7CXb4iCwW7laWYdrBAd037pZtFAafY+y7veWutitnjEtJrBDS98VZxYtKHhg6dDHNVOO10NXXSD+FMQ8uNH6u+nIPyvIYcL3bu1mvZlgZjuEXyXf6QQJ1Kd5unrY+JZVcaDOiVd84flFYt04nY5wfTSqnvCkxzyka78ZQkgmRljG0A7WdYnn9Tmm2ZGn41f4NY8jgfTF4hbMM+mkUQ6rnj8ZDtHcu9JUU4WqKQZ7uZLB5xMlb9eCxnEC1xIYu9wJ9Rr8TDRal2a4n6robzmRjhih6WEegPWoDZxGOVmZUKi9k1/5mK3rCSzLQFmwMPl4jWlPLEA6uMzK7XlJKdHnK2xkSsyJ4w7hbBANfcscpcpKv1tblK3/nPe+lmBuP1bHlgUsYYBDm9h9tv5tCmttiAngUCCDoNhs3npkQ9ntthZiOxfk6R0hjlIVztScBsrXGMWrZ4HB6NIERfjIWFkM4mMyuE0hQCONWDBWuYpl50dcRzJQCkbS5cUqIVmsnuoPFAc/65elYMEkQoRtl5DmErktgaRtxeaIUlBJhzcaftQ9+3vxM3pSdrH+KG7VG+J3oXvUNicIdw2UW6U9VN720+vV7cWDbIA0WHm0GzCe6hoN+rKASkqIzCbNKKAyUWCQgWy08ZHSMdwZzcAnF0IInFqEMv9oS4oYQwE7Bqy5vj0+8H+9sfK8v2X5G0fjwoYT6c/itPUoU3p5XluAxiEvswa82tTc5egCxNqcwyocb76xtUdKMT1HPxn/oEXyy9wR08qZMMOIn486wMyIURR+MzBJCwUae9DN5S1YYNzipi++WHjIUFMJpG4zhKQPxFu+1Gy3xRttkCS+siDL3TmkNr/Q5M115dBU5KK298SN4yZe+zGRQaNxDG30bq4NZfwQafanX8KtPIbto6Hp9cYVn5FfxKz/xs3WRUQ54cb9OeLiXA/bOtlyh2ckAIdSIXHnIKHedNylF/bzyNUz4EAaB1HMhGIs+wlZHCEJAhQUUm8Jh4izhg3s9jTh5vojnrV8v9klYCVuARpQahmT1EfHib2PmftrNsb6zuEIz62vVXfhLoBNClnPhaf0zQoQMYXhm009XMiKPZ/lle40hCP82DdS+7DGVng0LHxEC4sOD4O1Ewfq7VlIJ5Nu/GUDWprr2aohgx2Dt/7lVZ+yCJWWz0OByBhRc248K/yi741mi54YR2ojehCTCn/ilSJIqVGRJO7AGH0Ecfj0ffv3eipvqP5dYiCQsmKAkhj68lPoMhi1+w692T/wiVG3Ok1Tu3L97LhBw/xa+ZHTBeF6GS31nOMhYj9EuNI+r5SVeLpKwBZEB7tGpcPGQgIPlQgavb0xnF1Z07tn+i85bf46W9c35kMHYEOWTt36HxClv1SDnay+5cOGBOi6RCA45zIBsXlwbGgXfFp7op/Zqanzf5gOI1CFs4adPf6YPDQl6EfN084zeFD0jQbuYrO57OefoZEtvHeRNnytp+kj9L9KqTTkiepRhruE6N93hBVbbZUIpuPoQMl0iRLtF4Al65TfOCmaJmftcSuVZSsQSGvMuxmAyeDwR4REqA9K8kxh/3jrWOM0Q8ov5q+PdKQDb+lwI+177E+wsGeG93KBff5YaWtFkjCHMQsEt/s+InNMnJ9EuZXju8C5dTsa43MDBiqMgnhXDLPOWzi/iZVlErvGVDIUznExvsXxjesLLWzM+GIseQp+FQv0WlvM0p3cs2xhMPPtrszAqZECC9yqBIEzhPl6vTibJ756/El1NJ+00RH3372qMfSziYugtdAsGzfZtwjv6T1hS8G6+lhBQUIJrDPVydDMWu8iQLtHB7ET3e16x0kXYTOajqZMZDW+GX/fhL+KwvlvkhOZyH+CvKx2eNIp+V+EMv+DkWYznYteGC8OvTLcpIkez7FUd8KveY5U1ZXYr2sOMd3E2ryWm9jajO+NGiSHumW1zk7faExlM3uL5/RjnzCb5Ah5NBUOtOjrlrfKLCoLbGDdvtQUnTL159DO6S/l6bvbEOVEOOueJhasua+Y1bdscBOdVe7ZdXt16TERXdtQGf4rLay5/gx/RQ8grenAYhCGgOdybGSq5FklVvFbHNj/O5dLln/zFJCNtbsxgzssYkIV9HeJ337wXJ8pCj6V1Kpwx/wnAsaUyN/qJsS9EyGpuWZx29ib1blyRUa49gs0Ly44mSu1KOS0PYWPRGIkJTEgIJxE7qZ6gEQjPfW4taHXsP9Sj97m6/xzCpODbLhcut9dP4V7P4mQLFOBT2f6MKV2E3tIvSsmTgQWsBI1SEN5Z0erzfkJ8YzA0sIlBcfLjknhSd2O26m+XRxBSHMy0QAINHn7Qhykz8HvpEVxlE7ux+prcpoDqbUFCTb+UZpgWulY203JK27Uu+jNW4qnO1UPC/VoInlrMEJ8MH37wr3/30Wz4RTOh+LxNdZwGiI636g9Ow6/nlm+uv75r3oINGDgDS+TE6BkjmubTN0UZfikVQ3wn+PT5SGM4WfPJW2XtQkJu+1EZCRHRjCC66ENn8cKQiOCf85pnjkX/11jV8NqCjT7H4/qZkPd5ylvlM0LktCp1l7z1GUSjASNLTBkEhgs8ohLwqo/3z5PX4HvSHE7Xc6SkciINl+kbcOwMpr4uklGgezvbquYYMfSSJRo/VOwefvyFHN6zzeFzlGS8ikU00bPyHKShT4WzIMKyCLrwqluURAi4Z1mfEbGfS797Tpli6Ln/MsFk+eA2ARLmVgbidShc1JHM4ekJe9RvHv1SqwEQXKbPn/oysQI6QsZTQtS5tgyEhRGbD8xTLXHSPdNN5s9YfdMFlt8ZV0j+MBQsmjIPEfbAhKcs4AbzKVC1ais4CU1lXZIQ5sgsJieI1pxadmcVkhBbMmKrsFJmTLZizAqu27KCEVZGWj/IgKawZBBGl/ph9Fzjc9+3SCDcjItdws4JaC2gBesvPGTFWHdZ4SsJKboKcqiFMfNOJKiskxIYKRYaLPBHtyrXegai7wTEdIvthhZMgBGtwevkh3Mt7FnfPLxoTFbdSSIXIeSpjvjZ8CSYHbVDOIcFkQgGF5g3VEr4AmbjcZIu0bUhEjxWKZgnb2dYecrbSQt9WrccmDuxAtZkRzv2XbsWcnaLwlqc4N1BLqGsb7LhG3L0/WpGWkR1sSiB0dg6gsraLOJyBtnkrfbIB2/uv3sNtYzfF7GEs1kGQywRweQt+mVeFoFph5fktdEBHuMHncnBgF/kJ3v9QvRn2Ck1WF7hSPuOpvO0x/vysEOlViOmkxrmKSsk3HNym/BTKOT+xan2hJEQLZFUC/pNDGMqMCOjGxFrWUzWu87PrUhQMsYjgDVBQShpQoMTLCIE3FvSAuExFdCehzCG76/7kHA5bnQD++4t8VATdXLWC47JQvVvVNd64ufr1kqiHRkSzIyJaaGKnMoxwcxTR5PLJbd40ilT9YVlizjC4V7JMMYMQZcwCE/f0cfYT6QCdvt1CYZnxv7gt1Ya/ZY4g3N19tcztEUHa2cx7IXoskX10ZVAOypFM5TONfyCmeeXCzBvSNi3lHZCQuAUDAbGLXxFNNeqY73udo30XSFDF9GFk/8lFR2VA67hV5vgveAPz58Mt63s3Ijg/rxS8JKbwYc2o0sF4YnHcgw5iRsZOGANv5TgkQwuYxWUwxsv7Z5Zn8GH3y+XMwELfD4nb+hR38ROKEt24LCVUt2TW2Bs3XNxChoYXIMJa05ZQsvPjVnBqX9Axq8tLY0mPOOGM7XHsaEZ3q5e3xdpRRj7m60Ce76FI0Jep13ChzdnNO2BVfUcol06Xl8dadWHvXupPnlVw0W5HJBfMeZjpc/xWmPZCmgQoVkCwBvQL9vYb15JQmUrMMip+hMCSDV+qBPJg9tZBq9wvCG5EyI2tK/DBJBHMH5K8uatvNuGMlAEmWLM4nEQl0DZ2eDgah7WmI5AIJh5N8kyMG6EWh3zfmN62WHKvRP/Y/LOzO33a61PvsXyRgQnBAqHGY67tas/ZiOUss6YEItr065/HjwnO+LfKUli8TxP7hxZY9Ltr6yut9Q5nM1KF6Hczvntvu+OHTGHh0O2Jdp2tcildjbmhVsu2L1tMK/eK1ZC1be5PgsA8ATNEdN0lrXIFBpTLV2UQZXwcYyLPaeW6fHM+CdpaJfSEoDdE1kI68GyREz0QNtNhy2CKMkWHsOPMQluezwt5HfSzPAL3827tqiFYTr3t+Yd4FcfZMvqsrsp453AvhoO4HoluCiLaawpVzSwmdxyS4Zunj7YtNfP5K0UU/DfayhgZwxYqroVdU79EArLFdzoMHlZcjTY+vdoeBc9W4utvNDaZhBHGokQDVVizYzb5K2y5Hfv+w0fbwxg4K2FhjPeWi9gjB6QgVF4n4xbhit6ki22sOd2dTerkWLeqgznYGzNz5P/zcVG49iXfgRPckvphdCmjF4IqM8nH+nW3kJRnRf7/v8Brd4OGIH/C7gAAAAASUVORK5CYII=;" parent="1" vertex="1">
            <mxGeometry x="829" y="450" width="236" height="77" as="geometry" />
          </mxCell>
        </UserObject>
        <UserObject label="AB2 Gallery" link="https://ab2.gallery/" id="gHTo8Egn2OixE67H1dD7-11">
          <mxCell style="rounded=0;whiteSpace=wrap;html=1;" parent="1" vertex="1">
            <mxGeometry x="887" y="569" width="120" height="60" as="geometry" />
          </mxCell>
        </UserObject>
        <UserObject label="" link="https://ab2.gallery/" id="gHTo8Egn2OixE67H1dD7-12">
          <mxCell style="shape=image;verticalLabelPosition=bottom;labelBackgroundColor=#ffffff;verticalAlign=top;aspect=fixed;imageAspect=0;image=data:image/png,iVBORw0KGgoAAAANSUhEUgAAADgAAAA4CAYAAACohjseAAAK0mlDQ1BJQ0MgUHJvZmlsZQAASImVlwdUU9kWhs+96Y0WQDqhN0E6AaSEHnpvohKSQEIJMQURuzI4gmNBRQSUER0EUXB0BERUxIIFUex9ggwK6jhYsIDKXOARZuat9956e62T860/++yz9805d+0AQPFjCYXZsBIAOQKJKDrQh5aYlEzDDQAigAEOWANHFlssZERGhgLEpue/24c7AJqYb1pPxPr37/+rqXC4YjYAUArCaRwxOwfhDmQMsoUiCQCoOkQ3WiwRTnA3wqoiJEGEZROcMcXvJzhtktH4SZ/YaF+EdQDAk1ksUQYAZHNEp+WxM5A45CCEbQUcvgDhfIQ92TwWB+FWhGfn5ORO8G8ImyP+QgAoZITpaX+JmfG3+Gny+CxWhpyn6po0vB9fLMxmLfk/H83/tpxs6fQepsgg80RB0ciM/JrQvazcEDkL0sIjppnPmfSfZJ40KG6a2WLf5GnmsPxC5Guzw0OnOZ0fwJTHkTBjp5kr9o+ZZlFutHyvdJEvY5pZopl9pVlxcp3HZcrjF/BiE6Y5jx8fPs3irJiQGR9fuS6SRsvz5woCfWb2DZDXniP+S718pnythBcbJK+dNZM/V8CYiSlOlOfG4fr5z/jEyf2FEh/5XsLsSLk/NztQrovzYuRrJcjhnFkbKX+GmazgyGkGQSAS0IA/sAeOwAFwJNx8yUQRvrnCJSJ+Bk9CYyA3jUtjCtg2s2n2tvZ2AEzc26mj8Pv5yfsI6WjPaCw35MhfRcS1M1qONQAn0pAr6DSjmecCQO0F4LSELRXlTWnoiQ8M8kZQBKpAE+gBI2COvBnsgTNwB95IlsEgAsSCJLAAsAEP5AARWAyWgdWgCJSAzWA7qADVYC+oA4fAEdAC2sEZcAFcAdfBbfAQyMAAeAmGwQcwBkEQDqJAVEgT0odMICvIHqJDnpA/FApFQ0lQKpQBCSAptAxaC5VApVAFtAeqh36GjkNnoEtQL3Qf6oOGoLfQKIyCybAqrAubwnNgOsyAQ+BYeD6cAS+CC+BCeCNcDtfAB+Fm+Ax8Bb4Ny+CX8AgKoEgodZQByhpFR/miIlDJqHSUCLUCVYwqQ9WgGlFtqC7UTZQM9Qr1GY1FU9E0tDXaHR2EjkOz0YvQK9Ab0BXoOnQz+hz6JroPPYz+hqFgdDBWGDcME5OIycAsxhRhyjC1mGOY85jbmAHMBywWq441w7pgg7BJ2EzsUuwG7C5sE7YD24vtx47gcDhNnBXOAxeBY+EkuCLcTtxB3GncDdwA7hOehNfH2+MD8Ml4AX4Nvgx/AH8KfwP/HD9GUCKYENwIEQQOYQlhE2EfoY1wjTBAGCMqE82IHsRYYiZxNbGc2Eg8T3xEfEcikQxJrqQoEp+0ilROOky6SOojfSarkC3JvuQUspS8kbyf3EG+T35HoVBMKd6UZIqEspFSTzlLeUL5pEBVsFFgKnAUVipUKjQr3FB4rUhQNFFkKC5QLFAsUzyqeE3xlRJByVTJV4mltEKpUum40l2lEWWqsp1yhHKO8gblA8qXlAdVcCqmKv4qHJVClb0qZ1X6qSiqEdWXyqaupe6jnqcOqGJVzVSZqpmqJaqHVHtUh9VU1BzV4tXy1SrVTqrJ1FHqpupM9Wz1TepH1O+oj87SncWYxZ21flbjrBuzPmpoa3hrcDWKNZo0bmuMatI0/TWzNLdotmg+1kJrWWpFaS3W2q11XuuVtqq2uzZbu1j7iPYDHVjHUidaZ6nOXp1unRFdPd1AXaHuTt2zuq/01PW89TL1tumd0hvSp+p76vP1t+mf1n9BU6MxaNm0cto52rCBjkGQgdRgj0GPwZihmWGc4RrDJsPHRkQjulG60TajTqNhY33jMONlxg3GD0wIJnQTnskOky6Tj6Zmpgmm60xbTAfNNMyYZgVmDWaPzCnmXuaLzGvMb1lgLegWWRa7LK5bwpZOljzLSstrVrCVsxXfapdV72zMbNfZgtk1s+9ak60Z1nnWDdZ9Nuo2oTZrbFpsXs8xnpM8Z8ucrjnfbJ1ss2332T60U7ELtltj12b31t7Snm1faX/LgeIQ4LDSodXhjaOVI9dxt+M9J6pTmNM6p06nr84uziLnRuchF2OXVJcql7t0VXokfQP9oivG1cd1pWu762c3ZzeJ2xG3P9yt3bPcD7gPzjWby527b26/h6EHy2OPh8yT5pnq+aOnzMvAi+VV4/XU28ib413r/ZxhwchkHGS89rH1Efkc8/no6+a73LfDD+UX6Ffs1+Ov4h/nX+H/JMAwICOgIWA40ClwaWBHECYoJGhL0F2mLpPNrGcOB7sELw8+F0IOiQmpCHkaahkqCm0Lg8OCw7aGPQo3CReEt0SACGbE1ojHkWaRiyJPRGGjIqMqo55F20Uvi+6KocYsjDkQ8yHWJ3ZT7MM48zhpXGe8YnxKfH38xwS/hNIEWeKcxOWJV5K0kvhJrcm45Pjk2uSRef7zts8bSHFKKUq5M99sfv78Swu0FmQvOLlQcSFr4dFUTGpC6oHUL6wIVg1rJI2ZVpU2zPZl72C/5HhztnGGuB7cUu7zdI/00vTBDI+MrRlDPC9eGe8V35dfwX+TGZRZnfkxKyJrf9Z4dkJ2Uw4+JzXnuEBFkCU4l6uXm5/bK7QSFglli9wWbV80LAoR1Yoh8Xxxq0QVaZC6pebS76R9eZ55lXmfFscvPpqvnC/I715iuWT9kucFAQU/LUUvZS/tXGawbPWyvuWM5XtWQCvSVnSuNFpZuHJgVeCqutXE1Vmrr66xXVO65v3ahLVthbqFqwr7vwv8rqFIoUhUdHed+7rq79Hf87/vWe+wfuf6b8Wc4ssltiVlJV82sDdc/sHuh/Ifxjemb+zZ5Lxp92bsZsHmO1u8ttSVKpcWlPZvDdvavI22rXjb++0Lt18qcyyr3kHcId0hKw8tb91pvHPzzi8VvIrblT6VTVU6VeurPu7i7Lqx23t3Y7VudUn16I/8H+/tCdzTXGNaU7YXuzdv77N98fu6fqL/VF+rVVtS+3W/YL+sLrruXL1Lff0BnQObGuAGacPQwZSD1w/5HWpttG7c06TeVHIYHJYefvFz6s93joQc6TxKP9r4i8kvVceox4qboeYlzcMtvBZZa1Jr7/Hg451t7m3HTtic2N9u0F55Uu3kplPEU4Wnxk8XnB7pEHa8OpNxpr9zYefDs4lnb52LOtdzPuT8xQsBF852MbpOX/S42H7J7dLxy/TLLVecrzR3O3Ufu+p09ViPc0/zNZdrrdddr7f1zu09dcPrxpmbfjcv3GLeunI7/Hbvnbg79+6m3JXd49wbvJ99/82DvAdjD1c9wjwqfqz0uOyJzpOaXy1+bZI5y072+fV1P415+rCf3f/yN/FvXwYKn1GelT3Xf14/aD/YPhQwdP3FvBcDL4Uvx14V/a78e9Vr89e//OH9R/dw4vDAG9Gb8bcb3mm+2//e8X3nSOTIkw85H8Y+Fn/S/FT3mf65azRh9PnY4i+4L+VfLb62fQv59mg8Z3xcyBKxJlsBFDLg9HQA3u5H+uIkpFe4DgBx3lRfPWnQ1H+BSQL/iad670lzBqC2A4CJlivKG4AqZJghrIxo4QjHegPYwUE+/mXidAf7qVjKSM+OPzw+/qYQAFI7AKOd4+Ojg+PjX0uRZJF+p31gqp+fMEMFAJwUJ+jR7kLwT5vq9f9S4z9nMJGBI/jn/CdtYxYIrdNS7wAAAFZlWElmTU0AKgAAAAgAAYdpAAQAAAABAAAAGgAAAAAAA5KGAAcAAAASAAAARKACAAQAAAABAAAAOKADAAQAAAABAAAAOAAAAABBU0NJSQAAAFNjcmVlbnNob3Rg5DbMAAAB1GlUWHRYTUw6Y29tLmFkb2JlLnhtcAAAAAAAPHg6eG1wbWV0YSB4bWxuczp4PSJhZG9iZTpuczptZXRhLyIgeDp4bXB0az0iWE1QIENvcmUgNi4wLjAiPgogICA8cmRmOlJERiB4bWxuczpyZGY9Imh0dHA6Ly93d3cudzMub3JnLzE5OTkvMDIvMjItcmRmLXN5bnRheC1ucyMiPgogICAgICA8cmRmOkRlc2NyaXB0aW9uIHJkZjphYm91dD0iIgogICAgICAgICAgICB4bWxuczpleGlmPSJodHRwOi8vbnMuYWRvYmUuY29tL2V4aWYvMS4wLyI+CiAgICAgICAgIDxleGlmOlBpeGVsWURpbWVuc2lvbj41NjwvZXhpZjpQaXhlbFlEaW1lbnNpb24+CiAgICAgICAgIDxleGlmOlBpeGVsWERpbWVuc2lvbj41NjwvZXhpZjpQaXhlbFhEaW1lbnNpb24+CiAgICAgICAgIDxleGlmOlVzZXJDb21tZW50PlNjcmVlbnNob3Q8L2V4aWY6VXNlckNvbW1lbnQ+CiAgICAgIDwvcmRmOkRlc2NyaXB0aW9uPgogICA8L3JkZjpSREY+CjwveDp4bXBtZXRhPgqrp8CyAAAI0ElEQVRoBe1aaW9UVRh+us60dKOltJ1SSltKFwg7Aq6AUYxGo4l+kA8mhr9gonwz+kGIfvAPGIyJwYQPJgYVgkKERgqCgJaylLaUpQtdoPt093nm9Mp0ejv3zkARm77J5E7vnHPu+5zn3c57GzM8PDyBOSyxcxhbANo8wP87w/MMzjP4hO/AvIk+4QQ5qhfvOCLKAeMTE+j1D6LHP4DeIT/8oyOBlbzxCUj1eJHqTUKaJwmxsbNrRI8UYA8BtfXex6XW27jc1ozGrnY08+/2gX70DA8FAKYmerAoeQF8qekoXpiNihwfVuYWIDctA2kE/ajloQFOkKm+YT+a79/DmVv1OHDxNH652QB03wNGyNrEuL3OMTFAQiKQnoEdS4rw7prN2Fy4HL70zADDMfr9EUjMw9SiY+PjNL9BHKu7hL2//YQLN64DgwPRqUX2VhWW4MPnX8HL5WsCIONj46JbK2hW1ADlY/Udrfj82CF8fa4KoHlibIyMRVm7i7E4AvImY9e6Ldiz43Usz85D3EP6aFQARwjkTNN17Dl8ENWNdcBAX/TAgnY78DWGQSc5GRtorvteeRtblq1AYnz0nhQxQDF3qvEaPj76PX67WkPmJk1SO51ABhKoTCzZEJFiUx+aMoZHzb3ESWXF9gg/MwlNdmtpJT596S08U1weNZMRAZTPNXS2YffBr1B9/coDcFLSkwCULwUWZwApjIZSvt9vAPbRfGsYeMYJtqIQiOdG9HJj7pF5jRkapnnbBCOC3FBchv3v7Ka55iIan3TNvaKlAsoXx380ZmkxZzEggKVLCGCZAdhPUN39htVLjYZBjc1IAYryjL/5mTqa2oC/CL6PgLUBwUK/PnejDp/9+gO+fPM9pCcl0zgii66us6xSwfG6Wuw/W2V8LlgR67vMLy2ZJio/8gI5mcAomWxsNcCy0giI38WeFPV6uCn5wFPlTBcEbieMygfOV+PIlYuBgsFuSLh7rgG2MK8pFQR8Tn5lJ1I68OGPcVxaptjSSSZpihvKgI0EMkDW7t43pquxcdyUPG6EL8vMDV1XzyKTe08eRnN3F117hmeHzpv82xVAmebZWw04T3MJpIIZFptyW8rLTGWCCv+rioDKZUAiTfkui4BB+p4lHjIp01WQspPxMdQ21aO6qY6lH9eMQFwBbOvtxoELp00Sn4k9u4e2dpFBfvIXkSUyJJMtzDG+2dkzdYbMWxthJ5MsfnuhGq09ZD8CcQXwcusdHCGDEYlSw59XaXactW6F8Uulj7Wl9D2WaNfvmPRhLaoA47B5J243oablljXD1dURoKJnbRuVUW3pVgRO7N1uf+Bf1txcMrkkG+jqBTq7DUiNVypRrgwn1EFF/PhM9a3NXEeA8j+dCjDCXOVWRqlw7Q3DmlKCGLNE6aQo1+RN+afAKQhpQ/Q9nPDI1UBdugfd+6EjQDm1jjyOD7cUk5IDDCAX64FF6WRrsQFq/S4z1T0f/bKxBeggizWNZDPEJ63xwVdak3TpDs3BwWNCvjsC7ONhtcPNCUHRW+D8ZLqOftLDJF/iA1KZF0MlyQuUFTAfkolz14wpywdV5in6hpFO6tJPndwKVwwvQ6Oj6J08rIYdKXD9zHHtZFuVSc5CAmRlk8QUECxK/EofzR3Mk9zfNpqmIqzShDbnDu8P6RypHZsuPXSVoTEHXw2a5ggwaGz4r1JIvlTPh9+kb+1YT/aSps4RuEsEX1VjgoxMVZVN2VKmEoIUJvniib8YcAjyEYgjQA+PKmozuBL5npK4AokSu2cyuEhZ+drvBHbzLpCZCry4wWzAN0dooryXTX9NoTnnZrJgJ/utrIC0ISGSxi6AR9WPS3EcmcIG0SIWuY4iHxIImalOFVJW/iRWr9En5WvyS/ne+jKT9LXo6hITcTVXc1TeZXED2rlRNgCzqMsC6uRWHIOMGkG+1IypkdBudZ3vmrnr8kUFF/mTWKj6Gzh23oBfQzDb1pk8GKhc+HgxreK8jYAss1SktQs2vCdd0nnqdyuODKaytVeUycSsBlG46BU4vBJkJhnISAPO1NLfbpjCegF3fNtaYFOFiZSWdirIC+iHOkOqAL9PtheSPR2z7M6HCQkozsrmsSnEt631bK6ODKq7VZmTz+MM/cKNtNPUvjkMHL9gGFV0fG41mSo2iotVnSgsEXvrV5jTRz0rJh2AVb8yek+TtIWoWOzjmdBR7X+nuhpZkZuPnUupoBuR3yi/yZdK8oCtlSZwKJHLH2W6ob4lFhVcVNmcJvMyVZss8UJ+IVbl0YcjEFcAc9ikVd8SCjZ2vqEHKnKKLdWZFQwym8oNM5k0V6WQkUlGFtC8koJKN83V4ViVjcxcaSLUPPVMxoJda7cEGsSa4lYcfVALyQ83FhRj3bJSnGcPdJr5CIASugKGErxABFclFhvahGSOU8QVYB2PFJTEbBcZJo5p7EoB9kdXLi1hh215xN1vVwzqGXn0wY9eeJU7acOidlinASkp01TwCBVLeVU6GidfU+tC6eDQKeDsVVPBTJvHiWRPDWFfehb3QAu5F1cMarmURC+2s433/sZnsf+Pk1Swd+pT5Fd1DBI9VFq5TuWXEr1l0mJRY3Sy0GaoglFq+LvBgA01S2t1usW7bATvnOx2W7fdXl0DVDSVqX6w/TVcZkd7WttQTxQA+ZDCvfxMPqmPQMmM/QweAqc0MMhIqmCioCOTtRO1DQtLsefFN/g2yhtxR01LRtQX1YQZG7/6MVRkrsEmK5a0CboKcDghuKeXV+KTlx9j49fSZ0637i2Q016+6JTN7pcjM9YCoVf56pPy8sXSzXp99uu1Guw78fPcen1mgTQtfT/UGNYL0O/YXjyqDpyaVC5fgG7nC9BdT+ILUAukdXV6hT3O+is9wYNsvsLO4ytrvcIu5yvsVbP4CjviKGqBcbrKR23/CYGHVZ3n9CJFR7FICmenZ9r9PmsA7R72X9yzqan+CzVm75nzAGdvbx/PyvMMPp59nr2nzDM4e3v7eFae8wz+A/ynxcJEnTmzAAAAAElFTkSuQmCC;" parent="1" vertex="1">
            <mxGeometry x="827" y="569" width="60" height="60" as="geometry" />
          </mxCell>
        </UserObject>
        <UserObject label="" link="https://www.algogems.io/" id="gHTo8Egn2OixE67H1dD7-13">
          <mxCell style="shape=image;verticalLabelPosition=bottom;labelBackgroundColor=#ffffff;verticalAlign=top;aspect=fixed;imageAspect=0;image=data:image/png,iVBORw0KGgoAAAANSUhEUgAAAN8AAABLCAYAAADwDlJ5AAAK0mlDQ1BJQ0MgUHJvZmlsZQAASImVlwdUU9kWhs+96Y0WQDqhN0E6AaSEHnpvohKSQEIJMQURuzI4gmNBRQSUER0EUXB0BERUxIIFUex9ggwK6jhYsIDKXOARZuat9956e62T860/++yz9805d+0AQPFjCYXZsBIAOQKJKDrQh5aYlEzDDQAigAEOWANHFlssZERGhgLEpue/24c7AJqYb1pPxPr37/+rqXC4YjYAUArCaRwxOwfhDmQMsoUiCQCoOkQ3WiwRTnA3wqoiJEGEZROcMcXvJzhtktH4SZ/YaF+EdQDAk1ksUQYAZHNEp+WxM5A45CCEbQUcvgDhfIQ92TwWB+FWhGfn5ORO8G8ImyP+QgAoZITpaX+JmfG3+Gny+CxWhpyn6po0vB9fLMxmLfk/H83/tpxs6fQepsgg80RB0ciM/JrQvazcEDkL0sIjppnPmfSfZJ40KG6a2WLf5GnmsPxC5Guzw0OnOZ0fwJTHkTBjp5kr9o+ZZlFutHyvdJEvY5pZopl9pVlxcp3HZcrjF/BiE6Y5jx8fPs3irJiQGR9fuS6SRsvz5woCfWb2DZDXniP+S718pnythBcbJK+dNZM/V8CYiSlOlOfG4fr5z/jEyf2FEh/5XsLsSLk/NztQrovzYuRrJcjhnFkbKX+GmazgyGkGQSAS0IA/sAeOwAFwJNx8yUQRvrnCJSJ+Bk9CYyA3jUtjCtg2s2n2tvZ2AEzc26mj8Pv5yfsI6WjPaCw35MhfRcS1M1qONQAn0pAr6DSjmecCQO0F4LSELRXlTWnoiQ8M8kZQBKpAE+gBI2COvBnsgTNwB95IlsEgAsSCJLAAsAEP5AARWAyWgdWgCJSAzWA7qADVYC+oA4fAEdAC2sEZcAFcAdfBbfAQyMAAeAmGwQcwBkEQDqJAVEgT0odMICvIHqJDnpA/FApFQ0lQKpQBCSAptAxaC5VApVAFtAeqh36GjkNnoEtQL3Qf6oOGoLfQKIyCybAqrAubwnNgOsyAQ+BYeD6cAS+CC+BCeCNcDtfAB+Fm+Ax8Bb4Ny+CX8AgKoEgodZQByhpFR/miIlDJqHSUCLUCVYwqQ9WgGlFtqC7UTZQM9Qr1GY1FU9E0tDXaHR2EjkOz0YvQK9Ab0BXoOnQz+hz6JroPPYz+hqFgdDBWGDcME5OIycAsxhRhyjC1mGOY85jbmAHMBywWq441w7pgg7BJ2EzsUuwG7C5sE7YD24vtx47gcDhNnBXOAxeBY+EkuCLcTtxB3GncDdwA7hOehNfH2+MD8Ml4AX4Nvgx/AH8KfwP/HD9GUCKYENwIEQQOYQlhE2EfoY1wjTBAGCMqE82IHsRYYiZxNbGc2Eg8T3xEfEcikQxJrqQoEp+0ilROOky6SOojfSarkC3JvuQUspS8kbyf3EG+T35HoVBMKd6UZIqEspFSTzlLeUL5pEBVsFFgKnAUVipUKjQr3FB4rUhQNFFkKC5QLFAsUzyqeE3xlRJByVTJV4mltEKpUum40l2lEWWqsp1yhHKO8gblA8qXlAdVcCqmKv4qHJVClb0qZ1X6qSiqEdWXyqaupe6jnqcOqGJVzVSZqpmqJaqHVHtUh9VU1BzV4tXy1SrVTqrJ1FHqpupM9Wz1TepH1O+oj87SncWYxZ21flbjrBuzPmpoa3hrcDWKNZo0bmuMatI0/TWzNLdotmg+1kJrWWpFaS3W2q11XuuVtqq2uzZbu1j7iPYDHVjHUidaZ6nOXp1unRFdPd1AXaHuTt2zuq/01PW89TL1tumd0hvSp+p76vP1t+mf1n9BU6MxaNm0cto52rCBjkGQgdRgj0GPwZihmWGc4RrDJsPHRkQjulG60TajTqNhY33jMONlxg3GD0wIJnQTnskOky6Tj6Zmpgmm60xbTAfNNMyYZgVmDWaPzCnmXuaLzGvMb1lgLegWWRa7LK5bwpZOljzLSstrVrCVsxXfapdV72zMbNfZgtk1s+9ak60Z1nnWDdZ9Nuo2oTZrbFpsXs8xnpM8Z8ucrjnfbJ1ss2332T60U7ELtltj12b31t7Snm1faX/LgeIQ4LDSodXhjaOVI9dxt+M9J6pTmNM6p06nr84uziLnRuchF2OXVJcql7t0VXokfQP9oivG1cd1pWu762c3ZzeJ2xG3P9yt3bPcD7gPzjWby527b26/h6EHy2OPh8yT5pnq+aOnzMvAi+VV4/XU28ib413r/ZxhwchkHGS89rH1Efkc8/no6+a73LfDD+UX6Ffs1+Ov4h/nX+H/JMAwICOgIWA40ClwaWBHECYoJGhL0F2mLpPNrGcOB7sELw8+F0IOiQmpCHkaahkqCm0Lg8OCw7aGPQo3CReEt0SACGbE1ojHkWaRiyJPRGGjIqMqo55F20Uvi+6KocYsjDkQ8yHWJ3ZT7MM48zhpXGe8YnxKfH38xwS/hNIEWeKcxOWJV5K0kvhJrcm45Pjk2uSRef7zts8bSHFKKUq5M99sfv78Swu0FmQvOLlQcSFr4dFUTGpC6oHUL6wIVg1rJI2ZVpU2zPZl72C/5HhztnGGuB7cUu7zdI/00vTBDI+MrRlDPC9eGe8V35dfwX+TGZRZnfkxKyJrf9Z4dkJ2Uw4+JzXnuEBFkCU4l6uXm5/bK7QSFglli9wWbV80LAoR1Yoh8Xxxq0QVaZC6pebS76R9eZ55lXmfFscvPpqvnC/I715iuWT9kucFAQU/LUUvZS/tXGawbPWyvuWM5XtWQCvSVnSuNFpZuHJgVeCqutXE1Vmrr66xXVO65v3ahLVthbqFqwr7vwv8rqFIoUhUdHed+7rq79Hf87/vWe+wfuf6b8Wc4ssltiVlJV82sDdc/sHuh/Ifxjemb+zZ5Lxp92bsZsHmO1u8ttSVKpcWlPZvDdvavI22rXjb++0Lt18qcyyr3kHcId0hKw8tb91pvHPzzi8VvIrblT6VTVU6VeurPu7i7Lqx23t3Y7VudUn16I/8H+/tCdzTXGNaU7YXuzdv77N98fu6fqL/VF+rVVtS+3W/YL+sLrruXL1Lff0BnQObGuAGacPQwZSD1w/5HWpttG7c06TeVHIYHJYefvFz6s93joQc6TxKP9r4i8kvVceox4qboeYlzcMtvBZZa1Jr7/Hg451t7m3HTtic2N9u0F55Uu3kplPEU4Wnxk8XnB7pEHa8OpNxpr9zYefDs4lnb52LOtdzPuT8xQsBF852MbpOX/S42H7J7dLxy/TLLVecrzR3O3Ufu+p09ViPc0/zNZdrrdddr7f1zu09dcPrxpmbfjcv3GLeunI7/Hbvnbg79+6m3JXd49wbvJ99/82DvAdjD1c9wjwqfqz0uOyJzpOaXy1+bZI5y072+fV1P415+rCf3f/yN/FvXwYKn1GelT3Xf14/aD/YPhQwdP3FvBcDL4Uvx14V/a78e9Vr89e//OH9R/dw4vDAG9Gb8bcb3mm+2//e8X3nSOTIkw85H8Y+Fn/S/FT3mf65azRh9PnY4i+4L+VfLb62fQv59mg8Z3xcyBKxJlsBFDLg9HQA3u5H+uIkpFe4DgBx3lRfPWnQ1H+BSQL/iad670lzBqC2A4CJlivKG4AqZJghrIxo4QjHegPYwUE+/mXidAf7qVjKSM+OPzw+/qYQAFI7AKOd4+Ojg+PjX0uRZJF+p31gqp+fMEMFAJwUJ+jR7kLwT5vq9f9S4z9nMJGBI/jn/CdtYxYIrdNS7wAAAFZlWElmTU0AKgAAAAgAAYdpAAQAAAABAAAAGgAAAAAAA5KGAAcAAAASAAAARKACAAQAAAABAAAA36ADAAQAAAABAAAASwAAAABBU0NJSQAAAFNjcmVlbnNob3R6OEbOAAAB1WlUWHRYTUw6Y29tLmFkb2JlLnhtcAAAAAAAPHg6eG1wbWV0YSB4bWxuczp4PSJhZG9iZTpuczptZXRhLyIgeDp4bXB0az0iWE1QIENvcmUgNi4wLjAiPgogICA8cmRmOlJERiB4bWxuczpyZGY9Imh0dHA6Ly93d3cudzMub3JnLzE5OTkvMDIvMjItcmRmLXN5bnRheC1ucyMiPgogICAgICA8cmRmOkRlc2NyaXB0aW9uIHJkZjphYm91dD0iIgogICAgICAgICAgICB4bWxuczpleGlmPSJodHRwOi8vbnMuYWRvYmUuY29tL2V4aWYvMS4wLyI+CiAgICAgICAgIDxleGlmOlBpeGVsWURpbWVuc2lvbj43NTwvZXhpZjpQaXhlbFlEaW1lbnNpb24+CiAgICAgICAgIDxleGlmOlBpeGVsWERpbWVuc2lvbj4yMjM8L2V4aWY6UGl4ZWxYRGltZW5zaW9uPgogICAgICAgICA8ZXhpZjpVc2VyQ29tbWVudD5TY3JlZW5zaG90PC9leGlmOlVzZXJDb21tZW50PgogICAgICA8L3JkZjpEZXNjcmlwdGlvbj4KICAgPC9yZGY6UkRGPgo8L3g6eG1wbWV0YT4KMMUeWwAAFZZJREFUeAHtnWuMZEd1x8/tee88dvbpnbXXO0a2eazBYBzH2Iml2F5HQIgQUmwBSWSTDxECKUL5QKIkshTzJRJRFOUD+RDZhCRSQBERDykvLGFhLBIQGAgWGDDrfWR3Z9/v3Znp7vx/d+bM1N693T13unu6Z7qO9k71rcepU6fOv86purd7k9nZ2apFihqIGlhzDZTWvMfYYdRA1ECqgQi+aAhRAx3SQARfhxQfu40aiOCLNhA10CENRPB1SPGx26iBCL5oA1EDHdJABF+HFB+7jRqI4Is2EDXQIQ1E8HVI8bHbqIEIvmgDUQMd0kAEX4cUH7uNGojgizYQNdAhDUTwdUjxsduogQi+aANRAx3SQARfhxQfu40aiOCLNhA10CEN9K9FvxV1UtafeX1tl6vKpbyES3/6Fq8BpSUyu5Tm5+ft5MmTdunSJRsbG7Pt27dbX19fl0obxep2DbQUfADr3JzZwSsVO3nN7MxcNb3OzZtdLpvNCoDKsrKuBAQKfqWkqisxgDcsPzwqW57oT2yLMiYHzHYOJbZrJLHNknSgw3768uXLxgUBwE2bNtn4+Hh6H/9EDRTVQMvAd03A+unFin3xeMWeP1u11wXC/8Pd6V96LWBtWT73cJRTFl64Q8oFxHcIgPdPlOzx3SV722TJxlsm8bIoK/1ULpfltREU7121SgXhI0UNrE4DLTHliuzx8NWK/c3Bsj13TAYpL7dEgMiBtpQmduug2a2KN1+8rPryjEsgxZ5xoaRKvqf0e0fK9s+nKvaFff12/7aSDcVIT8qJtN410JJAjpDyuUMVe25GSAE0CiVTT4Z29HEJWIBMHpHY8zaFljvZ7AFUhah2dTGdVUo9rws/5Z05VLWP/nDeDsi7Rooa2AgaaAn4XjhZsc/pSgED2jg1wcsBPL/ADEDj0j7utv6S7RD43jUiEdzzUebA8zy/F2h/dqRqz/xvxeYi/qSoSOtdA02D74xA8XcKC49dXUSZ79c8oCXbgUcqwD2+qWSjAueAyvbKA9qgLgeZpwARwhNySsOls44vHKjYC0dbgz72bZxg+j4u7a9Nf+inlXvEVsruvFo1dMY5N0eI0xoqIh99szdfDdFWP6W5JvaAfA6R1ciatvn2mYp967KAAR7C5wTu+dCDitNLyTs3JTYhgBKZ0mZMnx9Q3ksXlOHeLsQW+z94VMSQVA3/9bWKPXpzsXWDCUSxFy9eTC/AEFKppMMcnVxOTEzY4KA2pE0SE8mJ6Llz5+zaNeLqBUo03tHRUZucnLSBgYG0/MyZMzY8PGw7duxI87xumCL/1atX7fz58ylf7p3gyaMPZB8aGtLjG5Rfn5AJXugDWZ2QafPmzakuANDMzEy6QG3dujXlX4s3sp09ezY9DQ5lQ6/IxQXvPAIsp06dsgsXLqT16AseyIf+QvlGRkZsy5YtRupE39RD39636wQ915vPvLbOF3k50Ua3K9Wrt11JmjT7o7mffGXe/mpGqHBbdpsAG6nXUgpoIIWbH9lasmEZB+DjoAYbuqxnD5/DmwFi+JCZiAEV4EF7LmyEw5adJZv9cP5EqvQGciNC0Y0IY9m2bVtqfFlDAySnT59eYsFzPgw1S/TD88AQdNk68GZCqeMGAy/6zvaL/CdOnLArV65k2dxwj6HAo78/f13FkDFUxuL93sBEGbRHDvdg3O/atSuVOawPP3jBsx4/eCEXIMyOD5ChL9pTxuKEXrzvsD8+UwfdM1YAz1Wrb+TeuXPndWCFB/Vp10gP3h8LY6sfKxVzH0iSoW+eE0AcGIBDt+lFHvPP/eLCul+x5mA1saru06cQSisCGOHnfWNaramXejp9RjJszQEMKLlwIuwvCxDP5uoBIWSFMbEKs4quhgDIsWPHGvbH5APS0GjoO7ynf7w1/FYCPOrjyY4fP55ruPDHyFlAsv3QNiQig9D4acsVEvfoqp7xe336o++8utlHOIwh7Nt5eAov+kUvjcDDOKibjXToo1HbsL9wkfT8ZtP85bEA15f5tXkHX9hO2YnC0HSSmTM9KL99sKR74VH35FcExERXSXl3DZn9T58QByqJmthDsm1QssQfPtwXXDIIH1gtU1loLu8WhiJMfjjZGBVGQihYy4OIzQ0EDwwsu+fw8IV+mUSA5LLcwCTIgA9AAYAhwYewizFQxuIS8gPUGBbegboQ5R5mhrzQC7zwwowbXqEuwrrZzyxQhIohIROeC73BByMPDR+90hfhXCNCNupywSMcJ7KGCxLjZL7QNToOoxzukYMQFEKv6CLUGX3Rnot82nDRD28xIS91WklNg++J8ZJ9o1K2AwAFcDhAhCBAloJFb6s8Ls9WFUgZGKCrppdwpjoaX3r/gCK4l/B28MLe8HTwANyQ2lpf1e6aKvagD8Xt3r07NVSfoAWGy3+ZSN/fkIvhoPyVgo9xEXqFQGHSCLUIj8KJY/IBR9YAlqVZ+IRMGJwTPAhN2fM4qChzfvTvBDDo142csWRDQ0CCfBhsSPTJIlIPhHkGjFwYeCgb93geBynGzLiZh7Be2D+fARyhHqkTAGKOQtBQxjhYaHyuKAfk4RYBMNI3fTKucGwsGDfddNN1C7L3yTjRez1ZvW7RtGnw/e4tJTt1pWpTGvC4PB2LA6+VHZ9L7JD2cnt1ksnFIQtOjYMTMOQXwAOgbO9u8XfMeP+My91eIvTNColzWsX1ztmf3Fv8QMRX0FoKwhiI6QEFxEQBpJWueL4yO38my/clnuepgxJjqRUC0n94gEBb5MsCj3z4cUiBoWCgkLf3gwmAHHogxoVx0zZLlE1NTaXhK6DNI3QTLjT0w8KQNVL4IzN1nRdA4B6d5xGLAfu0MDqhHvWZx9Cr5Y0DsCAPfaMTCLA5+ABnCGD6c+CmlYM/efoJipv62DT47tlSske3V+ylGQ2wnJieItg2ge0NWkzvEbAG5OEuCDcva2+oQ02iz3SPB67SZ/FKAeAV1ZmVnvYl8/ajq9pvXZDrm1eG7wHZQI4P21N6y+XXpm80mKJaQPk+Id42nBDyfOK8vF6KMYX1MRI3/Lx2GAjGRZrtl/rwcmPlHiMAfFnjpgwin8MMvBZGBmGk8KEs5EWf8KpnWJRhkGG7lKn+IC/53g/88D61+MEHkDgv2qH7WuCrdTLKOMI+6Je6YZ7LSB71fU6Q2eUln8vvWeTYJ6MTB63zaWfaNPjGBbL36r3L8/J+r3D4onkflFJ4eWUs3fOZvaYXP79zQmV4M+WnDk0fU3eHnXB5iDmnlfvUWZ18KiP1fhIxUScj/fbgrf32sXsHbOvyKbMarpwwRkIelO2KX3nr+jXxKiGIAB8TvFrCaEIZWZ2z4WGWt9dxI4eHG1/o9TDMrFfJ8mp0H/Jj3ISpXCsh6gM+UgCUJfLy8qkX6rRevWxZODfoifkJx8Ci5SE+5YTsLCjUaxc1DT4E2ztWskemtOfR+50zAiFYQqUcpECbUfC8cjlAdLB5SlTgn/t0c0F7nPPyeuTBRRNkPIjfMWB/cP+Q7dNjhqKEERPehXuiojwa1WdywwnGSGoZUCNelGf5AZhG/CgPvQA8GHu4ysM7a5jkFSH4OqiLtOuWuuiDMB3w+UIVysbCwPaDC0/IvrgdICxuyaGUi595tn73tsQe04PvUfZ9AEoXBywVObBJKgwrVMS7cXGg4pffc8BS0Z8rhJuL9TxV279+aNQevWPQOBAtQhgKSmwn8JAnC4wseIrInFcXfiuhsJ6DzNOwfVgvzF+Lzxg/IWdWZ2vRt/eB5+e5JfvUenKwVz569Oh1J6vOo9m0JZ4PIYbE6e07Eh2+JPb8Qa2M8lx4PmyGQ+VH9Of5RVBe9+gAD0e+8GmXFHJeE+K8nrJsqGR/tH/S3r9vyEavP5SjtCGxsvlJm1dmNSO+z4ZxhB15z6G8Xb3UPZMbdb2wqh4fL8t6Tg9Dya9FeLnQI2FUzif0iNRh1V9t6AnfkB/yoFOuRsT+D+Bldd+oXTvKkYVDMQ6EmHu2I4AtDPfpF32xgKOv7Libkatl4AM7kzqEfGh3YqcVOb48o/cmBaz0cYNS3mrRH33bVmjEowEwgMeCTjokV3hWDfnGLWXk6/Tzg7+61Z78pRHbrtAWFkUJ8IUGWestEviGe4Ci/WBMGLr3xSTWO9GDP0B1sGb7Y5IxDucHmBkLebWIPS31nKgLH+TCcJAJwrgwNsBSa9WvJxtt4Efq8tNP3mmny9LNKbKzGHMxHuaNBTt8FEQeuqVuq6j2MrqKHggJt+k489f36vt6epulXwDSI8AUhIPC1B4BaCnsdACmqSrOyTB4edrz5fEeeNuk/eEjE3bzlj4bWMWYUaQbrw+nlvFSD4N0Y/L6K00BX3h6Bz/2mSEYQl70xQFFrf6Y5JAfgMEr11og6CfrtQGXez5OG/nshGFhYHn9u+zIWIsAX8iPuniO9U4sKOzv2BNy6OKEnrIe0ctWm9ZeRlfJEZDs2ZzY/tvMvvqTqh3WCxBzApRkt9t1cHQIvh5WKi/1cMSnFwW+1BvKQAS8N01vsj9991Z78y6d8q0CeHSDIrMrFc/BOMXysAel4hF4EMzqtlrCEDn2DsMWPh85ciTNdy+DYSMDhppn+N4/sjP51KUNhGc7qv0HBwDOz71YFugsMgAOPhBA5t6fA9I374siByu+L0r0wf64FshTZvoD+ODpgEMO+KFD+FHuRB71ADxjwbAb7bW8bTtSX1xYfNAJ8vpCRX/ohsUkXHzQY7jYtEKuloMPofRVPbtnKrFreij+5R9X9C13QjpeTpEh8KCPF6hToKkyD/vSU06FS/NqqMbTe0bsU7+5zR55I2/oNzdMVjEA6AZM6Hbw4MGlsAnDqAeCIr0zgewfwgfn9OsnZ0V4URfZATTtnZAXANYjDAXjDk/oMByMnvZcTlkj8/xGKfzoA7C6btEj3perHmH04QJYr247ypCZRQh5WRR8AanXF4u1L9j16hUpW45DirRaQV2e892/J7GHbyvZmB66XxW2LulliVEem+DxAB8hJqHmFRVUtA4k2ozvHrU/lsd7z1vZj6i8SWIFDsMHZ4cBAsQiwHMv4jyyKeWABQA2qpttm3cPD17PgmcRoj5XVgaMhzdHQlAW4Zuty2ITvj+aLa91j5cNvUhWzlrtiubX4stiXKssrw9kZR6yUVRe3SJ5bQMfQuABH5pO7Dfu1Cqu0PEkhynpsaYSgMct75Xx60tVHWXeMmqf+cBWe+KdI2lblTZNKA4wNDJgQijCOVcwk4OxhpPEvRsNad5K6P3xela4ZwsHAk8mk9e7Qv5hHf8MP+TCyF02L8umlMOT+i5ntg7AQzZ0Uq8O7zoSkjUiFjb4rQTQjBVvmX2tbSV6RQ7ahzpnvB4uZ+VkbGFdPrv+kDXva0ZZHtzDn7p46lZT09/nayQQ2DqnsPObByr2qRcr9l2dgpq+gGu8DI/3K+nPrDyf3pL5p98asYfv1Bsseg9Nem4p4eHwdIQbeD3umUwmwt9k4J59GnXIx7BCA/UwhToYJhdt6hF7J8Ic30P5Xgm+9BO+KIxhApxaPNlX0TehIgcsPgZ4IovvA+vJE5bBzyMAPmOcLBjwI5TklSv6gyirBzLXL7IxXu6dMHxkQ0YHgJeRFtErchK2Mn7mp9YCB190Tl3asPiGYKQcgo/r0+2CfEDnc5wnM3WapbaDDwEdgF//RcX+TAB89ecC3xlNDp5vuGx3T5t98tGBFHiTelTEM/mNThgceyP2h07syfCItcDn9dYixSj5vhwGCWG4gC/PgNdCno3YR1sOXLKKAkyA6t13av+nb87+w3hi3zqo1UUVf2XPgP3OfX1237SeRbHtyzbeoPd4FlZcJwCHx+kG4CET3gsAOgG6dnkA76PX0jUBH0oFVMPqbf8dffYOfR/v8Fm9c6jMPfpWxJbGW4t1MS+ENxzTcxEOZY+wfRAAD4+HgTth3ICvnUR/PFKhf2QjbMvzZCwK4YktMhUNads5jo3Ce03Czo2irEbjwGjZJwFCJ/do7PHYR+BN8k5ZOQBp1Smp9x2myMRzOPaZISGTX4TChJmhx6MuAOU9yHYvDqFcq/38yumqzaS/pGe2Xb8ZdJfeOYaOXKzaT88v70PJm9YXvA8oP0sTOvu7Z8fCWeSL+m2h7Xoz601bWh+TrZnnyw5wI94DsGzYiEEDtnqEV8l7NFCvTdEy5AoPj7w9hxJ+GOR5YUo7FoX1ADzkfuyFeZt5fXnx48XiE08O2bM/qdgz3+CIfZk+cm+fPfsdTv0yNJnY7JODBpAf/rxCb22Zrv2+njlnqjV7G8HXrAaD9pyQclpJyFbPoIMmaTjH0Tvep50EiDjMwQNmvV+tfgEr4yE8XVckVR76vSH76utl++i/z9unv182/XxQSv/5+IC9Rb+gB43Jw/35vQt6v+Vvr9mb31Cy/3pMD9MXUfZp/UJ6Sjrw/drhiu3Xrza0kto7462UdB3wwsDZS/Hogv0Vb04QiuYBkT0hjxaoS7u1IMJHnt9xquqyISfeOSRAxziQL29PGNbtys8azsv6hbtvn1wY1x6tHccXz7b+47DCz3Pl9DnyU2/UDyMFry7yP2HtXPxlC07o//FHFZvWSyIH9F8hPPODcgRfV052RiiM158ReZGHd5wYdtqg6R8vyAXhDX2fR1leeOrjWBepIsn3fYnXFSWtAPXgTSX7oh5zQX/538pkrZMTA3y16N8Oqr6esjz9lpJ9VoB84VVFDGKJt2wVRc/XKk024OOHGg2qdaQYsBEybxiSVc9+fMhO6DD5ZoWTT700b++bWggZv/uhwaVDmHrjffqHC3vBp17kJRC5QSV//2rZPravNmDr8csri+DL00rMW98aEFb+5bWyfjdoYRhTwY+kfUUh5I8Xf2Hxbu397tDhSpb4FZMf/EyeT2VPTFOe2Of1H/R84vuVCL6ssuJ91MB1GpCX+tCXFV7Ktbz99pJ95oEBnXYueLKnv754iKIGn3hXv/3FL9/oyT4rDwc9+2Cf/baeS0OnZufsa69U7HU9rtg7cSNg00oF/8TnfAUVFqtHDbRKA609O22VVJFP1EAPaCCCrwcmOQ6xOzUQwded8xKl6gENRPD1wCTHIXanBiL4unNeolQ9oIEIvh6Y5DjE7tRABF93zkuUqgc0EMHXA5Mch9idGojg6855iVL1gAYi+HpgkuMQu1MDEXzdOS9Rqh7QQARfD0xyHGJ3aiCCrzvnJUrVAxqI4OuBSY5D7E4NRPB157xEqXpAAxF8PTDJcYjdqYEIvu6clyhVD2gg/oZLD0xyLw+Rn8b3/+zF9cAvyHXDjwBHz+czEtMNqYG830QNf86/k4OO4Ouk9mPfbddAHviyPxLcdiFqdBDBV0MxMXtjaADw5QGwG7zf/wP8kp1eWRUscgAAAABJRU5ErkJggg==;" parent="1" vertex="1">
            <mxGeometry x="827" y="660" width="223" height="75" as="geometry" />
          </mxCell>
        </UserObject>
        <UserObject label="" link="https://opensea.io/" id="yjS2h5lW9opTxzBeOC6X-2">
          <mxCell style="shape=image;verticalLabelPosition=bottom;labelBackgroundColor=#ffffff;verticalAlign=top;aspect=fixed;imageAspect=0;image=data:image/png,iVBORw0KGgoAAAANSUhEUgAAAM8AAABECAYAAAAm9mFEAAAK02lDQ1BJQ0MgUHJvZmlsZQAASImVlwdUU9kWhs+96Y0WQEqA0JsgnQBSQg8gvYtKSAIJJcQUROzK4AiOBRURUEd0EETB0REQURELFkSx9wkyKKjjYMECKnOBR5iZt9576+21Ts63dvbZZ++bc+76AwDFny0SZcMqAOQIpeLoIF96YlIyHdcPiAAL1IERoLE5EhEzMjIMIDY1/90+3AHQ+HzTZjzXv3//X02Ny5NwAIBSEE7jSjg5CLcjY4AjEksBQNUifuNFUtE4dyGsLkYKRFg+zhmT/H6c0yYYjZ+IiY32Q5gGAJ7MZoszACBbIH56HicDyUMORthOyBUIEc5H2IvDZ3MRbkF4Zk5O7jj/hrAFEi8CgEJGmJH2l5wZf8ufpsjPZmcoeLKvCcP7CySibPbi//PR/G/LyZZN7WGGDDJfHByNzMivCd3Lyg1VsDAtPGKKBdyJ+Anmy4Ljppgj8UueYi7bP1SxNjs8bIrTBYEsRR4pK3aKeZKAmCkW50Yr9koX+zGnmC2e3leWFafw83ksRf4CfmzCFOcJ4sOnWJIVEzod46fwi2XRivp5wiDf6X0DFb3nSP7Sr4ClWCvlxwYremdP188TMqdzShIVtXF5/gHTMXGKeJHUV7GXKDtSEc/LDlL4JXkxirVS5HBOr41UPMNMdkjkFINgEAnoIAA4ACfgCLhSXr50vAm/XNFisSCDL6UzkZvGo7OEHNuZdAc7B3sAxu/t5FH4/fzEfYRoutM+tjty5K8izjXTvhwbAE6kIVfQedpnkQsAtQeA01KOTJw36UOPf2CQN4Iy8kbQBvrAGFgAG6Q2F+ABfJAqQ0AEiAVJYD7gAD7IAWKwCCwFq0ARKAGbwDZQAXaDvaAWHAJHQDNoA2fABXAFXAe3wUMgB/3gJRgCH8AoBEE4iAJRIW3IADKFrCEHiAF5QQFQGBQNJUGpUAYkhGTQUmgNVAKVQhXQHqgO+hk6Dp2BLkE90H2oFxqE3kIjMAomw+qwHmwGz4IZMBMOhWPheXAGvBAugAvhDXA5XA0fhJvgM/AV+DYsh1/CwyiAIqE0UYYoGxQD5YeKQCWj0lFi1HJUMaoMVY1qQLWiOlE3UXLUK9RnNBZNRdPRNmgPdDA6Ds1BL0QvR69HV6Br0U3oc+ib6F70EPobhoKhYawx7hgWJhGTgVmEKcKUYWowxzDnMbcx/ZgPWCxWE2uOdcUGY5Owmdgl2PXYndhGbDu2B9uHHcbhcNo4a5wnLgLHxklxRbgduIO407gbuH7cJzwJb4B3wAfik/FC/Gp8Gf4A/hT+Bv45fpSgQjAluBMiCFzCYsJGwj5CK+EaoZ8wSlQlmhM9ibHETOIqYjmxgXie+Ij4jkQiGZHcSFEkAWklqZx0mHSR1Ev6TFYjW5H9yClkGXkDeT+5nXyf/I5CoZhRfCjJFCllA6WOcpbyhPJJiapkq8RS4iqtUKpUalK6ofRamaBsqsxUnq9coFymfFT5mvIrFYKKmYqfCltluUqlynGVuyrDqlRVe9UI1RzV9aoHVC+pDqjh1MzUAtS4aoVqe9XOqvVRUVRjqh+VQ11D3Uc9T+1Xx6qbq7PUM9VL1A+pd6sPaahpOGnEa+RrVGqc1JBrojTNNFma2ZobNY9o3tEcmaE3gzmDN2PdjIYZN2Z81NLV8tHiaRVrNWrd1hrRpmsHaGdpb9Zu1n6sg9ax0onSWaSzS+e8zitddV0PXY5use4R3Qc0mGZFi6Ytoe2lddGG9fT1gvREejv0zuq90tfU99HP1N+qf0p/0IBq4GUgMNhqcNrgBV2DzqRn08vp5+hDhjTDYEOZ4R7DbsNRI3OjOKPVRo1Gj42JxgzjdOOtxh3GQyYGJnNMlprUmzwwJZgyTPmm2007TT+amZslmK01azYbMNcyZ5kXmNebP7KgWHhbLLSotrhlibVkWGZZ7rS8bgVbOVvxrSqtrlnD1i7WAuud1j0zMTPdZgpnVs+8a0O2Ydrk2dTb9Npq2obZrrZttn09y2RW8qzNszpnfbNztsu222f30F7NPsR+tX2r/VsHKweOQ6XDLUeKY6DjCscWxzdO1k48p11O95ypznOc1zp3OH91cXURuzS4DLqauKa6VrneZagzIhnrGRfdMG6+bivc2tw+u7u4S92PuP/hYeOR5XHAY2C2+Wze7H2z+zyNPNmeezzlXnSvVK8fveTeht5s72rvpz7GPlyfGp/nTEtmJvMg87Wvna/Y95jvRz93v2V+7f4o/yD/Yv/uALWAuICKgCeBRoEZgfWBQ0HOQUuC2oMxwaHBm4PvsvRYHFYdayjENWRZyLlQcmhMaEXo0zCrMHFY6xx4TsicLXMehZuGC8ObI0AEK2JLxONI88iFkSeisFGRUZVRz6Lto5dGd8ZQYxbEHIj5EOsbuzH2YZxFnCyuI145PiW+Lv5jgn9CaYI8cVbissQrSTpJgqSWZFxyfHJN8vDcgLnb5vanOKcUpdyZZz4vf96l+Trzs+efXKC8gL3gaComNSH1QOoXdgS7mj2cxkqrShvi+HG2c15yfbhbuYM8T14p73m6Z3pp+kCGZ8aWjEG+N7+M/0rgJ6gQvMkMztyd+TErImt/1lh2QnZjDj4nNee4UE2YJTyXq5+bn9sjshYVieQL3RduWzgkDhXXSCDJPEmLVB0RSF0yC9l3st48r7zKvE+L4hcdzVfNF+Z3LbZavG7x84LAgp+WoJdwlnQsNVy6amnvMuayPcuh5WnLO1YYryhc0b8yaGXtKuKqrFVXV9utLl39fk3CmtZCvcKVhX3fBX1XX6RUJC66u9Zj7e7v0d8Lvu9e57hux7pvxdziyyV2JWUlX9Zz1l/+wf6H8h/GNqRv6N7osnHXJuwm4aY7m70315aqlhaU9m2Zs6VpK31r8db32xZsu1TmVLZ7O3G7bLu8PKy8ZYfJjk07vlTwK25X+lY2VtGq1lV93MndeWOXz66G3Xq7S3aP/Cj48d6eoD1N1WbVZXuxe/P2PtsXv6/zJ8ZPdTU6NSU1X/cL98tro2vP1bnW1R2gHdhYD9fL6gcPphy8fsj/UEuDTcOeRs3GksPgsOzwi59Tf75zJPRIx1HG0YZfTH+pOkY9VtwENS1uGmrmN8tbklp6jocc72j1aD12wvbE/jbDtsqTGic3niKeKjw1drrg9HC7qP3VmYwzfR0LOh6eTTx761zUue7zoecvXgi8cLaT2Xn6oufFtkvul45fZlxuvuJypanLuevYVeerx7pdupuuuV5rue52vbVnds+pG943ztz0v3nhFuvWldvht3vuxN25dzflrvwe997A/ez7bx7kPRh9uPIR5lHxY5XHZU9oT6p/tfy1Ue4iP9nr39v1NObpwz5O38vfJL996S98RnlW9tzged2Aw0DbYODg9RdzX/S/FL0cfVX0u+rvVa8tXv/yh88fXUOJQ/1vxG/G3q5/p/1u/3un9x3DkcNPPuR8GP1Y/En7U+1nxufOkYSR56OLvuC+lH+1/Nr6LfTbo7GcsTERW8yekAIoZMDp6QC83Y/o4iREK1wHgDh3UldPGDT5X2CCwH/iSe09YS4A1LQDMC65onwAqEKGOcKqiC8c4VgfADs6Ksa/TJLu6DCZSxXR7PjDY2NvCgEgtQEw0jE2NjIwNva1FCkW0Ttt/ZN6ftyMlABwVh6nR7sKwT9tUuv/pcd/zmC8Aifwz/lPgTgV9tr2lnQAAABWZVhJZk1NACoAAAAIAAGHaQAEAAAAAQAAABoAAAAAAAOShgAHAAAAEgAAAESgAgAEAAAAAQAAAM+gAwAEAAAAAQAAAEQAAAAAQVNDSUkAAABTY3JlZW5zaG90Q8LZDQAAAdVpVFh0WE1MOmNvbS5hZG9iZS54bXAAAAAAADx4OnhtcG1ldGEgeG1sbnM6eD0iYWRvYmU6bnM6bWV0YS8iIHg6eG1wdGs9IlhNUCBDb3JlIDYuMC4wIj4KICAgPHJkZjpSREYgeG1sbnM6cmRmPSJodHRwOi8vd3d3LnczLm9yZy8xOTk5LzAyLzIyLXJkZi1zeW50YXgtbnMjIj4KICAgICAgPHJkZjpEZXNjcmlwdGlvbiByZGY6YWJvdXQ9IiIKICAgICAgICAgICAgeG1sbnM6ZXhpZj0iaHR0cDovL25zLmFkb2JlLmNvbS9leGlmLzEuMC8iPgogICAgICAgICA8ZXhpZjpQaXhlbFlEaW1lbnNpb24+Njg8L2V4aWY6UGl4ZWxZRGltZW5zaW9uPgogICAgICAgICA8ZXhpZjpQaXhlbFhEaW1lbnNpb24+MjA3PC9leGlmOlBpeGVsWERpbWVuc2lvbj4KICAgICAgICAgPGV4aWY6VXNlckNvbW1lbnQ+U2NyZWVuc2hvdDwvZXhpZjpVc2VyQ29tbWVudD4KICAgICAgPC9yZGY6RGVzY3JpcHRpb24+CiAgIDwvcmRmOlJERj4KPC94OnhtcG1ldGE+Cob+g7gAAA4kSURBVHgB7V0JcBfVGf+QI+FMALmUkGBLBbnCoQWhQtDKIactR+Iw4XKMgwNNmGkEOnK0lWOcBKgCHa6gQhCrSKmAtCPHiNKi3KhTRsDQAk6FHIgkHNL3e+H983az+8/+N/vfhL/fNyy7+/Yd3/f7v9++7337dlPjthBiYQQYgZARuCfkElyAEWAEJAJMHu4IjIBLBJg8LoHjYowAk4f7ACPgEgEmj0vguBgjwOThPsAIuESAyeMSOC7GCDB5uA8wAi4RYPK4BI6LMQJMHu4DjIBLBJg8LoHjYowAk4f7ACPgEgEmj0vguBgjwOThPsAIuESglstynhY7eK6EPs4rpsPnS+jzSzfpWOFNKin+gUj8ozo1qF2DmvRQ01rUrWUUPdommp5oV5dq1PBUBa6MEQgZgRpV9T7PV9/eoNcPX6HVx67S+aJboSkuCDWtc32a2KMhJd4fFVpZzs0IeISA7+S5eOUmLdhdQMs++84TEyZ3qUezkxpT2ya1PamPK2EEnCLgK3nWf1ZEE3bmE133+OVVMXNbNbgJTXmkkVO7OR8jUGkEfCNP+rZvacmn3ow2dlZP69GAlg6/1+4ypzMCniLgC3mSc7+hTV9e81Rxu8rGtK9LbyW3sLvM6YyAZwiEPVTtJ3GAymZB0rGCrCyMQLgRCCt54Kr5NeLoQIFAvxFtszAC4UQgbORBcKAyc5yxHepSwcw29GIvd0GApWJ+BR1YGIFwIRAW8iAcLaNqIWodF1uLsEHwQDQm+h4a2qFeiLWUZZ+wI5/OC11YGIFwIBAW8uA5jptwdIfGNSkvvTUdS7uPhjzonjQBoG7cpkXQhYURCAMCnpMHKwfcPgDddaaE9p8tps6t6sgN9vZJiKZMl64bykMX6MTCCHiNgOfkwZKbkEW4Z2mJ9WWxPx0oLFd8oXgAumFU03LpThNy3OhkUXlBYRHt3X9AbhaXIypp70efSDthM4s1Ap6TB2vVQpUVSTE0s3+sLPbWF9eoqAQrQo2SktjQNYFWudBJtY7OkzF7Hv0ksTc1bduRBgwbLbeaTeKoe7/BtGzlWpX1rt+DMAOGjyHYhj1shc2wfX3uX4iJZPyJPX1IitXRj6y+YGyhgrOerWrTwbT7Za6BORcIrttGMcokC7JYyfNb/kcrj4RO0H9NaUUPx4W2iBSd6enxUyrsNF07d6J1r75CXTt3tFL5rkhLnzVX3AjWBNUVdh7auyNonh/TRU9HHrxWEKqsG9ksUGRAQl15vO+MfT0LBzcNROQCBR0chKrb0eMn5d3Xyd326PETjvNCVdSJ+kORs3n/CbmMXn8wO1C3mTiP9elN2HSBnUtXBCcY7EJ9oQhuUnejeEoevI8TiixMiqVOLesEivQVwQHIafE+j50gfD2rt/WoZFcG6aHoho4Gt0UXdKQP/7qZLp05SV8d+YTeeWM1xce1DmRBGYxSStAh4P6obd6ibEKacv+69xskr/1KlLEjEtInvzBD5kM5VQa6vff+B6qpwD5pWKnLpdpEJ0b9OIf7hT1cTXNnXZ/7dqAOHExLm0y7t22WW9Yf5xquvbe9fLvQBfWW1j8oYCN0tyMSdNBdRJTFOWw222FQoBqdePoyHF5kcyp4npPmMorWJx4jlFidHYKcDEG3raIz6HdqEAedSUlsTCNKaNOa+vftTQ907UWFRaVBEnQIdBZcM8vW7bto/qIsc7IkwR5RDsTU3b71G9+mSS9klMuPBLSD7aXMDJqTmW6ZB4k9+g002IE0NUqivX5CfyvJO1c2cqSmjKbEzg8FssF2XSZNzRDzISP5cB345WzcLOzbSe+KG43elp1tilDmNvT2qtOxpyMP3gB1Krmj7pUPQfX8eQXOQspu3iI9FIJuOabOsO618p0eeuNHzn55nm6CZUdCBnRaOzGPWrj7molj5UaBjFYjkGpHvwGoNLXX6x855EmVLPeoE6MAggQQdHy16QTHaKoTJ6ZRQ+nqdelURjZlm9IFN5eM2XNlvVb/IZ/daGWVvyrTPCWPfHXagTVYcoPnN2bJOVL6yoKa+5ivq/PjF0NzD1HuB7zW7VDMHd1qJFFV6XdlpNm5YLiWmjxaun23Lp+jta9mETqbEnQYRYSlpok7XETlRh3au9NQbv7iJaqKcnu9PYw05vaUriAE8uqCUWDS1HTpgsH9wrlZlq5YFUiCC3v66AGp5+F9H5Du7oEQGG0g5lEdRINuwATusE68QOXV9MBT8shvDjgwdOaA0rC0nhUPRxFpg6R0q69fMhwjjJ25u/yzIEMmqxPn3Am4YagGEaZgEt8mznA5X3QUK0HnWitGMOWSwB2akznDkPXoic/lOVwdJWi/cWxM4PlSgXARE+Lj1eWgI1rWy3MD7WHkSE0xzuPUaIDKoBvcQJ1gSEceuF8YiUAiJSCTcleRlvSLRwn6q+dgiV06qqxyr+ZKaq8u5oh2lUuHm9SWN4MHJFS56rD3dM6Dj3U4WZYT83Kere0IIsTF2L9Snbn9Ep0rcO4eBhqCbg4Fd79jdzqyeRQyV6Hu3irdPBKpdMyPzNK/by9DEuY+mMPonVLOUcTzlmACHXR3SuVVRC07j1GHlnu0PV0ECzA6bBWBgT0ffWzQBSRqI24CVvMsXMNWkRQUGm98Zr1BILio+/aXH+kqqtvv656SB1+5OXXZRce+Y3VFQYSVYvVBuWc8Ivo2JiGKRogFpH3joyl+yX8tMYRuTqWtGE0UeVAGLgdGCivRfX5cT4gzjkSqjH6Xt0trbJqMIx9GgopGP1WfF3sQDrZig87zxLxKD2NjnmVFHoys5lFY10fdVGJjghMYZcwE0+upTseekgefhwpGHizBecbi4eeGI1ckKbAwdOWBUrcHYWvMi84V3qCNh6/S2fwbAeKAZCnt69FQsfVtWzZ3Ql47gW5ORd59tZDs/MVZMuJkvkuCVDp50NHtSLZX3EnRGfXRwOzCqPrREb++E/GCi6ZH+mCDnH9oURNVzql95nzSjk1lEbPUcaXkga7ZwvVbL0YUfTREed0OnI94aqDMi2MI5nDKBpzDJoj5BmG+McE2/cYlC1XT/5z3KAcG4DWCrafsH3AmNK5t6OyqSjy7wYiCOY+a98B9A3ny8m/Ri9rKaKxIeGdsc2oj6tJl5o7LtPAO8fR0dQzdnAp8cN11QEfAM5YJYs6gOsEeQQbzJHr688+W61SqTRBnwPCx0i2Ca/K6iOiZ3RwV9cLcRIW14bZhedBLv02X5Pv94mxDOUz0+/Uxun+qTaf7GEES3Ra4gcAAeiJdJ46yH4TV3VvYkyjmZ6nJv5ZBEzzz0qNmCJAkiNFsxJCB0iVUuiHyBpKhPeTPmDVHXar2e0+X5/z939foyQ32r0DjBbdN46y/L/D+F9/Tti+v0uk785kJ3RoQ1rMdv3CdZuy8JIHsLggwU5AKZNOlIuIg765nWtAvf1a6gkEva3eMzp4k5hpO74LoxJh0K0GnwyTbqaBTvfvmapkdbXd/bKDhzm1VD0a6Q/t2BZ4r4eGiPldABEsXhJYVKZGuP+t5oGvvCttDGf3ZklMb9edkTm1DW0rMdqj0qt4be2EltXkCnTPIxByLPu1cq6fEnGXlqGa0a2IruYE4ELyeoNKwutpMHETpgo04shKhk9RNnjj7D27J7m1irmMK4VqVRofSiWOVB+QwR7JUPtzB9fJoe4sgUrCwLeqCfhgdvJAPRV3B2kMbWHmgz3cwWphD7mZdUCdsUaJsUyOYSld75K9ID5W3qvc15wrxSgnEs/LFyPFPMVrYycmL12m8xbzHLn+wdIStH3/jGyqq4BnOtMQGNNjFy3XR0SIQIXz51OTSESQqKprg4rRo3owebPdT4YJNoY1rXqNBj/cvp+bXwgXR50Njnx5BuWuWU3FJCV0rLqHi4mL6ec8eso7sBWUhZVVRyxbNaZwo0160Uxb+vh0os255tiCOMThx9MRJgo6YuGObYApyQCfUpa6PFLahHQg6ddrE8YGAR4vmzeXEHToiUoi5z3PiulkShfsG2yBoG5P9lqIsymROn0orshYQcNQFbcI1jY6OptviAtw2jE5IQ36cB7NDr6sqjz1122DIEbG+rdufLwS1CYGDRUOaUqOoyg18TldYH36uFSXeZ/wBgyrowUWzS6O7Ox5Uz1VUAwQq13stDEAnxSdwgwmCA52Wn6dcEWWzencnWFlcQxmnxIEufhOnIv35emQg4Gm0TUHyO/Ht6DUnvi/9Kwcq0bTHg86ULSIQIDaEnhGmdioqIldhfnFrgC4sjEA4EPDcbVNKrj5YRM/+7bI6rZL9qqHi+9UPG1cB+6UIokr66gPMM7ya3PtlA7cTHIGwkQfNThcfHlwW5u9T25k3raf4bvUw/m61HT6cXnkEwkoeqOf353bR5jjxvepc/l41oGAJIwKeBwzMuqITozP7JUwcv5DmdsJOHkAMAsGNCregDR5xwo0y168QCLvbphrCXgYRtosgQgjv1ujlbY/FLWDVkKoLDtjqxRciGgFfyQMkz16+QX/YnU9rjolQtgeC5zgIRyfwn1X0AE2uIhQEfCePUg4rEdZ9eoWWHb/q6AU6VU7uxVo1+Qd9e4o/6OvzygGDHnzyo0agysijUMfapn+I1djyT8mLbxPgCzynvrtVRihBlHJ/Sl4sQHX+XqhqifeMgLcIVDl5vDWHa2ME/EPAl2ibf+ZwS4yAfwgwefzDmluKMASYPBH2g7I5/iHA5PEPa24pwhBg8kTYD8rm+IcAk8c/rLmlCEOAyRNhPyib4x8CTB7/sOaWIgwBJk+E/aBsjn8IMHn8w5pbijAEmDwR9oOyOf4hwOTxD2tuKcIQ+D8t3nMjxrXlhAAAAABJRU5ErkJggg==;" parent="1" vertex="1">
            <mxGeometry x="550" y="446" width="207" height="68" as="geometry" />
          </mxCell>
        </UserObject>
        <UserObject label="" link="https://nftjam.net/" id="yjS2h5lW9opTxzBeOC6X-3">
          <mxCell style="shape=image;verticalLabelPosition=bottom;labelBackgroundColor=#ffffff;verticalAlign=top;aspect=fixed;imageAspect=0;image=data:image/png,iVBORw0KGgoAAAANSUhEUgAAAM8AAABMCAYAAADKpeMpAAAK02lDQ1BJQ0MgUHJvZmlsZQAASImVlwdUU9kWhs+96Y0WQEqA0JsgnQBSQg8gvYtKSAIJJcQUROzK4AiOBRURUEd0EETB0REQURELFkSx9wkyKKjjYMECKnOBR5iZt9576+21Ts63dvbZZ++bc+76AwDFny0SZcMqAOQIpeLoIF96YlIyHdcPiAAL1IERoLE5EhEzMjIMIDY1/90+3AHQ+HzTZjzXv3//X02Ny5NwAIBSEE7jSjg5CLcjY4AjEksBQNUifuNFUtE4dyGsLkYKRFg+zhmT/H6c0yYYjZ+IiY32Q5gGAJ7MZoszACBbIH56HicDyUMORthOyBUIEc5H2IvDZ3MRbkF4Zk5O7jj/hrAFEi8CgEJGmJH2l5wZf8ufpsjPZmcoeLKvCcP7CySibPbi//PR/G/LyZZN7WGGDDJfHByNzMivCd3Lyg1VsDAtPGKKBdyJ+Anmy4Ljppgj8UueYi7bP1SxNjs8bIrTBYEsRR4pK3aKeZKAmCkW50Yr9koX+zGnmC2e3leWFafw83ksRf4CfmzCFOcJ4sOnWJIVEzod46fwi2XRivp5wiDf6X0DFb3nSP7Sr4ClWCvlxwYremdP188TMqdzShIVtXF5/gHTMXGKeJHUV7GXKDtSEc/LDlL4JXkxirVS5HBOr41UPMNMdkjkFINgEAnoIAA4ACfgCLhSXr50vAm/XNFisSCDL6UzkZvGo7OEHNuZdAc7B3sAxu/t5FH4/fzEfYRoutM+tjty5K8izjXTvhwbAE6kIVfQedpnkQsAtQeA01KOTJw36UOPf2CQN4Iy8kbQBvrAGFgAG6Q2F+ABfJAqQ0AEiAVJYD7gAD7IAWKwCCwFq0ARKAGbwDZQAXaDvaAWHAJHQDNoA2fABXAFXAe3wUMgB/3gJRgCH8AoBEE4iAJRIW3IADKFrCEHiAF5QQFQGBQNJUGpUAYkhGTQUmgNVAKVQhXQHqgO+hk6Dp2BLkE90H2oFxqE3kIjMAomw+qwHmwGz4IZMBMOhWPheXAGvBAugAvhDXA5XA0fhJvgM/AV+DYsh1/CwyiAIqE0UYYoGxQD5YeKQCWj0lFi1HJUMaoMVY1qQLWiOlE3UXLUK9RnNBZNRdPRNmgPdDA6Ds1BL0QvR69HV6Br0U3oc+ib6F70EPobhoKhYawx7hgWJhGTgVmEKcKUYWowxzDnMbcx/ZgPWCxWE2uOdcUGY5Owmdgl2PXYndhGbDu2B9uHHcbhcNo4a5wnLgLHxklxRbgduIO407gbuH7cJzwJb4B3wAfik/FC/Gp8Gf4A/hT+Bv45fpSgQjAluBMiCFzCYsJGwj5CK+EaoZ8wSlQlmhM9ibHETOIqYjmxgXie+Ij4jkQiGZHcSFEkAWklqZx0mHSR1Ev6TFYjW5H9yClkGXkDeT+5nXyf/I5CoZhRfCjJFCllA6WOcpbyhPJJiapkq8RS4iqtUKpUalK6ofRamaBsqsxUnq9coFymfFT5mvIrFYKKmYqfCltluUqlynGVuyrDqlRVe9UI1RzV9aoHVC+pDqjh1MzUAtS4aoVqe9XOqvVRUVRjqh+VQ11D3Uc9T+1Xx6qbq7PUM9VL1A+pd6sPaahpOGnEa+RrVGqc1JBrojTNNFma2ZobNY9o3tEcmaE3gzmDN2PdjIYZN2Z81NLV8tHiaRVrNWrd1hrRpmsHaGdpb9Zu1n6sg9ax0onSWaSzS+e8zitddV0PXY5use4R3Qc0mGZFi6Ytoe2lddGG9fT1gvREejv0zuq90tfU99HP1N+qf0p/0IBq4GUgMNhqcNrgBV2DzqRn08vp5+hDhjTDYEOZ4R7DbsNRI3OjOKPVRo1Gj42JxgzjdOOtxh3GQyYGJnNMlprUmzwwJZgyTPmm2007TT+amZslmK01azYbMNcyZ5kXmNebP7KgWHhbLLSotrhlibVkWGZZ7rS8bgVbOVvxrSqtrlnD1i7WAuud1j0zMTPdZgpnVs+8a0O2Ydrk2dTb9Npq2obZrrZttn09y2RW8qzNszpnfbNztsu222f30F7NPsR+tX2r/VsHKweOQ6XDLUeKY6DjCscWxzdO1k48p11O95ypznOc1zp3OH91cXURuzS4DLqauKa6VrneZagzIhnrGRfdMG6+bivc2tw+u7u4S92PuP/hYeOR5XHAY2C2+Wze7H2z+zyNPNmeezzlXnSvVK8fveTeht5s72rvpz7GPlyfGp/nTEtmJvMg87Wvna/Y95jvRz93v2V+7f4o/yD/Yv/uALWAuICKgCeBRoEZgfWBQ0HOQUuC2oMxwaHBm4PvsvRYHFYdayjENWRZyLlQcmhMaEXo0zCrMHFY6xx4TsicLXMehZuGC8ObI0AEK2JLxONI88iFkSeisFGRUZVRz6Lto5dGd8ZQYxbEHIj5EOsbuzH2YZxFnCyuI145PiW+Lv5jgn9CaYI8cVbissQrSTpJgqSWZFxyfHJN8vDcgLnb5vanOKcUpdyZZz4vf96l+Trzs+efXKC8gL3gaComNSH1QOoXdgS7mj2cxkqrShvi+HG2c15yfbhbuYM8T14p73m6Z3pp+kCGZ8aWjEG+N7+M/0rgJ6gQvMkMztyd+TErImt/1lh2QnZjDj4nNee4UE2YJTyXq5+bn9sjshYVieQL3RduWzgkDhXXSCDJPEmLVB0RSF0yC9l3st48r7zKvE+L4hcdzVfNF+Z3LbZavG7x84LAgp+WoJdwlnQsNVy6amnvMuayPcuh5WnLO1YYryhc0b8yaGXtKuKqrFVXV9utLl39fk3CmtZCvcKVhX3fBX1XX6RUJC66u9Zj7e7v0d8Lvu9e57hux7pvxdziyyV2JWUlX9Zz1l/+wf6H8h/GNqRv6N7osnHXJuwm4aY7m70315aqlhaU9m2Zs6VpK31r8db32xZsu1TmVLZ7O3G7bLu8PKy8ZYfJjk07vlTwK25X+lY2VtGq1lV93MndeWOXz66G3Xq7S3aP/Cj48d6eoD1N1WbVZXuxe/P2PtsXv6/zJ8ZPdTU6NSU1X/cL98tro2vP1bnW1R2gHdhYD9fL6gcPphy8fsj/UEuDTcOeRs3GksPgsOzwi59Tf75zJPRIx1HG0YZfTH+pOkY9VtwENS1uGmrmN8tbklp6jocc72j1aD12wvbE/jbDtsqTGic3niKeKjw1drrg9HC7qP3VmYwzfR0LOh6eTTx761zUue7zoecvXgi8cLaT2Xn6oufFtkvul45fZlxuvuJypanLuevYVeerx7pdupuuuV5rue52vbVnds+pG943ztz0v3nhFuvWldvht3vuxN25dzflrvwe997A/ez7bx7kPRh9uPIR5lHxY5XHZU9oT6p/tfy1Ue4iP9nr39v1NObpwz5O38vfJL996S98RnlW9tzged2Aw0DbYODg9RdzX/S/FL0cfVX0u+rvVa8tXv/yh88fXUOJQ/1vxG/G3q5/p/1u/3un9x3DkcNPPuR8GP1Y/En7U+1nxufOkYSR56OLvuC+lH+1/Nr6LfTbo7GcsTERW8yekAIoZMDp6QC83Y/o4iREK1wHgDh3UldPGDT5X2CCwH/iSe09YS4A1LQDMC65onwAqEKGOcKqiC8c4VgfADs6Ksa/TJLu6DCZSxXR7PjDY2NvCgEgtQEw0jE2NjIwNva1FCkW0Ttt/ZN6ftyMlABwVh6nR7sKwT9tUuv/pcd/zmC8Aifwz/lPgTgV9tr2lnQAAABWZVhJZk1NACoAAAAIAAGHaQAEAAAAAQAAABoAAAAAAAOShgAHAAAAEgAAAESgAgAEAAAAAQAAAM+gAwAEAAAAAQAAAEwAAAAAQVNDSUkAAABTY3JlZW5zaG90Q3uaKwAAAdVpVFh0WE1MOmNvbS5hZG9iZS54bXAAAAAAADx4OnhtcG1ldGEgeG1sbnM6eD0iYWRvYmU6bnM6bWV0YS8iIHg6eG1wdGs9IlhNUCBDb3JlIDYuMC4wIj4KICAgPHJkZjpSREYgeG1sbnM6cmRmPSJodHRwOi8vd3d3LnczLm9yZy8xOTk5LzAyLzIyLXJkZi1zeW50YXgtbnMjIj4KICAgICAgPHJkZjpEZXNjcmlwdGlvbiByZGY6YWJvdXQ9IiIKICAgICAgICAgICAgeG1sbnM6ZXhpZj0iaHR0cDovL25zLmFkb2JlLmNvbS9leGlmLzEuMC8iPgogICAgICAgICA8ZXhpZjpQaXhlbFlEaW1lbnNpb24+NzY8L2V4aWY6UGl4ZWxZRGltZW5zaW9uPgogICAgICAgICA8ZXhpZjpQaXhlbFhEaW1lbnNpb24+MjA3PC9leGlmOlBpeGVsWERpbWVuc2lvbj4KICAgICAgICAgPGV4aWY6VXNlckNvbW1lbnQ+U2NyZWVuc2hvdDwvZXhpZjpVc2VyQ29tbWVudD4KICAgICAgPC9yZGY6RGVzY3JpcHRpb24+CiAgIDwvcmRmOlJERj4KPC94OnhtcG1ldGE+Crb1EQ8AAEAASURBVHgBxf1Xu2zLdd555l57HwdvSBCGVixRLFFSPfVU3fenro9Qpi+6n77pLlElehEEQBAePG6b/v/emLnOwTEQSBXJWCtzzhkxYvgxwsyZmU/+9//lz149eXK7vXj69PbioZM3n91ubzy93dS96tBLGdCti5evbk+ePNxevuz0/Re3p8+r67gKgA8Ptxd1fhK+AIfnVXVP4K4M3atw1F+fVy8g6ljd7emT26tnD7eH15/V/yGar6qvz6uX4+MhfK8Qru5ldQ/xoe419OLrBmcFrw/RV/Xi+fNaw1V9VG4vayPny2jdHuLj4XSDZ/gjiGbVt2dIvf/89jQMz6uMi9vLZ+lpeF8M/ingKkj35MWL28vkefHiOaZrTwfR9IdfMA/RnqyYDeaJV7Q14hGmJ+nreYy9itbL11+/3dLHixRGLn1fvYLp6IAt9HpBj/VTnsJXGZ3ofaDrsFOKtssezp8F729Kplc27PI5vjvO9tF5SfcK/Pjob+VDuLTVOqXObq73qq4+02vdBtPF02Scod59fnvx9ttHH9F/+vobNab5aD5/993bq+fv3R46f7j0Befk66g4J77L8zp0x8/qXB+74vrwlF8OOBbCPXy1PeR790KvByTbpxsivyR7x2ecWkeMPclNnhcIFPbw2tOMP9jhgY6hXuRwafMG/5PXnoUoR6nDw8PTHE0QZSDAc5bDxKuX4Qz7AihOXl0GnAY5sZO66nt7HmyE58gzSnUVTgfO1YQZkcPf83h/Vvv+Bg62Ph1exQKlcCC9JQNHDvYCL+B7e1nDAlbH+o2V6p4l6Iv33p/TPX39tUQfgRQMuf+OdKH6aUEvdcBXIKliHLLQGegX0zNmtNZbm7MILrCqo6/CRnhVok3Zz7JTAuFX8LDZMKbnBdXoQFtbvWgeSc6mz/iYDi8n0T8b0xkASWnnu4aHo8efQKpugYCdi19HeOvsbYWenwVPljnaZRON4zVYen3hrdfT5JqUNT4paT6h33Qtob4sYF5/4wTQQ36Gzqv33w+QdNHu7+74+LjrcfwMvfZkKABn/7ueMbL++gQNhi91MZDe6n7Q8GG8easSHJ0+7Rz9gqcgAUt5VT6VLZ9k+DoQ6LEcTQ122Qh8igKD2KvnBSAjO0fMcWZkkq6DP1FVwwhqr2UeEp5gJ2TIZO/y9xyG48iEmPW3qIWrU/Ckexk+I0NqytllK8SDjuxdqYKI8GTkGC+MFrWPh/F7HBsn6MkuL+AIlez4IAPlDBx8DoluDlCMxFIKnxxBy6T1k2NUHh4j3vVhqxN89ffByBos8HPQrDUcZxR79a7G13oLN4fUvyM68BgJdXIYx53IRR+WHc5Tjs45uBe/Afva3Xb1hftJSKN28ZScCFxIZl+0Y6RD+tTg5AMq073aqg6rR5frw6YMAUd6fYV2QA9vvr7gWpCUQF4IlvCaxUhAz8ezmURIp/Bw3JkC6VJZM36S7VUzhHAvOdbEvthkl/mbC/8d792H45KnpgqAWqEcnFh5cnvGQZ6KKH8x/NB4bZr18r0G7Vc5Imeo72EsQS5ch2DMFDyJP1lelY1NXR7yVETuzjdhE+ARB4bpKySPSu78CQ+viOyXjUCoAT3DHCbmoWfKkSJ11gzuBeEqJGEsxPCw/hrU1aaMCmbyGo5zx3+mUAd0zlknSudhgsnoPCOHAPmhqx1XAuilBBLsUwEc4Rlf9/6Ae4f3dH2sOTyGf8YEV1/2KAVvxHv1PgmrV1UWfpKeR2+IDv2Bk6mXpHa/ZsvVwVBEb8oXotFYkorfbLxRgCNfkbgASjAqlyyT7hemekjDoVxmCUdQ5ED8I4WOBu2tfuA2SnaUaCTJp/FKxhchfPUeXrKOtjcakQSQkSldGJmQJsvh4BA7qAtC+E9WBuT/6C4w/nbX8wIoeSVB8geVLHAHxImqf5QxHIgduuHo75k6brppSCn8SYw/TVvBlc3N6wueAsScWxkjJFqBPMLaa3jJ2ARKuCpiQBAFiGh/+m6K0cnm6jXOiHO/yyMpTnuwDYDH4NHjMMNx0d5UBk9wXkKKPfN0wcf9NOujoL110Eat5K192bd2kh2nGrpNufD96ISd62G02lCTjBt9KRj96jvMAZw8NR0q8SBq+uZ4pmSodlmSGmcRIevKCB5egxjcjhKa6+ckoc8Cudc1CJ3AJWP60ek+d5+u0CdvhdPAfpKCZCB7Vh+MpDGYHWhOCUM8vUS/o+Q0dQ/JcdDTJ97CpZPRaXJOljB0NIrzKao6HAANuOstAVRz2FQy2JLDs1dvxF98tF59+bxpa7DP3nyz9Z9pczZuSve0JH/nFEa0RiJ0h3+IK1fl1spjQpAc+vjYVOxDetJF/2Gr77HPHbPWC2VVpbHTEPkUWzdKzeBGgacEaMHc8HOUPo/ucl0+YBaDG4EYYW1H0YxyskN4ZqD6YBQCbZi3VnKdr80XzcHuBud3V9DOcQpSwTqD1+fgIc4RlwyyFgataeYchojOGRVNdSsdt7CuPY5qykUXoLUGr3jnbDKTBEI/CxQ4BuJEf9Oa8AVrQe5P+6ac1b9Ih/jWhRoEAJoH6HDfhYYBHEc/5yljPD9kk5etfwb9pCmcAOqf06BN7BWyHubqimbcVHf0j2J48RmRk1zquxHoTo/6j1zVDD++rCmRsJGAB3/kOHqVPI0U9Bhe+HutzB7rsv73ajxowjulmBa/KIKINV2/8XrtZI8S2flkgfXqWb5oXdxa27Q2SvU5uj3rwA/kgDo2CU2Q6WP+1CneVa9MP6kFc3ddHROu+0ESJBw6deRH2zCAYFm4hnLmhDF6YOyW4a0nnrzesDnnPYaA55SZZ0I/265Q45jMqg+ljHwKoIT+npSy8bjFb9cyoHpFMCxz7UK2CndZ3bz1Ps9+XKjDTwEcOj4PBmedh98goe4YKxiOJAtWQXAjB4CHDPisNq6ZOURUeI9w+pMD4Gg1tFuNvRxytCp4XNJxEZ36cz5tprw7CkyO4ALN+JAfFkDVqR8Zja7XC81gOWMn9DgcZWN2GJ1kmV6it8yKhRHpEKpxjl54FNfTL/j+7rrQPJkG0bm26qaH8G12cRhbH3YaTOoiB5vo8dImI79ptiIGRvbig0xb51T/GMgXr+xlGmezaAknPT95o9fLksS7aanp8PN339saTGA92IGsr5GJj51CXyFy2eFuQ21hGoim6UlfgBf9A3/44nPKRtOdQbaT87Zup+KZRetOk3YK1zmFsOaD6Yj2ov7Ve/V6+vo2BbYtCuTidE6vH8QJ9zh16HpGKpgIMzrhNSTjSJZBU1uHgxGeQR58ag37L7f9m4Eoz/w0PFNQYBaUjAYJw2B/mW9Ig89ZwK9AX/dql/ZGWRsYPTO87Aps8uBnFy7D7ZKzIKJ0vXWFzBkK8/atLcK3TGbXsqqXJaG7XgSyfrL/XYcjFrrH60DmZB31V7bnlLe6RbCgMSNoxD7zdfAHjlOMxj1qVCN5r+8Cb6bknGmjaUf2uE+z4GKm6fhCa0OGjEPmPTnwuMBAq/kyM22qGDIjMQP3XjnvO87RYKkt4eYO9TP1n60kI/yZpkXj5cv3opN+24l7aNR9aPSh/o2YWyrgsxBpKB2/j4rArECfSXpX0k3t0y36hA7MET/o3UdNMHS7eqge8a5LGwYx+rSBYoql3ADgm1llkdqe5WjPE/hVmwjVBAsRPu4KAb8ew2Obm3+86h4QPSw7OE6Zsmj96kuog8H1QVnVFPeKMiDpJfuedUVABjXg9Ud+C9TAKHuZGcEL66Z1j1f6dDHGHbuuz6oorG66Pjc9EFiUhv7FM3i6cQkRKnfa5KHXORNEh9DaZ9TtwFUd7tGHt4I+nP7uRt/aS9s8Kk6C2TTqMDoebeciE9Tt1WYEwTDaMKnHQ//qxthpmb4EycUfmAPXAS/+ctK7bj+Au/QUMJvQwaaC6Bxq56yG2bjqM2OAKxWWbHDg4sh5+HFNzK07Cjz3dGA8o2AnRu42C9xLk3xSxO4p7r5hbQ9vvrGtbRE7HfKTuqF5ZOmicudX452+erq/l/k9/gBfBewgPnjb9R3k2ZOi+FXRO8Q6IQwYB+Oi4OJc2eF9GU/Ta+bcgE9xOlu77MLI8OQ1hIMvVdn23DBY2r7fPIXHpGZ86YbRO84qOZEp0ubmwW3um+62+yWoOffgDu2xm1Tq5lgXYkp8IRYC2JAcwIKABvpfVnJ6KR6/MoYRZrQA1Xf4vd1LOCUWZASP0ZRjAbFxwWLjJWZG14h5dTdf/8C4Ouh36aLz7URVDa8AeNl8aKRnp6OLJ++f3SmjJEc+Ro+b84/r4dTx7FppAAcrkjg/MIs7Ad1LtWnhmAUimPRYpw7VucatPyOVAnS6JHcnSzyQXXYa/wMEeegOQ7DsgwcsmO2YJk7gcD1cAWREemWtU6A8eS+41kRGICRgJCM/5jWu0Ts0r5MAz4h4uNeRDuzK3XdH6zxkqam+LrocARgrVZ0EGY7On2FuGbTI3vzaMEoNtT7pxtz24WOcY+yGYaPJq1YH5vMjkoAjdDEzGvoWPFtXvNd+fehk9Y1CZY8pa4BpjAB441n67dBRpYxlXgIBlsZHyrGGmCwyc84Qn5NRVu0PX5CCr9tQy/msOj5G5/RB79zbOsabAULmZib68Nax1zUK1GGJQAPZZ+xa8S+Y4nWBlNNsyA/PdrYklCNcQRFfRqFwLDiGHZ1jeGcLptoZfFu4+q4cGU1R7Pw9Md2JttEel6xD5gUg/PSB16v1tW7kbvr46PT1GOp6OQbrz2ggeRgFskD1NcIXHy2Uq4h/x643je+obVNaoBtla84GC24BibfadhbsuKp9ttI3OUzdmozWX790l97cJN3s5Z1AjUBuYzyUgARWL/rc32VfYgy5Ixn4QhWRmAxgNyO4AO0o4p0v7d4bnvCjDkzHBV6n93Vbla2VtbbQRwxj9xuAh3rI8jYO9+JShu3eFwXQtqVllRBS+hQXkcfS6X0HboIvAGI7xmRiU6plpzQ5HGyXlWbn4Tvn7COTHdSHF8G0rJFZxwFvqc/wdEqk2fqq4W7qGO4YE044Tp8teC/HME9n3PEc3hcCqGuvOWTtx+FzqogISn6s3x554WzrkKwIoAlm0X/4OrtwdFHHYOgDDD4Zmy7vZXSDW4av2rhhRGYTennaBtzI1bZHjjpydijuL2xsaoSG0Uv73i+HctGu52YI4wmftYE7gMexQkQmfzj2WE/ijn9hf/cBuo/DRBFYkkTOSW/5i5bYnp/BwSbDOT3UXjA8LzhM1ZYs48PodWv9Q8+bgUR0voq/AqssRbApYr7iTX+4+zszjoAr2w0M52yj4jDTSfZbn2MLYntV5X3nzjxUoMAryCdYt5gXXZtvRtXf+onGTp60s8HYggfac4c+FDictw2nJv8r+j8YFZjTLmu7JnfH35w+QLj3qExHwTQlhxNzRwxILl7SNFJYn9Ceq+t8QVFmwwrn02x6MkeJZ84O2/J6rEwhnOTiVFCcEhQk+ldn1D2BjgbkaISl86dlcGWbKXky2+GTwe/9ZSuZ2Ha87IYM+TLndDlSq8RTfavYJgPEF09HB/XBj/pLKySyq4nsq+ZuL96PFsMe9o/DhG84Od8A41MSQwdxRX2nG8G7uOvCo1a7txa/VDW5dAl+jscQnV+WOfiMZtXt0ZwL/fQZApscNEZ+BXn6wcdEVeHlIn6F2IJnRBBK9/nok5dhedkjPPXdY1P1sfS42cbGaLrlw/iyLDhljD6eI4GUMr2K9gVUh0sizXzQ/4DHn9NjC32fmRkhiWHMWafYvr0DQa6dM06wDDb5Q7KbhrVa3CtTVMdl4HHYRf1kZfluSscojJOHMx71cxp8KiCUgYJTEX+DKStpwMN4MwrpUcXdMCfw6gM3Q1w4xNVxXhkveIJReK/J1+UhzokftoXtkZDVHb/MQLBHk3x4HtJAaj8CxAvjCfTaGBKZCcFATumkOfsWyI32y861EZPxNurd9TLha8EjPMMANt25Kss+2LIN7kUJJJef02tcHPc2OLSv89Ov+ouG69kuM55HrJqYmxp5sqFkKbmh87iZQflDcg5EJyOdTL7gBR4GLAWo2HrF+swy4RgPTX4TDbbrT1+FflwL9N1wr+WpJURBsh7o4C/dbpc1hz3Pv4Xj/YNna1g8kxmdaAuuWDuyRmc2RCeY3fMbTFw4Xsx0+ljAv8j/V2o46bOrCXtdvmydQnAKJYhOa+eomGboBDFp2kN+6q2SORjFXpQRDnLMCMxlNbiOpmtNGHfiAYIkWUxPKLRVeyN89dt1EuTheHSEpgXL5I1sT16rjUPv7/Q1XZkXhS8uYawEEV70tp2arFNssqJ3lHps7BGMZtnjWf8TLAVkhrDVe58OUd12xmSePUKC4VM3/dFj6Olmc3AOEm9xsBuQ6G+kYvD+iH0fHfC5EV5LaKen2leCX8rLZE9zHCa1G4XWRqdqEm/ljGoH95FRkjj62rosKHY2Smz+r6PXYKBI03CzoaveHO+vfLmL3lQoAkj3+ksinn+UAvbM5DqR63Q5SAJmW32nK90Psq0lw7epXztwA7KRgj+zomicaSGXTsfVDUbSgA9qtPhVr9GpbpsT0SBTqtz1fPjqQ/Z7MvsFvYeieK4DwArFPeneASW8aFva+oeyQLiDTAmY3fDIeXJkrO2xbcxN4qE6Toy5QVRX3/sWthuvM0r4lftNNQGxLVf1vZaBCNq/NjgCPgoL791OdmJeFNTcDo2T0SAG3ltyzeD3IFwVw+H9QlvfS3vrc6l8NATQprOhZKQuL5hzPMqtsiwd6uF90jTKNDVux7u146PyoztnHW8FYNOtp+nz/fe6nzEeSwjk175C9qODBe+wyqL0j4eacyQ3KWeR5F3Aj9fwBDObBehPgZ+8h4ZzlXQRv/TMkRyDH2w8gzUCTc8w6YO4jv1zRFXDsxG/KwtAbXkuvzLaWlttpvPYdRN7yPQOdllnlx44sb7Dq6S/nUBT9LboTVu3+1amoM9nbV0bKWEpn1fXfSFZhKwxMV/u3NV4CnD2UXdV0pa1LCRHNPBHa64HVnc1z45sVxXDYUyAbJRJTbCqn1mOwZ41dGyHonH4mR2P/mRNNGcqXbb6p2bn+teSMZ62ObFFYgG0OS3G82CBYvMiFAdf8Ay+nRpc95rx8JZzZIETgCkJnNEMrQ7dXBNAMFWug9Zl/IDke89qbaiGC13BGS842OjlmnN2NGKSgEXIdZ6O6HowOdTIONaf8WLm8H3Y5GQe0TGFNG1Z28VvwOuXNFtP0ve4wHcv/HDYqSDca+dI0X6a8Tw2U5c5svWXevw8vNkNRnJd8qMpMA4+EB+U1Q6wZBIyW7eC3cbQHX5o8AMPerrr4yRZ7MyR8xEXplzHA59Ki2cbGu9F9jZYxng9AuEp6w+fftl0uGv0kRPOxUabyknoJcmHnjR/+c5Z/+yTMe82/ci/JKMnfRjrrje+TMtTFHb5y0VnREcy/IGAwYtNpPnQuq2htnnBkSnQZxSxOStk4zrXEhCv6yCbHcLHGWOh/lSq37ZbR4hDJKtwD2CkMBzsfRR48/WH27/9/S/cPvvW09t3v//O7c///Ge3937+XgxnbE4Yy2GtQ+cho/Nl+donqDdgCNfOGfZYTH0846QpFFuH7elmSQCM+qu4hkZhNwFkx4iRsDDU4UL7MNBJlY0Ll6z1Sy7t9wByLYvCsewOeYLbPp+RrBFrNMX1mBOY+4gtEJA6mxGMl96R7nUeHu1IgjHdEdNXucshWBT90NjU2DSm+0B0tB24cOD5bkN9bc8/8jsMaB08bDkZHhoBww8eaXytVDFc4MhgKucvfd45xJZ+j/B3Z8yfPJ0+h6YnKHqb2evNX0435+gcf7K+Rn9JruTkkwAChe++Kmj2MZaSx0MP0G4l0LKCb0kAYm04s+0ph8KpwygkHzC8BCVg6Yh8BxzQ1b+mKhc8U1b1c8HLGD7NOeW/6o6UdY6Majfn0VFTgj6CJETbhYvQHuAj0hR5nFX2+YPf/fwCB/Xf+LU3b1/98hu3P/3Tn9y+++2f1R+ii7EYnTIp7i5QdRsNCHIfhil1umCwM9Ry1oeUdUyYEi0yo/1BDaHTJBmix/E2lKdd1WYTpqpT5KWmGS84eJjV9IDhGc+H6Tb92nwE7jrh33ZwunrYva7g4slUAG6fbN0jJgKua8ZZMc2J042GVWxdWttG+AFQgobT5zhv8lV1x8HNzmPyPgsjvbPLeRL57jaysbKeMXzIxwP0e5HpXO8pD3bs2r2muyOhfbL30a1rfSlRYFiFkkr9pKvNaNaYs4S4qRTdpxM+tq69XWQPd8NZ2+wHonass0X6ftWoq+1JnwEa82/3oSe2yVef8tNkf1oAGdFTejZzwlOObK4ey5jU6sQrTuPtpLIDRb7Jg0mvvKEI6aClMt5mNW2ML/JSfnNHiwPzzT0hENO2TmQuTx8cZ4pYCmoQDT6ktXMsOL/xa2/dvvi5x70JpLbN9wf/+ougb9/765+NoY0geKn/+AturCW4AMOlKd9KALsJWT1ja13Wiqfd+fdW20NrOMG4MgeII7KHmCL3ITp96IE/p5RtdTIEnMkk5WmnvNceXtuOi90oI85jcGqnl6EepxR7dJgJXxjBOQwpoqdtC9zOl931Df+mP9fGzXQe7eM1Qx2IAMsu/d3LMSqDR6O/aTqHefleEpJ5o3DHkT66lSykAzacvDibstVX6CcHNJpsHZRfrP4iO1mv8z3JrrV/SVSSyF1nQ3T4ANyF1nTKk7dTZiobb6ZZ940IvsOe5Diik+vwQGdkYAvIl9gi8Co/vT33KmGE+/n77wbapgKDtomUoY5uch4BgYtTHCcVbkfz1FTXyf0j2HQBzvudTzxNz8cx2j6dw1xoU5bMI2A8P/VygZ0aaIOhhwwbHALPzgqmHGrTk4TYxxpq/K1vfOYg/YT3f/Ovv1TnJ7fv/vVPx/BGmxjrv3KEcLbpCYdLkJMBO1Y/ZS6Lg4qXa2Tin2fVHFR6xfEIOHQxfVBjfN+zqEpwUGzRKMvNSB90IuX1fzJgPWzB3h2Tw9mBg58zU84+Xry0Ep7obX3WUduZfnYkDMTxyozmHngZ/JAR6CoXnyDX7V4PScYkxdPJXypr+tZSOnQnOATC0kLIjy7TAT4mJ7of4ER2xVE/U1Tcsf98AHU2Ubumw3MVoXzkTfse+nRSw54aqHWzFH7TDiU9DLdDemfvBW+XSK0ZRCycDarsn5H3FEzB8/RJH2HoCYSzGRW+PoVK72cH7nQko1kBCfGnOEdy+A8Lq1/b4DNJQfhhv9MG9DxhICPytjBmO7xPWEINqhtQTndXN2EfHjzVSmlX9qd4Ai/yz4i1TYFw/u63Pnd7s8fLf1n5N3/wxdvbb79/+/EP3r60E96YMVVMtuNglBkShibpztHtnOOq2I1GdVXs6dw6+6CBbfSzPVq/+k+JFD+LH87mxOEgO0Vusa3pyuajORqnk7VSg0mGPDoQQHg9CMJxD3T1cbGnLQLYtAmRJap4ve57WCBzmO10mW4mwzZd0PSBsAy4VBVN/H9QOkdjTNfotJdRPLLtmvbFGdX4O2ur046F4nwXujL+Ha9LmVXhXJNdFo/Hoztt9C5RgIK98sjXCR5V/MT/xkqnddiOWco/8oQrReJ8Mxvtyb7v0qjj1od0Cf3Vn53dItl9svQvQJ560sCsCQ8FudmQzwiVzRvdtFVf28ttgqBGBq9TNp2/ZD31ybdmNlvXAAV1Eh2FSdRx5FXhTOby25K+AFYva73RAsxd3EA5wIav6m0lUuI9WMwvTTfkzS998c3bt7752eH+r739u3/31dtbn2urMVyxPW6346LjkaJD9ZTWAcdYvJoOX8mxnbh5RW148TCr6UGK/KBfHXW+RtFNbUI0/YaXk1HvZBr5jJFhKC7S68u5kTFFwecennVOQRCF4Cj5OJnHTvaMls2Y+JQDJCQG51iDTZ/3YjpjyrGbfxwgnrzwPR19+Cg8du14QoVi8PaME5WFH9LBvochAgJRESB3edLW9EtGJUqPutXm9Qt0q7I+4yuTRaeKfsd+jrUFt1nJlMvx4ivF7XnEciNWJN7HZyj12TQuLPXFI7tRqzLu6sRvC5XhNjtgK/55Hlo+icD6cs/CwbFNsNZHHmqWlDf1PbrkB5H4kLyds3X9+t8IeR4zUl+dVw1km1F2x30XKZtSYoZSlkEJaG7a11Jtf31IU8SEOIIQbrBUlsE41r/9t03JfsXiUYc/+qOvsEiIwkHZe6UuEoy3i3n0w8uZDn+X04xpAY35gwegadKCSCYqU82x4zOVT0iZCx7lZFwtxyAv09ASTG16PL7Sie3W13rR04JoML3FnynJRsJ6cGe3BGRRGzGCwo7QhIofgwQv2v0eAR3sNg7S+Us3fmXVGfzi8y43O+VoaWF9HMNy6sCg6ZUTPVkAtW6NtyXI2o9zBHAV9hQgnAMPR9b6165+dhGcC9BkiG+mAek1J+96U65qZiXdgChDq8PR+2wtATeVcr/m/tQAUnQ1m3DUK/GNFDRw1s4u6oz+bnfwYesfiX5PMpBD4pQ46He6txZyuyRYhPDdgS6WTOpyl4vMksP4DteWDujvdUbOMQPDnLEWweMrhDjHXXEEMTRuF24CowK43aRem05VP6et/g//6EvdA8Lcr14++5lnt39lDYThyj77Xga4B/PohXuCXgae5MB7bejVlyx4ke07yvDbhevJic3b8a0LR92Ji0sp92NVZLLVO9kunqa52pZxo8MRX+vISe104dXfAlSwInXI7WQfGaYXSQKLHNHUI3miFE8ZZTw4jy26ziE8fp83ITxekQCwqd5OOYHKyNHR/tAXMCWzjk/b5Hjo6QcPXe5De5cu8bckVHdONqcJ176JCA+dw4mxe5IZfXXje2TXd7OWc3nJzsl0vfiry3DFE1xmCgsCI55d3XQm6yuXOCc4RgeDR0YjjfNzbzAcdZk9SzI+A7RRiF/iEV4jSdfuAfKL0klip9vQbEYB7irT40X8iHgCZ9vhVRz+Q9MZ3aUDgYKjY8g9aXwhAyywFvGMSAHvvNfU8jg2KV/GtOxqCP3d3//87Ytf6ju3/hHlN7/+mdsPug/0w+///eVQ6SicMsW9yHBjVYXqsX3xvjqKYaRe65aKKN8433Vnc0pWvQfQtmVbZe9xm8vpwRkgjEJgN80Kab1RuYrrOxs5Zee5xfR1pkD1prucxGiSGc86p0BYtuxJhGV69UYkIwkBzd/hFfwLmItmGdbZFsv4AhNe6vEazbujqfPX8WyMWDt1LnAllvAumx40sA4fAmx+dyq1R48XPjiiAd7xPr1d0OXQ/EhraKj98NbVeCPbFQCH52DjRTnTNxoKAx4DQJes1kDNezYD2oxHtKyTycQJ0OeNsM/4p2lfATTZ6scRXu4DhPGbPp/0UG87+E3pWg+ypwR2yT6+o4v3I3Q1KnsbL4Nf6xHj7oxHQacjQUwI0tNBXKcFWsCbr3o8ovMNt+I3hfhcyVe+/tbtm7/1edT+0cUW9rO3DK80F5qUZyq4na8uj7MkLsvEl63bzePJ5DWmO6n/MmVOQpKNQKZtLVA3FRiuI+HgGKu6veAJNxeec3S90QxPIC7aXYwc89/v5WwhS1+VZdGyviIIccKB92BUTjNHHn/RXtAyJt6PQ20q0bUR0EfQ52jawPTCt1NyH4qukzacpnQaT6YsMcSB9c+tm4q+RGN+TJ45wNXbZfyl0tWHZgIu6MgEFkyvzQj0r57mvNhk9jnogB5+uj7JtX6d30cidjOq2uJeIqODHP7cnK9P7XZwEd2WevhZZTdkQ/QyPiUnoYSW9TgI3+x686SJYKl+uztuF+A1nvWh45e9WOUuAdCN5vG4QaNr+CaOuuhLAsz/jC4eGyHstU4RkYXp5mKrDkORwatpKrF+HiK9GDLa/Os//LIO/03lzb7u97d++/O3P+8mqnnwfeOAQ8zZwo5HxqK1fUfXLF5D/H7urWe3t+zwYTe49/sOsB//sOfGrulRGtDQhsZrtzeCu6Sq7nb7/o+6W10WgZ+C3urJiC+7R8Wh+hOAW48Nujc6g8E/3fVnbJCIfvjzl7e30w+IL7z55PBU+4JDv2hQptiCG03Ax7hQ+oP+ye0HP3t663b1RmAjGJx7BixDghyuq+8utfe6F866ipwzjSRPclf1rKn4r32pnH4Bc1NlPDqJJ2ydUzo/gNYZ3/6+b2M8gfDoGzkUnwr97evp13e56TEuOyHju+14fefnbeYc58qH7Z4Flx5Mgb/5lbadQ2CdTRc/fefl7bs/ebfgMSo19bSuqR7NL7S++dpncsiMhRJa3//756OxR3gw2Ff5bj3VrqV9vYdnNg34dnaNro0lXxnAL4z6cJB5CTmK08WHdcA/0nu9kyHwRWK9KPlky5SGIU4ToyebPGLY6ON2HCK+IPGzn33t9od/+KtvEKD7y8pvd2/ou3/7zu3vU5qncQnEKBxjhrqcgXtRKq8ej9X/zjffvH3hsyn0Q+W733u3Jxp+vv7nxu7t9ge//daM+yGwza+//yNuSm5PQ7x2+9avv/lhkF/5/Hs/eP/2n/86kjH/+9944/bZN++u+SujeAT8q++/d/vT7x4FCMfycXphO3rh4LknY7imm3N67BkUPc2pa3tWtL5oyvLk4fXbN776+u2//81/nHw//Nn7t79/W/KM6LythHsFy79Pt9/8srv/n1z+z7955/bHf1vw5Vv9b3R50aLxNz7/2u1/bNr/0fL/+qsntz/727fPzeZksK39lR71+n/83mfX/8Pwf/K9O+48u0Cz+/t4b63NgzRUvZlNeol9M5v7zWBjGH3ey3zORTz2f0rtG3W3QE363Rcw5E0JJ5jc5HO9uvWvvqNgW/aTGdrBeKPA+Q//w1f/wRsEFyufevi93/n8tUGB8yi3DnjiFU9zmMdskzIME/3jbc7zEay/8bU3bl/9qu8+lg0CFXCfUtYfTO2fhOtTun2setqydvF61PzHwH61Cv29bDb02lMDpn0ydFMPCQ6AuMGzwL+XObTmeyGYqUf3gPY84r3+H3g8dMrg9dtreF+V8J/cvv6lTw8cZH67oKVhbE3PIdg9nfp+Uvm333jz9lrTMBsS963vf/cbb30scNY3+U29FgSh2w6caZxABSBY2KTrPcjbtHG7d/rVPH/n9+D8iQn+pa3jNg5qayZkrknhRwG1BnJ3wBitz6Lv6gzJEMBUn2dNe/79H/1agTO21P7fVn6tYX8bD6aIvEEw5/S+AJBj3hf7NYwmZd3Z/CQm/tXvfeb2+pvH0WL9U8tG2jklxXwq2H+1YZmekoP8b0DzITplxfjyqck9qZxD+FzVNhWsGa4AQmyOvePVnYErs3Nwvo/iWfra1O8C+cccBOYveHCm+PUv9PVQh9ynovxs0+GvtK7d2ucwXGIT9J/c8a0Sxh/0TOT5JHM0suOvf2R28WFiZiec3Ixq93jaQDjTvYKdT1tb9Zo+BVb6C3nBw9fyrtg4QRRWOOLr6NSxugC6EX/u7vK67XYkyBzTEZKY2PSNf3Y+YbMfBlT997/Xk9JtMf9Tld/55lu7t7TFX0JuxwWvW/CeqcoRqiE4/pZVHD+h2Dr/7wogC//9tMUnwFDmdl9S0Az5ybb8hJ4fr5Ih91n8gv1TWPp4p0+pYZX7PZ2z9svQOZtNBI+7bATaontWly8fMaH9C2KoaGfqadnXlPsfXSAN1blN0UUOZuT/xpc/7g8fcPMBtW+11mKz2Y+/cVCO/CnlX3/t9dtn+qiFDYR//5uf/sjXEZYXx1vJa88n9qiOr6p6fNKk+n2I7hqBcojg3B86L6M5PQ8XGeFy7M1R4YuXms+QdraF7cscCI7EEFO+XtORq1e33//WZ3vgs7njP2GB/8tffP3249YhZ1u1TE4hLfBkdI6T1ntdEt0l+xSevvD5Zz318Nbt23/To0AT6iOAduMqe/+k9gv8L7/TdvqPfdgqJQLOFhxcxlvSCcN7bUN7jMd65D//2c9vb5VkgA53jvLrOc9X4+ej5S++897t798xrQzyGgF//PbBq24OV387b+e5sAM654Ns24P1jf8jQuf4u8uDAXx2+P53fn7739okufWxcF+y8SJ9WpaPxqXL/+l337p9/hPWa0sybaFtU2fzRFO22+2rjTwfLX/ZmvN3mjp/uHyrqd3/9zutaaMzlvb+YYhfPPfZpX/z1dduP3r74fbF1jufWggaLBk3fTNTqc73aWzU9oEim0eUInc0km90opDUvmlhvLhk0/kWBjs9tUc/s3vVG6ZMeTik3a0p2lsvfmk2hx92Eflf/kKLzZ6W/ucoX/vKm7cf/6zbWnamCOB7u3xyMqVYe3kS+f4UwK/Cz282f/7JTz8545oL77ulk3E6+BSEn7XDczlgE6Z4o11FsOSUbXY4j91l43f+/v3bO+92vyKkZID8s288+cTg+fE7r24/SV4j/rAaUUxpxpAjEya3KVNlu5/ZB7zpx2pNSzAyJzr0qqjqbv744Ar1ef/t7tk1Aj15K3sWRM9bXW/aM5kkhJH52Jtqr43WzgP8WpsEH9Xbz5P7/yoh/NavvzF27oje7CMbXy2h/N3b2SKmJ9Mw3iE+fvzd1krvXQnu460fqklug4tnHG1xN5C0LZ1Nt4GQf/Px5DuBH+USxyvfwNqWH5n2hLp+dF2FOoVexIjrx+C5Z0sP3GmcNIGYpsl+WzzN6tknxn73N3+1Z9aG6r/xjUH+4rsPfW1xghgJ+/YUinnKQWwMx+KL6hnxYvGXUgRv+sZYHyt+2sL2u/UsnJ8EU5Ps+kkZ9o7vZwXn23OK1hcRfOghQLo1UPqoOSP0/4nFCGJuz7n3/XH1m1z1XQARoDKjdu4BWiHxpAEk7FqybsFXcqGozeuD201KkPjBB9Cu1ztYPyjl2iNYpjr8YDuvwD6hbPEO/9UG79cbGT5a/qZdR7J/7yfvb/v6w+3f+sKztvR7+jvFUAeZflmRC940gvxXym42p4t9XIKiU0UaKLe4gVpnCihhTEeWANaOpsCkppiiTaIxA3sqgHBnBKlgURv9hJXTyYgdRewqeztQIKcgLLvP8XsFjv37f87y9a8kcdzKsj4i4QE/D6US9KGtbK8ZmqJ+hfJGC1b6+2hJBedp3PDtObiPAvzK1/GRTlcu/dGjKaeF+kare/tHcKqeHXhK/Mz5Q7eRqL4bPTTVxg4W7Vv/9ISCkWeLZFHqdafR6awN9+PfGWGASIhPu9/xpAB6yJl8PEWxA/ZpZe5xNTp/I6f+ykc+t6X5uz9oV6+/7/7w46P917/cWqQ209/jb3r8YhF4n1Y+vS1/IL6gTDbJ5z6Sm+4+dH/Ipot1zZJQN4/dpPZzOUYhax8BtbgY9+GIDQninoyOZkJ8ylrTWBWAduh4CQbsC+3Df6k1yD93+UrTRNG/O98N9343dY+a41X2Izgl4/UTyruNKL9SCQ+l7Hulr0c7fqV+HwWiu/3RKXWe7X3PssFf+H9qlt2opE+yMSLH9qxhVZUCkMw7680pJ6nOpsGmch1l3t21V38pZYHg+nQfT9stk1l71avgLgu7F3LpAZ1PK5xpCr9o/HprGD7z4cIkv/Vrr9/+8JtvtAv38fWdUeQrn60+QOvtTyo/70cGvnfde/tw+zs9p/ftRrNPKjANW/xYapjpQX9utHZtZLE5IbiS3Y+p7SHS3GTb157jLBFxuDRy+t8tcPF5pm0fZVrg4GjhOhZmcO73jW/+kl0Off6Jymfbmny90eK9FLY0VQC9auix9tvOWycWej5rdKntFzj52xbFPldk+/uXlpzbfNiHybZBYQT6B5YZaR6aQSqe1PAAo523rUt4VArm1p9U6F6wkdPxfNLzhOJ4ugfLNTrw2D0LVr+FPhX5pC/ko8n8I3mCLJHsPP6H/+Frx9lnfxC3209/9t7t//efftSUJj1YKARnbfbRkopub9NNco3XePj6Vz4eHDXffvs3fnGj4KO4vtHo84OfXzx+skpu/7Gbql/7yL2j/1Tdlz5hw+WM0HQoiRy5bdr4kKYfaX6y57Qa+xup7d/eCs79iIHp29NGX7cCzKxelbjix4YcVZ/RsYoumCcoijlGooTpsWv2Jfg9G2jzyMvnGnn+pcpXG33+xiMhOJe+C6Zk2lRoC3a7Kv1NyI8ymWB/8tfvJMPTX3qn3zBfyimAwkUJXp9Q/uQ7b9/+7sdFruZwHz+WvRslqjofZovPKfTUe7h1NyzhrH4j+ifgPhSNFxccB3UKNq99JZX2v+br1PU9gHiMbApE2UhlI6TRZKpLPuemfK+Z6n2ovPHmW7c/qO2/fLeHJjP1N37j9Ua9O6YPAH/SJsD4qUmeeLOPq3z5l9x3+aDnx8++0Yj0H009Q7g19sdBbj/qd3q+0+hzv/n683Yj/+q7b9++9LnPfQx6Cco03vBOvPjbejjdGYHonl/vpxpLthsjrA/zpn0zbmemdNZAr3p47mwGWX9Cd3xsIIsiwzykKXwK0eI8rPYeEBLFX/61X55BdPunLJ9rnvqqz9ouyCmEo79+An6/FJZyPKj6iSWv8bDhH//l27f/8Puf6SZhCD6hmPrYb923ZQrGR4V8FJixa9Te62wAWFxWX0Uz5pwzA9D49HfWOff1yv35tI9idb1FbDg5+rI66/rveP/d1oMz4IAOTPYCk1xb6FZvXeWLGX17qSQjGdzpc6Yf/rBs/rWPzyS+/hufvXn9svJ3dgPHlufSXt6+9gkjwC/r/+G21xvd7Lp976fnsagPt+0cnWzy//6rd25facv7aRHwk592myB7nk8Mf6QHu6T36WVKrJ0twmNds3xYttuMIH3tUZ3XC55GnhN4pjP5mmldAbRJdjOeemZZ0++qonHtthniawjrIhSzHKItS1l8PhKxz/4LjjrU84ZH9pc64k82ThtbDJbqTWc863V3VvAfLuTlTM/ffXH7k4zwb7p38UklcTfFmrJziqT/JLAlNFny3io5L5hAV68ntW/4BjTAA33vg6dPLBSePFvMhqR9sOwhgZ2RSyDZOUsD0wPkNS0w0sJszWimLPvFhnl5zmMzoZujYPT98z/72e1zn+vG4z/wJveP3u6+lefSwiEYsfv1L318RvJe9+J+0kOayoI2eP8etLWO+3D5+hcfevgzRL9Y/QjypPmTHdXv9izd076rTeBsRJiNHsE+ODHydLUn7nk7vNYwmEVGBOXTNgTMBnxObaTrdz7z1ZPnddnngjo5iTJL5H9QGNSecTpDEe0zzr604uA/BOtI0Tq7yfcvWfYkg8Ws+z1lq30GJwfZ07eJw0dW4v+jhQyK6dUPf/Le7a+/93D71kdu2q09sKNQ6tHnjlTrB0VygZPTChRgezYrPak3bTLAG8j20Ww83WMxWFjvPOn+0QL/HDNjbaGPDqutoAtDhRMM2eFF1eb6mWofu6hNsGzVnPO5i+5LMDZCd/7Hf/yj2+/2tWBf7qvAfpXy455w/v/8dTc2pQa4Y/Qz3bD80me6/kj580aJv/jbs9Pm3pkPDnLpP/qdt27f+sgs5jdai772X97ZuvAjaD64FHDZ/XmjAU/0EfO7Gj4A6mxGSWaBUJ/7kxlgtrGSzqhto1bJ5GWbMttdq04GtiO6gWQPkVbXqLXNgxfpro57CLfqjTzHJrLXXQGdX5kBPgLj5597ezrSv1D2/Jxht1q8+lyR/G4HbpOiCe/OvvnrL2bC92WqaXqudPvr7767+f7XWqzeCz34llzlJOsnn3pD7j27d+iFc8rMiXBzrp3Q23nJaVum7PPg43jtz5Plo4VRs2c9wta5LxYRxqMlMNHrcrJ0cqZho3z6nNPTntE599N0MWcgf3b16D8tGDnfa7H8x//xR41Az27f7PsmPtPO1xutCx+DM1p099O/f3H78797//aDBhyyYG+kyg5fdsP4I8UGwH/5Oz+HGJPRkQDIho8/+XZrlWYxn20NfS+m0Z/r+h0fDjxd7k19/EhHspaOyGBa3dEU+10/9/mR8o7Bjv8alWo3Ro/DRh4bKhKaXbfxrzvGgn/lSQM6ds02jjYR4DLtu0an/Uq3kf9//X9+tz2FGjEFz3V6XR4NwR3w//w/f20w/1Jvz8vC/9v/8deRzwEKnAmz7cS52oZU2eaJm5wd8eyusm+W9PgF2RhG+HH1+349g5D+TIXAyC4B9trGjG3MPNpooI/tYL9I4Dczd2MtOpxxOMZdb2D97XgCgFH2RSFrGUic4Oc6j55Nhed8qkX9vlwlRB4rgdtb6FZyxx3H5znbNM/pSQ+1k8PIleDupPsCEL08ReE6hZ2eZK0XXtencwHEZ94pSfiliJeNUi9yrpc+oUmX64kh6+LkC4eHTBekY/Jwer8mwQd6rUNdrc9k/OFKh3P26vf9AjHKaY22Pim6czQ5Zvz4mIqP1j9rdHCObza59SWInqLex1T2WbP8wdqle4O+RkAgHR0cfmeT6GxbH0/pq4yybyHFO573xS0+2p3t7cqdbyjtU6uGtD08h7EQJ0+Go8qQHPnHsCj/aZ/f+Pw/8bNsY+NT3n7e/FnGobx9a2TKedWW9fkqI5LHMgFSXnkix6mKUXwyMSWcL8Crjly9+YPOS9kva18yU9rqU+xuqmkXQOGj/j22kQPiZ5np6idW59Bdrwr+/jiINo5h+5OxASCNZZfKWAnYOke2FPDbdq7vsm7Xg8G9/mPynK9/1wfXhbx+/IHhLeyR2RSEY9BjDj8fgFR7AUYv77Y2vFisIbhL9n2HWT6D6QUDfJDCbOZStrknofEWktERiUD6Mxbs4+544Ph0TI9HsFAffQ2+4DQanC16APESfclTEny/DOOmMx0Z2P1mD0SzScHkQ24LCCNaWhWslwLH775XPD7mD/jotV/bDteT+2+/Zmf62zdI1Z9fiZmeHImhWfzCGSOcA4E933OdP0pGT/+C5WFz9sblS+ANrwzT6zhX/DfEnkIWgiZ8SpwMGX0OmVxQMKxvyAE3HODztrvhVW+KUPYaro1AOXbGsqEi73qymZoobXi8uTb34zy8QEu63hXjqhoDp40ZznfB4cVoUXNIziMwF3/wwwu/w0HpLDnUEGjWG0U1YMi35sIR3VjK+RzjRsMQdeQgHe64VOORVEsIgstT2NP368lvWhiIemJcVOkOvGkhp7saRwYUfsHqI1jH86aY1a9yyHYKl7USCRaEpk+6d5yKC56NTPEgyIxGL3tOab+kfW0QbJRlf0XneJpGqipFbDfZV6bZyZRYJGC7exKln1vBq+OTh/DyA8m5+dqzOZZInlbxTqgYQaQXY1vwOrqB9i858nz/B21TM4bskbAWfMuUeLX+qUnGoSZrIqMNNWkgnp24ly2QptMjXpXHXo6MwVmFhKwmw8zpBlsdxUE3RaeXsiaDbgODskNATyt4ugqQYQ2Aexp9gIGULT8AvUZ+HbT14roeQZkLn4pqOOUBYKdl5bUhxHYnCOAYjWAXhDEvMWyTSLJJHveM7C6tB0bmnEutycrFolw9rSL5ys1ot9rWv/Wio37BrjiveBdUO8sZ/VDvmFFTnwWXKv4Gtr+tXeGrwnTqfPUwTOgHu7cD7X0M2YEF2+tZbJuq72vG+EnTdbOG0TDCXSPIZitzAkiMR4UQHczvqylBb3R+LSrwhRucXyGXSLUJzmcyHKYMV1sswSfigmeEy2zr9IMehfjm1wH8y5Qf/ajPsccbY+2nOhJ4z7NdT2i4Yzxjzjjx34jA8SjlBFrZA+us1P8M4PJunGDv07D7DpmtSZCy7B5lAR+SfRtLJ0+l8GD8YgP/SZ1zVDAHf7w6X1tvGip0bhEtCDa1VFfzbmjmFRLY+iTvqTsA7uXpc5w9xz4ij+8FWZ3m6DnPoTRqOg8W/VA3namKTAWP7LusDlTvYPxJPo+juGmR6/lGCu+h8Sc26HrG0AizJ9shxpDeHdF/IdGg2YXrq3V3+wUmbk3TlAV1OoGrhkx0Up+22fyAHUU51y/4BoEjkwCsejdATdWBlNQkWw8T84ElvOoVcionmIfw8FACOrdA2lKH8d3WQJuiVy+AJreRB5cWkBAJIBST9IhOhQQnzJPb2+2g2GXymMw/dzEHf7s11zwReY5HMLsmWwDHo6AoYDY/TRaq3Df9kAHDgkPwcQS6ysGICw1PBaPd/RUOv21Oomtz3fkcOdob/dAFXz8OiKcgDi0IVqpHLBwjBE8QWkHD602mBTZ+ytRPu7PNedGe89XnODi56tLfRhP9BEp9rSOWtmsfvQl5xFsPzZcurGHNOgjq1wTcmN3N2bqepNkRg8rkH6M7T8tzoo2g5CyA4J1EF1jI6p/7T6gjLyddCR/eN6PpHM+TU6O2wOhl7NfsfLpa+7muNQ1479Wsw1cq+8kYXtEvo2SQY5fh8biN2YoAkH301NGoVJ/hYDsG1sqnGl24U1k69tI4PvlOL1+iWMTbLq+yhpdloLtwmJZlZqAuCMngpPlO36n22/8Cz7d9+29+fgQlnxc1JYALwu2HddeQSG0iLFNlhedXkCXhDGDqNuVQsh9Aqp3hlGFLgf44kB+Psj562bya40owxq7zVUh1kL0FTy8ZagHEynNiBxjjpfclp/qjxMB0Dp59MHYPEpd63H+yfLyB1VF/jsaWuuF9qLrqv+bxrY8/mLzUD2AwXUfvRVMOmZ2TLfiCMHIdDvWCm1PWrh9ZUsZ9hNpjW63/XvZF8rtHki08kbKpGh14RCg+Du36462ArbJcvRsLk6Uomv3oeQUP+l8FPzYkllQm0tHndL3rizePasFRXZTPFC1cW6uEcFNUOBs5PDV+ElB9l2w76uqtPi78tIuPLwiSV03R8P3ETtuVqJ/07N/syNFkPooZFjIuilGr3jnpa/5u30yyexya/pnKu+2q/ZfvvX2MHBv7dKYgwG4CmqNifN/FnIB+0vDIUh3hGSNHu39cmYJ83RCZGYbO9uocTnLejb2pVTimo5o0zkgct8zF+BzJnN5jI0/NreNt3k7hF/Lx4PxDhYMv/gAZCRDWp6PpkuxsNNGNCGfahOfaOWr0itu66Lne5xyaZNsvcMOFJrkqRy4BhOZ57TMv6dBH04ENVKeAQ93RC39dd47SeIy4Hal9Fxx79HcvC5Qt6NZ1bXce4dvN+PBDPRrx62rXnSvjtTcakJzowPmCcoJHf4AaOisQfDHKvkVUUFa9z3xtkye9JR+9ouKWwTNroF4iqdbJtm1yQtJfI5DRf0+qW9Ne9p6GwvlMdhm6gGQYjDHkOO104qzuCEbSv+z3dP67vrvgn6v86V/9fIJzdF/evXVMxC0yN32TIRiCIgzLGVTpp4XmgMseZPDP30nVOVgGofQprUoKp4Oztqq1is3p60ehl/es/ijpVJtP7x5OwZNPU9MMgvYdhxpkP+xmnFDhzD4w9zhFwEsyZesd7SgNabB6uNxGgb54U4AQoFLX8xYg+Euw+nG4aAn+/jZ1Khu8MM3iWBTEMcFwQIi6NlrzFd5ycORu6jFSwqLHk0xG2FV9L/3tCuxhSWDRgbJACCu+t1bp/DTVX0BclxIHGtipZfbaWWgmoQaJMiefhMG7GSxBPm2n7YXvqjOCCIAgJNrxDmd/r/aAbGfxlvWXmPRlc/b38ZcojIeXff8b32lbIeIBoK0Qyfm27Krfs2QqnV8wP+gLBL//xXdvv+YDav/E5Xvff/v2gzYKlslSpu1Ewo2viyfz9/GLF6MOxTQv3Q6iu8ZknIPVP097VUY0UpD7VSvnJ81rZd10fZWrLUpnUc9ljm4iXe0sVr+UWgsn9mXlfpT36YaYlF+bB1Gp7mR4J7s67+lyzjRU3CEK1Z1ZQP3CtfOMwYfWOBQCGwdxO4OkD3qRDfT3VoFxxYEjPV500sWqe5M0yOHouc20AAAda0lEQVQpa07iN2ZbWx/mwiKAtvayfoFjc8bO4gEV96x8/mfJCFY3IjtoPWWUApKyqp3Q+A1FMg4QD2vlh0EFc3fss5EVpkBhUhzHS0e8rabKrdX6LIn1j6n2ds/S0TaLrg0EN0uXLOmkZHvHY/q+zRGMVTu0/EiCSAfa7j9VsnVPu44FD+UwVMQOG1Mip7HrwSlEMCYnPib7+7O/+Fkfd3/a1rUp0z9N+XFP2f7x//Wj9B5nnJ+TxJfyornnfRqzZ7Uyura+dr05rblp2vbT6jFvuIXCiEXzx+nXdOAM3wFwUoa/G3JTnwJt9K9+s/b8liscY++LxVP6yz6NSLFPGa7gdGvBvSCam7eE46x9EuCwck6iKHC5AfEEEtkUtlxy61xmTqqVqpdVo4CLJQew5FwnUBcOmDbtVjfnOM65zF5v/Re8AeLjadl7Ccgozumnm6BS0NaL6T4Ro98Lzun6vTOdLsiMAI8BFE4843y/aJc/ncA4+B4FgucqRDB6axO8iEh4o1X9PcDINFvRC9u2jpt4BTCZ/Bo2e9yn5kabF/1m6W6ig0m+3b6gp9Gp7Zqib0Pl4mcBFOJtIDUCCcaQH53uMfb6EZIDLYKvzIzzOdTgY6kjDh3+U1+H+1Nfm/pPUH4S3j/+s58UENFKOILue7gQTtDNP69AOlMPTpCSTcEKFnyfKVwOIDj68yTCnkCoH+UQliGsUfY7LpTif05XfWWjCueofrBkr2kLd+0pxC6PB1UZ5UVoN61pTfU0nu38nOEftqtvZweH/keXuBcGtLkBBV9XcepqL8EZL8sl2i9D3p0Q64+wdcSza2V4Hi+65pfpwahrx2o7icE9fgoVQDzBIZnOwejN+shIxA6QclA6omffhU3ui9ixCtqIwXXonnoXUZi+Y3zUagkojqYIQQz/he7w4/qAnz6B/mKhoPw2njcDuOwsiB7c7IxP5f7EtGBQ7/7QfAbui1GsLYkm03QtQGzPZ+vG2MPsnRuM75Hs+i+ax9gx+rLhxSiT0Nd//M8/uf2r3/5cP9D7f99Hs7/dVO0vvvP3E+Bpo9uLtscpcesB9BmwQPA5FUzsXgwdu6R4bRRgOmGEqs4T2PvlMXKVX7WbgSyAOm4f36VtWwHb+WXZOqSjNC/zHh+IkP6DCrZzz9A93Yfzgmu6xiD4fWjka3ITrvjkEJcTDXt9ltVmoUNOPRnQ1us41lSxkd/HseEhK8Jz3nCOh9kS5+h8KHC6xCub6aaAgvuMKulTjeurcU+sF1Rz3urWExiu0rn+FHjH5/ikqczzPiT30Len7As4rpQP1saHaZSkMxyGrejd/2QMYm+7/WCfGAGPtTshvfGClcRNF4fnJRxKmO7CnZ7c93vZlv8+mzXZChI0C5LhsdmkT35iVPJR7JPUwo5Ar7nIWI2OjYf5Rw0F0LNN2coiG20oP2S7G4xbhDgMZ4IA4/irfkP+pbk//cuf3X7w49duv9P3uL2+hVeA/4jiewb+/Ns/vf1dH9LaRgAHKHv4VWniCmqPxZjfLyDia7tRpgKCy581UTxvDmtuUf2yieHafwrzawa+qPw+bdkH05LrOIqsWU7huYp6gtMFa8XTbpZ2uuRytR+Q3jdlOCPZdsWizw4vrLWGqIv4ZmOv87mW+A1uOGpGVBty6C4LqyMAp6h+NnBd+5JdMqMj+W1qWL04hYiugoR2PCxoXK/Un3Hr/9K0Z7iBnjr+Lznhx0ij3pSq/6M/8Bglm2Bih35IeFPdPry4zC/L6okP0zp9Ou8AS3iPHGSiM3VLDpqh9ReK2SvYu+yTqTbYnW96C5dkoi//8JQB7xEYVW4E7GRPVecLezC16/OgqQRXISw7Qhq/ku3WTeLDK7xmGVuwbH1AMRMiQ0cOg6cEHGt2dBZA1d8Fz4y19VedLwD80U9+tE2Eb/Udwv+QILL1/e2+fO97Bc3WVqw+pREkHWA2F5oJGEpAYG/Tr9pMO7L6HHCGShaGkiVIY/Qpuywx+OQpByS5beU0NCV1ytdk1TSbQRvxQn3XAkaOAathwPCbmsxxp6vO9Y/3l+F+8JkjU4T41bK76IKWg0XpvnbTlRZPIENwClxsSPLBjBG41HuvVDfSnUzsWj3cunP6CORAXu8Oq4yivvElWEbIIb2s6Jv3atvNwpLT2eEMntwyNsDk2Q1qVCJqurp4NcVux5NMmxJ2XKI52AeH5oKgrngZ5epsImyUUp+dN8Ei73yAj6JLv/FWRynnrH1iQVN1e9iz88mTLeDn0+zBI/C1EaiRZL6T//A7trK1/dKmk4X+pqrRFoxXYhEr/p42dd3nebZ7MI7iDKP97xjRccoaFFsbk9wz1zHlxfCBvP3t3717+8EP391Pd/jE4Be/0Fec1vZmP/shCGR8XwCo/PhH79x+2s7dO9UtK1WXSkdHHwJRjvm1jEFvhlZZg0LSQQLWNt4OX3Wa0vcFdwHs5ljK2LejUAwaZSPZTrLwScszPUU5pP3ffxtG38NPna6C7hwOM5XFOZp47QXek8e2yeE1HVjWkr11gD/L+9tlyPShdgDLbGDWyn5VdhGq48x6VmVgRHOjpr45rl0m/A316jrvOLk6dbbAG9C5PoQhZ+IgOy551rwdTfU5kSnoRn4zAfLVvvsg7NIUDL9Hwt7zlyd+hNiXiMxnKAsN+q4dTxCQ7VSPPlgODNd6aDs9By84sb6PlutfY161hGSkEkT0Or3nFytk8gRCAB5FmiJriLP4H/QSmacsnpjOVffQDiwdeDaOpgWbXVrYyWzmQvdn8xoXmInxZURRzlorp21Tluo58e6B1ExpHNcfZMPRm9N3m/v+zdvv3P6mL2kQoZTBAI8jWmjDti7E3OIzJh8XzOpAhOzcVwg2JTxtW/kFIRsdxmNZUaDMwK11jCbbAq39Zc5EcPcfIpdi6uOpYLjb83dPQMOGbOzjk2Lq61F2xrBOEsCTn9VJEqBNiuHsDY0JknEWRMEJ+JceLKxJNvOVTkubOd9zPGoIVT0WxCOOB8xBt2ihb69AKfCgq3m9FkD7VTQR3Mu3w5jvcO0F3/Agqw7eaA3JwXkgNYzkacNABAURtBtZ8ZCuXvXBMiOQhOwtkFPwtfndpApPmPlSmyav+nDSpkpjIJ3SFaftesueYUAU2dryMX1nQzzc650Bg7e+4w/dfGqjCPz6X1MkTq7Lglewx7/A9YWW/G14O5rFsNlDaxjPyJ11cjKykfXqAGvoaGMIiVjoolFsjjdngEmJQBAc514ofMbMInMUDhkGtqIMf5S89RMMV+pAA7Xd4JtKg+96/Dh2sgXzLH2Ga9/U8qIGgt4L4fytA6PV74kYwIMs528KTUnkTG9rW69kMTqZavQhp6yyXRUjHYVKFijhf3ftkeF+0VwdWmgyTmV8pFHy04Wg35ph7PamTV/A9AR/12ddEI36CeXxm2O5/0See3F+l7deB884DN0d6H4MliOMVrBsn19O/2DnoEPYBRq1rX5BdIiumn57YWQyBQqnlzUkW+xHgCWb9ESHm85duqOT6Sz4EU9GxPyahekbms/K4nzttCBVrX8VKCF2FSxf7J6aHIrZpig6pc8BBTW2yd6zbYGwxXQSzNl4ufzFSNRswGd7jDgbNY7ws8m2rfFXot10npy1S5y+RWgJGM2SouSKn54wQPAYYZxiphP1jisEXGUnNSyaQ0rfm6Mm0B0O6CS6C5uhLBop5w62jM5QVc+pSkEn09InjaagC41jKHo7SqPtjTJQ8hQLwQQ4UwwI65/8c7spWdfjrLKLzDIDN3qR6XxH13GQKUKf8RsGGnKzRv9GIPLizLH/+IoXwzl4FQMIom4caim6vpuqdL17DoySjHbkjBSmWpRjU2YOMUQYgyHdBaMHXpHwthEcT+pcV9kprANQF8ZHPu5Pg5/O9bvgoBsChwvfYNLxZgihs4W9b98R9JIQvLJ6RMi9pISem83LmjpFXXuvB6NPI5aPWfvhZzOn/QD0eMZv4AuqI++mhNE6Nsgv4iv0F59wJiUBlYs+/5BEcafwXRBHH+d8ul0AhcOkLN8hy3qAzx4S7z4s55Hz/Oo8hYCHeMQH+TOX9OdjKQseTOzHeUf1MAa4bjF1iBxL1ZFCEnZKi+GzSxRGXNwdICVe4tHMCNr4WkblkBXgyzrRwR0Vbe0Ffy8/r2dwwYeMwlh6ojelxbMgxLI1iue4wDLEslpGlx62wEsGDO1eRc5u69J9Cd/tTDo7JxuBjhXYfuJaT2xU2RQA7nEZK0c+n14kSWCnQ+0T3DW8lEDudm58ZkRvj/BsWpI0mzurRTC+J1dywnff4cQSuY3G0DoPcucdDp+ONeQSh5frehk6fFGcDe5OsH4Xhpov/tUGix699YefUSJKDeyw2wCq00mT08OzaXF1W1LMvmxZf6V+RiAfXdZt0yN4CYLGJdec87LX+K5t9gRW2UxhJzjSz+uarkdrHHc8gRh+xJKb/cYK/aoTxNmNX/vouDqahdO6WD7m3xkpGbNRBze6S3VXf7rUqQ2DOVsd+k9pi6kJ7HoaickJQzug/F8ODAR9UcwwGNl3lSXUCyPCkDADYqDjZ4rT6QQDRxidcZAQ1QsiyuL/DK/9OM8Qqqx4CzZlWAftURh8MYAAQqdpBZiTADqDW+q47i4bVfZ4OTwcoH77XI7ri9TUSvvJsyBjbC/CRWI6Q0ed/pdcaE7G6rcQN2UIabdClhyWOAJhwC2HatMOD13ifG/wXEWs1hza9FG/PRoDXrd4vicjfrl1gH4uwhv2+OsccLoJTafr2NkuzrH36Q5ZzQCLCsmSMw1dckKFNWo+ej484On59BBk+A+N9NLN05PscuiS1XZ2IQu+/0rJ7Ai3fuNwTGrjlyR8FGeMjf368AFKlEDYH9Mbwboce8NAr/Fj9LAIr7OZy9FZcHRS9RKH82udTOaNQHBd9t3HG4JJntA7mQMEMWkigonKibKdUv9OOIbsi0nd55Qk86rMuQiwHqfX6IwWB73PT08ADQnLQn8QbmTYojM+yEo/mW/lUckXOB7d8ZW98X2fVhxgeDlYCOJ7a6loUeKZTgbvZmpKQtr0jD4uUSYBR5lRGuEoXVnSqXX06Cp9TATdD8mAjkqMunsgcYvSaAeIlsCxp8DhyCrtMeAMisYYiga5yFCdAHpBGV0fC1VZC9ro7oN/rqvNRU+QMxWb6ZAe0LiXLeC7AK/Mdl1tuziEh4ca6GQ8hCfg87tIVAp5/+ltAZZeH3+d/CDsPScln8emPMK0UevQwoqQ3MhBt/3f+cPT+AJUGzXGxuiPz+ok6f2SBJvWke42XWQP/V07Rl9SdnFuhKcduNDEW2UyYwBsstpmRxCOfU2vqb6B4mq3xqyczmdIO8PZiMbAyeKBRPjuMJAjuueNIjKH6lqYeOrZqIH47iZD7UVqdQSuYhsNce+aTcFTzoDHTm+1yaD17Ng0Lphl6vU5zrOgCN8JoPOBqLNhMHJ1PF5lofiC0bBR1atGqwcPCV4G9cURgnNroIa8cVmfag79Ohpl4Fmiids0UFv8pxuK73RiLqtG58U92MjZtRuvu4lrhzA8m9pkD/eE6MCTzb49eQGcjENYPxn7GPgKmJqmr4yk3zI6PQWm0CPeGFkbvnGq9v6BsTusarbYuqxKfyfBwFSP+h7EhDvXZNmUtnYyPG84PV/KcdIlzs8HDhtljAhDdPTkfpvZyX5mxWjWcPFk2QV3ZyrL7vMvOoBsb8dXBAdpQjy+nfIBM4oFbwrZlJweBwu0kz33JhmELnkf3My33oy/7dxaS0kWvcDzFcl1tjajKRbswG30ovdN2x61SEcJI2BELQEQZR6OT8ECyB8l9zoBVL9jrQm558xCPuPGCBzDE84gB1Njx2HecVM1+Lo6+PHSK3pzmhmgb0kJ3/x5vSg4doPDByYE0LP26/eR4PquPsOod1fYZGP8BH+mXXU2jJOrl+fb5qhGYS8MRfDwlSPGnf67IWu40DL6sVn/4d+oQF1wpOSL4WEBHr2xu+6XfOnYrycoW7iSHc8qOk5tjnRZJU3OM1JStacM+Dj1YMh4NUlAsVcBf9UPbxAUmL0WgEHQGdqIQ4ktvcjX4fATHxKg3zU9OoYz3gKmZ2sh+J67CRm+zVJqn50tZH2EYQauF/KdzykvHPr8YkH4kOcY5+piUD29lDEFMHw0JIGaujEHbAdjMnQi0Mw8NqWhl2AnB9+/88Vf2ZoPhxQNFtqNWzSS3Q3XMX9xVDDKPDkaJRKiToXfkCwzgq8vBorRMbt1xB1Wv7t4nfujjHtQ1fXQ60hh8tICTf8KBsd/fJxHORj+CA3PHDic+rgm+0Y6ZDAWgmXSntDcs0qXU4csMVIYnuFLLjcr3YT0XcWbkwsUd8Y90pHSTgCl2WDpcnPraG5ayIijh+PDHwNAfRyj6gtGff9dxyN5mw5Q612/+1xMzT7OYGSwfts0D+qK/vWabQ4v4ateZtwIELJOh38NnS62R6+LyvRGRzp6rdxPLlmuRoEvOGIlnDFRPZmWlFYV4mhuFKO//jYqR1Ry0E/dh9ddJ2mpD1dTLZsLpPKdaByWLvneSOKN86MdsrGFbi/tB0aHR+ga4aiu/33FcDrcrmTRI4CsEdEbErg6nY47+KjP1rQwcyL/nXrR/b4vg00yrplH0tbYbhsjjvDFIQbu9z5kXeJwFvcr5hQIJNQxX30RiNh2KHiY5ircJAQzpVnJrb62uuytkwv7DLv1B1xjp7XA636PJ35tPAgx/S8FEXyffuzkct05I2VGafhlz33JnYU+ockneIwoQ1xdwIy4KaRHecA2RHuMw/N05/EeznymWfsV7uSaLOGkk1OO0ZHYlnlBeYL78LKsiv/+Opxg19dNnka7BaaFKfCCXnLeg6gEzUAOcChgplfHyQtr/ZLXlGYXQZxn5ugjmvqDrf1s7tQHUpjqlwLGVxVXfVVVJ+HQoefEFAYeiObweJNYtfMR60aJISaXXD2iVOtskr7g1H9OncM+5IBw7ksUO8IzXQgaam7GMfnxfZibD5pSbYSoDs5L6ANvtOnRmT2fnv/aLRuuw2XvOhz+5wtdWbfNv4I1A9n32IHrf4kbhQiFbnAS0/N85NnLdpye2tZKmdMnwE4wu+F2klNBMDjlXP3dHTmwlbtwdQKp8yO+tcF4TuKodkCjuZMLp47AGvKjM03ueHVluMrp+kFmU8v8RqA5V3AL6BmkxzcSdEEsiNBMDpCnjoOFcyNNJ8EIFngGGw5mdR8D/OEuDsjX9dSDIaVmujlzcJXBRAsGPVcDx3iozoqza1hkaees42PmPpx2vrGHJ/qHoeKcHbrkiLnXGX10Pc3Qj3dK0I9ePljTrONsQEfwLLF0qmwWoX+NyNzJnsbqYTypfI0LJnBkgjr9dZj+9x0Ac8w0KEA7p8uV1ndPelj3Vd+BQM/WQQvkGvd0QLINFi+6pGijGzOt0P8Y7ApsozZe7nb3+6I+6IgZtwSgWFISnfU7eqkRPk+RWPMYrS6/22BQ04v6kojIu32w9hOUfW9bRir97rP+4cIogxhlNnXpytRg1Dvs89yFoMhXX9VhOsYVAs2ozXfnkKvVALICbsJ2uKqmdZj6H5ba9yG8jgO54KacIFC98t34gHZ+57iXDjAFa9juT0DsN2nwwZCskAEPWPLEtw+BzfQ+kwI+FE/7+lYjsYX8HhjEf2XT0DlK+ARpePE3VhNsYF2cAOy68z3qst6RZXgZtkx9b7MZIts2ztVU6sUA42ZYiOFX6PU4avBVmT7tLx7sTEZt8Lo67f/w0VHWPPkITJoM7yk54C54Kd60PTYiHhgqUFcfctJuJKuOs23tMUNUXztfsRmCV7tzZyu5Cw7cwSNLfsp+Mx12Siebzk0hwSAfXTZdEkIc1ervnAxG9eHmBC9e0u3Wl9noLsWZysYbFqbAuoVsM4iGyyNi+OszKWszdZRcZtuuT+IKprpnc4K0ue1TzF9s4XOBEOnnIfMRYwanUMPy5ummZjGBuUMOL5OYLIO52BgzdEJofCuPc+JdV7++NRwp8B/QxXynLvUdBQJddfzwnM+so6Hi7sy7w+7mKOmuzGGqRmn8d96U0X2Qzfw2ty0Lmao1YjGuB0mb1gW4TQUJ58gQPYmklgUQRnCHt3s0h5NciTEm6WNBUKfJ0ahvhGGMZVay0/d1A3b3dnIsSeCuHv2U0Z2gOOu6Bm1IkcFFUj7qzI4l+o8BFOBGXzD0oWMFHXjW+7JvEF0fis5oep80vnCsT/pcwCcDv5KuPdaywOrGtC9Inw7T2R2H59/8Cp1k7IOMGxXgxA8dAaxsndpxzlydtiEZT2AB95/eXy5xTwOnv6YEnw1CmFWhnM6dMdsr61zPfMFTcI8euwQ/m+lTmwAX+13YMACYvdK+bM7RqjmGqGM1Ywz8HCZCW8iBqiMIgptvU2aXIL1VztA74nfh4MTsBTqcLsbcOu0c0/urac1X0wIMeOVQOc57P1dPbaYqB6v3Q9Pd8WXpFHxXDiQbBTi7JELDOcFI7PsQBFDTjX15RHhKjeQ+sgdLGAHpiGf4ojiucqAuD5+aU7xr+p6xXenTWkzgwAmac2/3LuO98kR4lt9CfPCBdBy5juuSguKkF1ugjg4+J0XXlzODWXN0azOwHWbZD2fr1ShuegVbNd4681VYW4h3DWr/9aEu/mBUhWKjyBLUQFa3HTjru4qbxGOxBDHa/MgXaqSbp09e2+0I54+L9PzRzf49hQEBfiZWJ8kgDJN0VWeqVWP8T3Sw9Ku1iu2Y4ZVQVWlWT+sEedyBg5889ODxqykhaD4y0GKkTs9k/3UO2M7Xs4A9Ug/zieZOXM/hGKEmAZaACGMeJ8scnZ0RP4FrM1+UUZnhHu2EqWoMXT2HAcHHbB0e/GofDR0qC6gJ7hqeo7TB8Z6rzfRjxu5orn+csuZg9hsxFGP3hJhVnl24RpVkpItTF+9paJsIkVt935S/HRo4ae+SvpMAgo2Ra8YzVtY+jxpEiOHufJlGXYj9V8dZNvLEw764gmdHxx7HPshF3wV/tbHdO1zqcNZ/oNPxEodaOCEOlmpoCsc7C5hLmT0s/WGKY4RvU8JqQQcxuN6m65PQ4Di6XzLAUHSs8+wSbvMFz/ChwwZ6GLk7v98fugc2VdClB0iXhFur7AYs2QjDVh3QJI3iGstknmwuqoUT1J3PscBh899xsQpoz1rx9ILxlC0zJE76jCdd4eRPmx0YvhANm02FvmC+Cl6FpQwmKu2UjcPzNoXCuKwFDOLghmbRpP8R79QhViDGLAa9znz6w1BB9r92inIZrgne5aZVM8owTll6Xyx1UO+a0g7tGT+6gKnHrg66/JAB9WFwAWS3bvP16+aZ0UYR7Hjy5ttS1icDzojtjHm0Z1/h6jdjko+TUPqcBU148FDBF/fkxHe5zq00/OkLBV3qEoz1T7TwKnDxcj6HkjRNI1kTfoFR95X1u8ynbn1r4SfAOBMd0C0w61vbtrtX1fWSZ7Q42O5h6HHxU/NF5hCDT7lSzHgGvEBgKw5yAeHrPpLC7TW89bco7x71bqir1MX6Z096XPrb0mB+EV9uHl94xwnF6ofGGDrXqsexS8Je7esafVVR6nXX0jrUJYnYOPjpYY/vNOJIsJBSD1zaXaZc4ZgnxEQAsgwpdo8BiYQ4jhD8lFtA1JGyZ/UCTIY+0c4YY3G0hjMcW+fisz5HFgxEhjNBM7rIHiXc57PLaGlrzh3RQB/LDHVI1TGsNe4SnA2Ay0inFl+d9UL/fHvOUfqmcHXm9CcAqkcTMYLiqmsZc08Mm9eackCWk3sSwbdRcrg9esK6977Ox1UV/umgk00rNGHmao/CdCEg8HRAjz3YRWffxmPKsScWgt8XmSBX+/QJO9rkcYxHbLqWvJ1ezaun7VGoAb2T/YPQSQI1VapeWQAz1i7op3OvO9LRCl5VermPFNNdQAe+RCAhC6KCZvTcW4GndSXmFgid7ws66rff2gmeD0kglERXhzbiHyrhWQ38ZAsfnMckeEhKvhIPIKZPGoh3MxPPTeLJGCdAHn89D470QQa0lyQHGGR1/39nTxjMsvcQ9gAAAABJRU5ErkJggg==;" parent="1" vertex="1">
            <mxGeometry x="835" y="760" width="207" height="76" as="geometry" />
          </mxCell>
        </UserObject>
        <UserObject label="" link="https://rarible.com/" id="ASDI04Z-3KQcHdIL0jVY-1">
          <mxCell style="shape=image;verticalLabelPosition=bottom;labelBackgroundColor=#ffffff;verticalAlign=top;aspect=fixed;imageAspect=0;image=data:image/png,iVBORw0KGgoAAAANSUhEUgAAAKgAAABGCAYAAABYBd9GAAAK02lDQ1BJQ0MgUHJvZmlsZQAASImVlwdUU9kWhs+96Y0WQEqA0JsgnQBSQg8gvYtKSAIJJcQUROzK4AiOBRURUEd0EETB0REQURELFkSx9wkyKKjjYMECKnOBR5iZt9576+21Ts63dvbZZ++bc+76AwDFny0SZcMqAOQIpeLoIF96YlIyHdcPiEAd4AAJ0NgciYgZGRkGEJua/24f7gBofL5pM57r37//r6bG5Uk4AEApCKdxJZwchNuRMcARiaUAoGoRv/EiqWicuxBWFyMFIiwf54xJfj/OaROMxk/ExEb7IUwDAE9ms8UZAJAtED89j5OB5CEHI2wn5AqECOcj7MXhs7kItyA8Mycnd5x/Q9gCiRcBQCEjzEj7S86Mv+VPU+RnszMUPNnXhOH9BRJRNnvx//lo/rflZMum9jBDBpkvDo5GZuTXhO5l5YYqWJgWHjHFAu5E/ATzZcFxU8yR+CVPMZftH6pYmx0eNsXpgkCWIo+UFTvFPElAzBSLc6MVe6WL/ZhTzBZP7yvLilP4+TyWIn8BPzZhivME8eFTLMmKCZ2O8VP4xbJoRf08YZDv9L6Bit5zJH/pV8BSrJXyY4MVvbOn6+cJmdM5JYmK2rg8/4DpmDhFvEjqq9hLlB2piOdlByn8krwYxVopcjin10YqnmEmOyRyikEwiAR0EAAcgBNwBFwpL1863oRfrmixWJDBl9KZyE3j0VlCju1MuoOdgz0A4/d28ij8fn7iPkI03Wkf2x058lcR55ppX44NACfSkCvoPO2zyAWA2gPAaSlHJs6b9KHHPzDIG0EZeSdoA31gDCyADVKbC/AAPkiVISACxIIkMB9wAB/kADFYBJaCVaAIlIBNYBuoALvBXlALDoEjoBm0gTPgArgCroPb4CGQg37wEgyBD2AUgiAcRIGokDZkAJlC1pADxIC8oAAoDIqGkqBUKAMSQjJoKbQGKoFKoQpoD1QH/Qwdh85Al6Ae6D7UCw1Cb6ERGAWTYXVYDzaDZ8EMmAmHwrHwPDgDXggXwIXwBrgcroYPwk3wGfgKfBuWwy/hYRRAkVCaKEOUDYqB8kNFoJJR6SgxajmqGFWGqkY1oFpRnaibKDnqFeozGoumouloG7QHOhgdh+agF6KXo9ejK9C16Cb0OfRNdC96CP0NQ8HQMNYYdwwLk4jJwCzCFGHKMDWYY5jzmNuYfswHLBariTXHumKDsUnYTOwS7HrsTmwjth3bg+3DDuNwOG2cNc4TF4Fj46S4ItwO3EHcadwNXD/uE56EN8A74APxyXghfjW+DH8Afwp/A/8cP0pQIZgS3AkRBC5hMWEjYR+hlXCN0E8YJaoSzYmexFhiJnEVsZzYQDxPfER8RyKRjEhupCiSgLSSVE46TLpI6iV9JquRrch+5BSyjLyBvJ/cTr5PfkehUMwoPpRkipSygVJHOUt5QvmkRFWyVWIpcZVWKFUqNSndUHqtTFA2VWYqz1cuUC5TPqp8TfmVCkHFTMVPha2yXKVS5bjKXZVhVaqqvWqEao7qetUDqpdUB9RwamZqAWpctUK1vWpn1fqoKKox1Y/Koa6h7qOep/arY9XN1Vnqmeol6ofUu9WHNNQ0nDTiNfI1KjVOasg1UZpmmizNbM2Nmkc072iOzNCbwZzBm7FuRsOMGzM+aulq+WjxtIq1GrVua41o07UDtLO0N2s3az/WQetY6UTpLNLZpXNe55Wuuq6HLke3WPeI7gMaTLOiRdOW0PbSumjDevp6QXoivR16Z/Ve6Wvq++hn6m/VP6U/aEA18DIQGGw1OG3wgq5BZ9Kz6eX0c/QhQ5phsKHMcI9ht+GokblRnNFqo0ajx8ZEY4ZxuvFW4w7jIRMDkzkmS03qTR6YEkwZpnzT7aadph/NzM0SzNaaNZsNmGuZs8wLzOvNH1lQLLwtFlpUW9yyxFoyLLMsd1pet4KtnK34VpVW16xhaxdrgfVO656ZmJluM4Uzq2fetSHbMG3ybOptem01bcNsV9s2276eZTIredbmWZ2zvtk522Xb7bN7aK9mH2K/2r7V/q2DlQPHodLhliPFMdBxhWOL4xsnayee0y6ne85U5znOa507nL+6uLqIXRpcBl1NXFNdq1zvMtQZkYz1jItuGDdftxVubW6f3V3cpe5H3P/wsPHI8jjgMTDbfDZv9r7ZfZ5GnmzPPZ5yL7pXqtePXnJvQ2+2d7X3Ux9jH65Pjc9zpiUzk3mQ+drXzlfse8z3o5+73zK/dn+Uf5B/sX93gFpAXEBFwJNAo8CMwPrAoSDnoCVB7cGY4NDgzcF3WXosDquONRTiGrIs5FwoOTQmtCL0aZhVmDisdQ48J2TOljmPwk3DheHNESCCFbEl4nGkeeTCyBNR2KjIqMqoZ9H20UujO2OoMQtiDsR8iPWN3Rj7MM4iThbXEa8cnxJfF/8xwT+hNEGeOCtxWeKVJJ0kQVJLMi45PrkmeXhuwNxtc/tTnFOKUu7MM5+XP+/SfJ352fNPLlBewF5wNBWTmpB6IPULO4JdzR5OY6VVpQ1x/DjbOS+5Ptyt3EGeJ6+U9zzdM700fSDDM2NLxiDfm1/GfyXwE1QI3mQGZ+7O/JgVkbU/ayw7IbsxB5+TmnNcqCbMEp7L1c/Nz+0RWYuKRPKF7gu3LRwSh4prJJBknqRFqo4IpC6Zhew7WW+eV15l3qdF8YuO5qvmC/O7FlstXrf4eUFgwU9L0Es4SzqWGi5dtbR3GXPZnuXQ8rTlHSuMVxSu6F8ZtLJ2FXFV1qqrq+1Wl65+vyZhTWuhXuHKwr7vgr6rL1IqEhfdXeuxdvf36O8F33evc1y3Y923Ym7x5RK7krKSL+s56y//YP9D+Q9jG9I3dG902bhrE3aTcNOdzd6ba0tVSwtK+7bM2dK0lb61eOv7bQu2XSpzKtu9nbhdtl1eHlbessNkx6YdXyr4FbcrfSsbq2hV66o+7uTuvLHLZ1fDbr3dJbtHfhT8eG9P0J6marPqsr3YvXl7n+2L39f5E+OnuhqdmpKar/uF++W10bXn6lzr6g7QDmysh+tl9YMHUw5eP+R/qKXBpmFPo2ZjyWFwWHb4xc+pP985Enqk4yjjaMMvpr9UHaMeK26CmhY3DTXzm+UtSS09x0OOd7R6tB47YXtif5thW+VJjZMbTxFPFZ4aO11werhd1P7qTMaZvo4FHQ/PJp69dS7qXPf50PMXLwReONvJ7Dx90fNi2yX3S8cvMy43X3G50tTl3HXsqvPVY90u3U3XXK+1XHe73tozu+fUDe8bZ27637xwi3Xryu3w2z134u7cu5tyV36Pe2/gfvb9Nw/yHow+XPkI86j4scrjsie0J9W/Wv7aKHeRn+z17+16GvP0YR+n7+Vvkt++9Bc+ozwre27wvG7AYaBtMHDw+ou5L/pfil6Ovir6XfX3qtcWr3/5w+ePrqHEof434jdjb9e/0363/73T+47hyOEnH3I+jH4s/qT9qfYz43PnSMLI89FFX3Bfyr9afm39Fvrt0VjO2JiILWZPSAEUMuD0dADe7kd0cRKiFa4DQJw7qasnDJr8LzBB4D/xpPaeMBcAatoBGJdcUT4AVCHDHGFVxBeOcKwPgB0dFeNfJkl3dJjMpYpodvzhsbE3hQCQ2gAY6RgbGxkYG/taihSL6J22/kk9P25GSgA4K4/To12F4J82qfX/0uM/ZzBegRP45/wnYEUV4AmX1WwAAABWZVhJZk1NACoAAAAIAAGHaQAEAAAAAQAAABoAAAAAAAOShgAHAAAAEgAAAESgAgAEAAAAAQAAAKigAwAEAAAAAQAAAEYAAAAAQVNDSUkAAABTY3JlZW5zaG901nH4pAAAAdVpVFh0WE1MOmNvbS5hZG9iZS54bXAAAAAAADx4OnhtcG1ldGEgeG1sbnM6eD0iYWRvYmU6bnM6bWV0YS8iIHg6eG1wdGs9IlhNUCBDb3JlIDYuMC4wIj4KICAgPHJkZjpSREYgeG1sbnM6cmRmPSJodHRwOi8vd3d3LnczLm9yZy8xOTk5LzAyLzIyLXJkZi1zeW50YXgtbnMjIj4KICAgICAgPHJkZjpEZXNjcmlwdGlvbiByZGY6YWJvdXQ9IiIKICAgICAgICAgICAgeG1sbnM6ZXhpZj0iaHR0cDovL25zLmFkb2JlLmNvbS9leGlmLzEuMC8iPgogICAgICAgICA8ZXhpZjpQaXhlbFlEaW1lbnNpb24+NzA8L2V4aWY6UGl4ZWxZRGltZW5zaW9uPgogICAgICAgICA8ZXhpZjpQaXhlbFhEaW1lbnNpb24+MTY4PC9leGlmOlBpeGVsWERpbWVuc2lvbj4KICAgICAgICAgPGV4aWY6VXNlckNvbW1lbnQ+U2NyZWVuc2hvdDwvZXhpZjpVc2VyQ29tbWVudD4KICAgICAgPC9yZGY6RGVzY3JpcHRpb24+CiAgIDwvcmRmOlJERj4KPC94OnhtcG1ldGE+Cpjk98QAAAoISURBVHgB7V17TBVXGv9YxW5ZAU3xUSgSI62KKSqyYAwu60aoSY1EiGYbra8/unGrgKgUW93YlW6U+gAUa9q4rq6grZVVqrINFuzW2KIWd7mCsKLYNixqMSIo+MC6883uDDNzX3Nn5tx7JN+X3Mx5fuc7v/Ob82bweyIIkBACnCLwM07tIrMIAREBIigRgWsEiKBcNw8ZRwQlDnCNABGU6+Yh44igxAGuESCCct08ZBwRlDjANQJEUK6bh4wjghIHuEaACMp185BxRFDiANcIEEG5bh4yjghKHOAagf6WWffgHEDnIYCufwE8ui2oZX2Lzw/AfzBAwHiAwDkAz/zSsqqQIn4Q8LPkPmhbNsCdKt/WKngaQEieb22g0i1HwDxBW18Xes0Gyw0zpDBgDMDzfzWUlTLxiYC5OSj2nLyQE/FFW9Amkj6DgHGC4pzT18O6o2ZAm9A2kj6BgHGC4oKIV+HZNl4x49Qu4wTF1TqvwrNtvGLGqV3GCSpuJXFaK55t4xQyXs0yTlDm+5xmIGO9B2vGNsrrCQImCOpJMZSWEDCGABHUGG6Uy0sIWHfU6SWDWRbT0dEB586dd1iEn3CyGhYWBqNGjYL+/b0LW1lZGaSnZ8CAAQNgzZocWLx4sWgj2puVtVK2d+zYsbByZZbsd+XQ5o2IGAHr1q1zlcUnccZPkq7oO/u2XboLdzofG6pcRNgzEB72c0N5YZTne6EXLlyAuLh4t+W9+ebvYcOGDRAYGOg2rdkEXV1dEBw8SKXm2rVm8WW5ceMGvPBCuByXnJwEx48fl/2uHNq8EydOhLNnq11l8Ukc864gPbcZTlU/MFW51KQAyFwUClPj1Q1lSqmJzEVFO+HEiXKxQQcNYmsT9nRasdlsIkG14X3R/1TMQUsruuBX85qg7OQtbtqgubkZcnLWMLdn2LBhEBsbK5czdOhQmD59uuzv646ngqBSI6wv/EFyeuWJc87Kyko4ebIC8vLyIDr6ZVW5u3fvBhyCWYqfMPn9/PO/Q0FBPhQVFUFd3UWvz4FZ1s+dbuZDvDsDPIm/UN/jSXLTaYODg2Hq1ARRT2JiIqSlpQqLpEiV3sbGRsD5myTd3d3CQuscNDQ0QGvrdYiIiIAXX4yE+Ph4O2K1tPwHbt3qHRUwHX4Ns6amBlDP5MmTxXlua2srJCRMFYv4/vsfxLB+/fpJRaqePT09UF9fDzifRnd0dDSMGzcOAgICVOn0eq5fvw7nz5+H2tpaQccvYMyY0TBhwgQYPny4XhWm0vmMoE+aeoctbQ06O3ogKOaf2mCYMNZn5oq2DBkyxM6m27fxcvb/5IsvKmHp0qWAw79WsPf98MOPYNKkGDlq8+bNsGPHDtn/zjtvQ2Hhdujs7BTDvvzyFEyZMgVmz06Fy5cvy+l+/PEmOJr7fv31N+KLUFtrk9OiAxdzBw8egOTkZFW4Kw+SOz8/X9g1eNthso0bN0JGRrrdS+cwsYlAn7X4b+arQdRTh9lJwg16Hwmuerdv7yWTZMaIESNE57ff1sCMGTOkYLsnkiYpKQmuXGmCwYMd1+O99/5kl8+TACS2lpyYH8NffXUmFBfvh7lz5+pSOX/+63D48GGnaXNycuC7764JL1Sh0zRWRPiMoFXf6F/ZBwf6QdbiEPhDeoQVddatA4fKl14aDQ8fPoSWlha7fDi0474oytq1a1XxuJhJSEiAiooKuUdEouzatUvoldgvrlTG/N+zYkUWzJw50+1w/8knh+zIOWfOHLh79y6Ul5fLqj/4YBfMmzdP7LXlQIsdT8Ui6U7nEzh1tgNw6Pe24HDtiJxox9atWwAXMVrBVTf2Lh9/fBA++6xMFW2zXVT5tR4cjhctWgTLli0zNM/Dl6aqqhIaGxtE+5T6b968CUeOHFEGOXSvX79eFX7xog1KSoqhrOyokP9vqriSkgMqv9Uen/WgnlYEe9yM3Cvw57zRnma1PP20adNg584iiIyMlHWXl58QFyX19ZegqekyHDt2TCBJo7hfKicSHLjgcSZITput1tQeJxIoNDRULGL58uXiIkw5dUD7XMm9e/dU8120CeebzuTSJdf6nOXTG+4zgv6juLdxtcbeFk6eFqy+JpxAqW8l7SntFAiqTc3Oj42TkjIL9u8vVhWyevUqFTkxEqcBW7duE7ejcCg3IitWZJoiJ+4USOSUysfdByVBsWd1JfhSKQXroq2/Mr6urk7ptdztM4K6OxVaktYO2/7Su0KWav5VdbvXTpTCw8Nhz5498PjxYzhw4KBkArz77h/FBY8cIDiys7OFfcqdyiDRjSTXS9ioqCi7/J4EdHfb78n+9JP6JR84cKBLlZ5uR+FWHEvhdg46KMhn744d3qtWrVaFVVdXi4sfKbC9vd2OnJ9+ekgYXtvEIVtK5+7pKTm0+mprbeIerDJ83759Si9ERY1T+bUe5bQF43A+/eDBfXj06KH8KywsgNLSUrF+9fVse1BuCaoFzpd+3MOcNWuWygTsRSXBzXOl4FCbkpICQUFBcPToUWUUc/crr8yAbdvyhVV4KSxYsEBY3JSoyoyNnaTyaz14Uwt3HyTBTfo33vgdXL16VZhbN0Fubq54syo1NRWeey5EvDQjpWXx5KebYlE7C3W+9Va2sIrtXZFLvSjubYaGPq8qCeMSE38NISEhqjyqRIw8OJ3A6YYjwdtOuMBzJ1u2bBa2jibLyfbu3Qv4cyRKMjuKNxvGvAetKn4Z8NRI+3NnOO55avOg393c1Z1eo/FxcXF2lzSkXhSJ+Nprv1WpPnPmjENy3r9/X5XOWx68V1BQUKCruJiYGHj/ffer0czMDF2E11Wok0TMCeqk3KcyGC8LKwV7ytOnT4tBeGS5ZMkSZbToxpW5cnqgPHv391cPYM4uQj/7rPpOrJQOLzArJS0tDZA0Wlm4cKFwNl+j2nnQ5tX6MzMzhbp9ZXdBBnXjIQReXNm0aZO2KMv9zC8sW26xXoUGLizrVe0qHW6GNzb+Wzij7gfjx493e2rjSpfRODxHx8sq/v7+IimdXSzRq7+trU24RVUnXmAZOXKkV/+qgAiqt5UonU8QoCHeJ7BToXoRMEFQ+zNovYWyT8ezbexr35dKME5Q/Hgsr8KzbbxixqldxgmKXzbmVXi2jVfMOLXLOEHxs9u8Cs+28YoZp3YZJyh+Ex4/u82boE30vXreWsWwPca3maQi6RPgEhL0ZICA8R5UMga/Cc9DT4o20PfppVbpM0/zPagEBf0bGgkJelqIgHUEtdAoUkUISAiYH+IlTfQkBBggQARlACqptA4BIqh1WJImBggQQRmASiqtQ4AIah2WpIkBAkRQBqCSSusQIIJahyVpYoAAEZQBqKTSOgSIoNZhSZoYIEAEZQAqqbQOASKodViSJgYIEEEZgEoqrUOACGodlqSJAQJEUAagkkrrEPgvMcoPB30Bxn4AAAAASUVORK5CYII=;" parent="1" vertex="1">
            <mxGeometry x="560" y="550" width="168" height="70" as="geometry" />
          </mxCell>
        </UserObject>
        <mxCell id="VUted_YG8UqEreyTRTVP-3" value="&lt;font color=&quot;#0000cc&quot;&gt;Mainnet&lt;/font&gt;" style="rounded=0;whiteSpace=wrap;html=1;fillColor=none;strokeColor=#0000CC;" vertex="1" parent="1">
          <mxGeometry x="350" y="230" width="120" height="60" as="geometry" />
        </mxCell>
        <mxCell id="VUted_YG8UqEreyTRTVP-4" value="&lt;font color=&quot;#ff8000&quot;&gt;Testnet&lt;/font&gt;" style="rounded=0;whiteSpace=wrap;html=1;fillColor=none;strokeColor=#FF8000;" vertex="1" parent="1">
          <mxGeometry x="520" y="230" width="120" height="60" as="geometry" />
        </mxCell>
        <mxCell id="VUted_YG8UqEreyTRTVP-5" value="&lt;font color=&quot;#808080&quot;&gt;Other&lt;/font&gt;" style="rounded=0;whiteSpace=wrap;html=1;fillColor=none;strokeColor=#808080;" vertex="1" parent="1">
          <mxGeometry x="680" y="230" width="120" height="60" as="geometry" />
        </mxCell>
        <mxCell id="VUted_YG8UqEreyTRTVP-6" value="" style="rounded=0;whiteSpace=wrap;html=1;fillColor=none;strokeColor=#808080;" vertex="1" parent="1">
          <mxGeometry x="817" y="438" width="260" height="100" as="geometry" />
        </mxCell>
        <mxCell id="VUted_YG8UqEreyTRTVP-8" value="" style="endArrow=none;dashed=1;html=1;dashPattern=1 3;strokeWidth=2;rounded=0;fontColor=#808080;" edge="1" parent="1">
          <mxGeometry width="50" height="50" relative="1" as="geometry">
            <mxPoint x="1080" y="548" as="sourcePoint" />
            <mxPoint x="1115.0000000000002" y="513" as="targetPoint" />
          </mxGeometry>
        </mxCell>
        <mxCell id="VUted_YG8UqEreyTRTVP-9" value="" style="endArrow=none;dashed=1;html=1;dashPattern=1 3;strokeWidth=2;rounded=0;fontColor=#808080;" edge="1" parent="1">
          <mxGeometry width="50" height="50" relative="1" as="geometry">
            <mxPoint x="1077" y="438" as="sourcePoint" />
            <mxPoint x="1111.9999999999998" y="403" as="targetPoint" />
          </mxGeometry>
        </mxCell>
        <mxCell id="VUted_YG8UqEreyTRTVP-15" value="&lt;ul&gt;&lt;li&gt;&lt;font color=&quot;#0000cc&quot;&gt;Does not include mainnet indicator&lt;/font&gt;&lt;/li&gt;&lt;li&gt;&lt;font color=&quot;#0000cc&quot;&gt;Few listings in dicovery&lt;/font&gt;&lt;/li&gt;&lt;/ul&gt;&lt;font color=&quot;#0000cc&quot;&gt;&lt;br&gt;&lt;/font&gt;" style="text;html=1;strokeColor=none;fillColor=none;align=left;verticalAlign=middle;whiteSpace=wrap;rounded=0;fontColor=#808080;" vertex="1" parent="1">
          <mxGeometry x="1097" y="497" width="230" height="30" as="geometry" />
        </mxCell>
        <mxCell id="VUted_YG8UqEreyTRTVP-16" value="&lt;ul&gt;&lt;li&gt;closed beta&lt;/li&gt;&lt;/ul&gt;&lt;font color=&quot;#0000cc&quot;&gt;&lt;br&gt;&lt;/font&gt;" style="text;html=1;strokeColor=none;fillColor=none;align=left;verticalAlign=middle;whiteSpace=wrap;rounded=0;fontColor=#808080;" vertex="1" parent="1">
          <mxGeometry x="1097" y="390" width="230" height="30" as="geometry" />
        </mxCell>
      </root>
    </mxGraphModel>
  </diagram>
</mxfile>
